%TF.GenerationSoftware,KiCad,Pcbnew,9.0.4*%
%TF.CreationDate,2025-09-01T15:43:59+02:00*%
%TF.ProjectId,Cours_Univ_2025_v1,436f7572-735f-4556-9e69-765f32303235,rev?*%
%TF.SameCoordinates,PX2faf080PY632ea00*%
%TF.FileFunction,Paste,Bot*%
%TF.FilePolarity,Positive*%
%FSLAX46Y46*%
G04 Gerber Fmt 4.6, Leading zero omitted, Abs format (unit mm)*
G04 Created by KiCad (PCBNEW 9.0.4) date 2025-09-01 15:43:59*
%MOMM*%
%LPD*%
G01*
G04 APERTURE LIST*
G04 Aperture macros list*
%AMRoundRect*
0 Rectangle with rounded corners*
0 $1 Rounding radius*
0 $2 $3 $4 $5 $6 $7 $8 $9 X,Y pos of 4 corners*
0 Add a 4 corners polygon primitive as box body*
4,1,4,$2,$3,$4,$5,$6,$7,$8,$9,$2,$3,0*
0 Add four circle primitives for the rounded corners*
1,1,$1+$1,$2,$3*
1,1,$1+$1,$4,$5*
1,1,$1+$1,$6,$7*
1,1,$1+$1,$8,$9*
0 Add four rect primitives between the rounded corners*
20,1,$1+$1,$2,$3,$4,$5,0*
20,1,$1+$1,$4,$5,$6,$7,0*
20,1,$1+$1,$6,$7,$8,$9,0*
20,1,$1+$1,$8,$9,$2,$3,0*%
G04 Aperture macros list end*
%ADD10R,1.000000X0.600000*%
%ADD11RoundRect,0.225000X-0.225000X-0.250000X0.225000X-0.250000X0.225000X0.250000X-0.225000X0.250000X0*%
%ADD12RoundRect,0.250000X-0.450000X0.262500X-0.450000X-0.262500X0.450000X-0.262500X0.450000X0.262500X0*%
%ADD13RoundRect,0.250000X0.450000X-0.262500X0.450000X0.262500X-0.450000X0.262500X-0.450000X-0.262500X0*%
%ADD14RoundRect,0.250000X0.262500X0.450000X-0.262500X0.450000X-0.262500X-0.450000X0.262500X-0.450000X0*%
%ADD15RoundRect,0.225000X0.225000X0.250000X-0.225000X0.250000X-0.225000X-0.250000X0.225000X-0.250000X0*%
%ADD16RoundRect,0.250000X-0.250000X-0.475000X0.250000X-0.475000X0.250000X0.475000X-0.250000X0.475000X0*%
%ADD17RoundRect,0.225000X-0.250000X0.225000X-0.250000X-0.225000X0.250000X-0.225000X0.250000X0.225000X0*%
%ADD18RoundRect,0.250000X-0.262500X-0.450000X0.262500X-0.450000X0.262500X0.450000X-0.262500X0.450000X0*%
%ADD19RoundRect,0.243750X0.456250X-0.243750X0.456250X0.243750X-0.456250X0.243750X-0.456250X-0.243750X0*%
%ADD20RoundRect,0.375000X0.625000X0.375000X-0.625000X0.375000X-0.625000X-0.375000X0.625000X-0.375000X0*%
%ADD21RoundRect,0.500000X0.500000X1.400000X-0.500000X1.400000X-0.500000X-1.400000X0.500000X-1.400000X0*%
G04 APERTURE END LIST*
D10*
%TO.C,D2*%
X10250000Y24150000D03*
X12350000Y24150000D03*
%TD*%
D11*
%TO.C,C8*%
X4925000Y35550000D03*
X6475000Y35550000D03*
%TD*%
D12*
%TO.C,R4*%
X39500000Y6912500D03*
X39500000Y5087500D03*
%TD*%
%TO.C,R5*%
X42000000Y6912500D03*
X42000000Y5087500D03*
%TD*%
%TO.C,R6*%
X34500000Y6912500D03*
X34500000Y5087500D03*
%TD*%
D13*
%TO.C,R7*%
X20500000Y9587500D03*
X20500000Y11412500D03*
%TD*%
%TO.C,R8*%
X18290000Y9577500D03*
X18290000Y11402500D03*
%TD*%
D12*
%TO.C,R9*%
X32000000Y6912500D03*
X32000000Y5087500D03*
%TD*%
%TO.C,R10*%
X37000000Y6912500D03*
X37000000Y5087500D03*
%TD*%
D14*
%TO.C,R11*%
X12162500Y18900000D03*
X10337500Y18900000D03*
%TD*%
D13*
%TO.C,R14*%
X44100000Y47587500D03*
X44100000Y49412500D03*
%TD*%
D15*
%TO.C,C4*%
X20475000Y49300000D03*
X18925000Y49300000D03*
%TD*%
%TO.C,C14*%
X58100000Y8900000D03*
X56550000Y8900000D03*
%TD*%
D14*
%TO.C,R13*%
X58162500Y12810000D03*
X56337500Y12810000D03*
%TD*%
D16*
%TO.C,C5*%
X18950000Y44800000D03*
X20850000Y44800000D03*
%TD*%
D17*
%TO.C,C12*%
X26250000Y44175000D03*
X26250000Y42625000D03*
%TD*%
%TO.C,C13*%
X24650000Y44175000D03*
X24650000Y42625000D03*
%TD*%
D11*
%TO.C,C6*%
X4925000Y33950000D03*
X6475000Y33950000D03*
%TD*%
%TO.C,C7*%
X4925000Y37150000D03*
X6475000Y37150000D03*
%TD*%
D18*
%TO.C,R12*%
X56337500Y10750000D03*
X58162500Y10750000D03*
%TD*%
D12*
%TO.C,R16*%
X24000000Y48612500D03*
X24000000Y46787500D03*
%TD*%
D19*
%TO.C,D3*%
X26700000Y50562500D03*
X26700000Y52437500D03*
%TD*%
D12*
%TO.C,R15*%
X26700000Y48612500D03*
X26700000Y46787500D03*
%TD*%
D20*
%TO.C,U3*%
X16150000Y49300000D03*
X16150000Y47000000D03*
X16150000Y44700000D03*
D21*
X9850000Y47000000D03*
%TD*%
D19*
%TO.C,D4*%
X24000000Y50562500D03*
X24000000Y52437500D03*
%TD*%
M02*
