%TF.GenerationSoftware,KiCad,Pcbnew,9.0.4*%
%TF.CreationDate,2025-09-01T15:43:59+02:00*%
%TF.ProjectId,Cours_Univ_2025_v1,436f7572-735f-4556-9e69-765f32303235,rev?*%
%TF.SameCoordinates,PX2faf080PY632ea00*%
%TF.FileFunction,Copper,L2,Bot*%
%TF.FilePolarity,Positive*%
%FSLAX46Y46*%
G04 Gerber Fmt 4.6, Leading zero omitted, Abs format (unit mm)*
G04 Created by KiCad (PCBNEW 9.0.4) date 2025-09-01 15:43:59*
%MOMM*%
%LPD*%
G01*
G04 APERTURE LIST*
G04 Aperture macros list*
%AMRoundRect*
0 Rectangle with rounded corners*
0 $1 Rounding radius*
0 $2 $3 $4 $5 $6 $7 $8 $9 X,Y pos of 4 corners*
0 Add a 4 corners polygon primitive as box body*
4,1,4,$2,$3,$4,$5,$6,$7,$8,$9,$2,$3,0*
0 Add four circle primitives for the rounded corners*
1,1,$1+$1,$2,$3*
1,1,$1+$1,$4,$5*
1,1,$1+$1,$6,$7*
1,1,$1+$1,$8,$9*
0 Add four rect primitives between the rounded corners*
20,1,$1+$1,$2,$3,$4,$5,0*
20,1,$1+$1,$4,$5,$6,$7,0*
20,1,$1+$1,$6,$7,$8,$9,0*
20,1,$1+$1,$8,$9,$2,$3,0*%
%AMFreePoly0*
4,1,23,0.550000,-0.750000,0.000000,-0.750000,0.000000,-0.745722,-0.065263,-0.745722,-0.191342,-0.711940,-0.304381,-0.646677,-0.396677,-0.554381,-0.461940,-0.441342,-0.495722,-0.315263,-0.495722,-0.250000,-0.500000,-0.250000,-0.500000,0.250000,-0.495722,0.250000,-0.495722,0.315263,-0.461940,0.441342,-0.396677,0.554381,-0.304381,0.646677,-0.191342,0.711940,-0.065263,0.745722,0.000000,0.745722,
0.000000,0.750000,0.550000,0.750000,0.550000,-0.750000,0.550000,-0.750000,$1*%
%AMFreePoly1*
4,1,23,0.000000,0.745722,0.065263,0.745722,0.191342,0.711940,0.304381,0.646677,0.396677,0.554381,0.461940,0.441342,0.495722,0.315263,0.495722,0.250000,0.500000,0.250000,0.500000,-0.250000,0.495722,-0.250000,0.495722,-0.315263,0.461940,-0.441342,0.396677,-0.554381,0.304381,-0.646677,0.191342,-0.711940,0.065263,-0.745722,0.000000,-0.745722,0.000000,-0.750000,-0.550000,-0.750000,
-0.550000,0.750000,0.000000,0.750000,0.000000,0.745722,0.000000,0.745722,$1*%
G04 Aperture macros list end*
%TA.AperFunction,SMDPad,CuDef*%
%ADD10R,1.000000X0.600000*%
%TD*%
%TA.AperFunction,ComponentPad*%
%ADD11RoundRect,0.400000X-0.700000X0.400000X-0.700000X-0.400000X0.700000X-0.400000X0.700000X0.400000X0*%
%TD*%
%TA.AperFunction,ComponentPad*%
%ADD12C,1.700000*%
%TD*%
%TA.AperFunction,ComponentPad*%
%ADD13R,1.700000X1.700000*%
%TD*%
%TA.AperFunction,SMDPad,CuDef*%
%ADD14FreePoly0,90.000000*%
%TD*%
%TA.AperFunction,SMDPad,CuDef*%
%ADD15R,1.500000X1.000000*%
%TD*%
%TA.AperFunction,SMDPad,CuDef*%
%ADD16FreePoly1,90.000000*%
%TD*%
%TA.AperFunction,ComponentPad*%
%ADD17R,1.800000X1.800000*%
%TD*%
%TA.AperFunction,ComponentPad*%
%ADD18C,1.800000*%
%TD*%
%TA.AperFunction,ComponentPad*%
%ADD19C,1.600000*%
%TD*%
%TA.AperFunction,SMDPad,CuDef*%
%ADD20RoundRect,0.225000X-0.225000X-0.250000X0.225000X-0.250000X0.225000X0.250000X-0.225000X0.250000X0*%
%TD*%
%TA.AperFunction,SMDPad,CuDef*%
%ADD21RoundRect,0.250000X-0.450000X0.262500X-0.450000X-0.262500X0.450000X-0.262500X0.450000X0.262500X0*%
%TD*%
%TA.AperFunction,SMDPad,CuDef*%
%ADD22RoundRect,0.250000X0.450000X-0.262500X0.450000X0.262500X-0.450000X0.262500X-0.450000X-0.262500X0*%
%TD*%
%TA.AperFunction,SMDPad,CuDef*%
%ADD23RoundRect,0.250000X0.262500X0.450000X-0.262500X0.450000X-0.262500X-0.450000X0.262500X-0.450000X0*%
%TD*%
%TA.AperFunction,SMDPad,CuDef*%
%ADD24RoundRect,0.225000X0.225000X0.250000X-0.225000X0.250000X-0.225000X-0.250000X0.225000X-0.250000X0*%
%TD*%
%TA.AperFunction,SMDPad,CuDef*%
%ADD25RoundRect,0.250000X-0.250000X-0.475000X0.250000X-0.475000X0.250000X0.475000X-0.250000X0.475000X0*%
%TD*%
%TA.AperFunction,SMDPad,CuDef*%
%ADD26RoundRect,0.225000X-0.250000X0.225000X-0.250000X-0.225000X0.250000X-0.225000X0.250000X0.225000X0*%
%TD*%
%TA.AperFunction,SMDPad,CuDef*%
%ADD27RoundRect,0.250000X-0.262500X-0.450000X0.262500X-0.450000X0.262500X0.450000X-0.262500X0.450000X0*%
%TD*%
%TA.AperFunction,SMDPad,CuDef*%
%ADD28RoundRect,0.243750X0.456250X-0.243750X0.456250X0.243750X-0.456250X0.243750X-0.456250X-0.243750X0*%
%TD*%
%TA.AperFunction,SMDPad,CuDef*%
%ADD29RoundRect,0.375000X0.625000X0.375000X-0.625000X0.375000X-0.625000X-0.375000X0.625000X-0.375000X0*%
%TD*%
%TA.AperFunction,SMDPad,CuDef*%
%ADD30RoundRect,0.500000X0.500000X1.400000X-0.500000X1.400000X-0.500000X-1.400000X0.500000X-1.400000X0*%
%TD*%
%TA.AperFunction,ComponentPad*%
%ADD31R,2.000000X2.000000*%
%TD*%
%TA.AperFunction,ComponentPad*%
%ADD32C,2.000000*%
%TD*%
%TA.AperFunction,ComponentPad*%
%ADD33C,4.600000*%
%TD*%
%TA.AperFunction,ViaPad*%
%ADD34C,0.600000*%
%TD*%
%TA.AperFunction,Conductor*%
%ADD35C,0.250000*%
%TD*%
G04 APERTURE END LIST*
D10*
%TO.P,D2,1,K*%
%TO.N,AN*%
X10250000Y24150000D03*
%TO.P,D2,2,A*%
%TO.N,GND*%
X12350000Y24150000D03*
%TD*%
D11*
%TO.P,X1,5,GND*%
%TO.N,GND*%
X5200000Y50100000D03*
X1500000Y50100000D03*
X5200000Y39900000D03*
X1500000Y39900000D03*
%TD*%
D12*
%TO.P,J2,12,Pin_12*%
%TO.N,unconnected-(J2-Pin_12-Pad12)*%
X37640000Y30200000D03*
%TO.P,J2,11,Pin_11*%
%TO.N,unconnected-(J2-Pin_11-Pad11)*%
X35100000Y30200000D03*
%TO.P,J2,10,Pin_10*%
%TO.N,PA12*%
X37640000Y32740000D03*
%TO.P,J2,9,Pin_9*%
%TO.N,PB5*%
X35100000Y32740000D03*
%TO.P,J2,8,Pin_8*%
%TO.N,PA11*%
X37640000Y35280000D03*
%TO.P,J2,7,Pin_7*%
%TO.N,PB8*%
X35100000Y35280000D03*
%TO.P,J2,6,Pin_6*%
%TO.N,PB1*%
X37640000Y37820000D03*
%TO.P,J2,5,Pin_5*%
%TO.N,PB9*%
X35100000Y37820000D03*
%TO.P,J2,4,Pin_4*%
%TO.N,TX2*%
X37640000Y40360000D03*
%TO.P,J2,3,Pin_3*%
%TO.N,PC14*%
X35100000Y40360000D03*
%TO.P,J2,2,Pin_2*%
%TO.N,RX2*%
X37640000Y42900000D03*
D13*
%TO.P,J2,1,Pin_1*%
%TO.N,PC15*%
X35100000Y42900000D03*
%TD*%
D14*
%TO.P,JP1,1,A*%
%TO.N,+3V3*%
X49700000Y7800000D03*
D15*
%TO.P,JP1,2,C*%
%TO.N,Net-(J4-Pin_3)*%
X49700000Y9100000D03*
D16*
%TO.P,JP1,3,B*%
%TO.N,+5V*%
X49700000Y10400000D03*
%TD*%
%TO.P,JP2,3,B*%
%TO.N,+5V*%
X49700000Y42800000D03*
D15*
%TO.P,JP2,2,C*%
%TO.N,Net-(J3-Pin_3)*%
X49700000Y41500000D03*
D14*
%TO.P,JP2,1,A*%
%TO.N,+3V3*%
X49700000Y40200000D03*
%TD*%
%TO.P,JP3,1,A*%
%TO.N,+3V3*%
X49700000Y24000000D03*
D15*
%TO.P,JP3,2,C*%
%TO.N,Net-(J5-Pin_3)*%
X49700000Y25300000D03*
D16*
%TO.P,JP3,3,B*%
%TO.N,+5V*%
X49700000Y26600000D03*
%TD*%
D17*
%TO.P,CON1,1,AN*%
%TO.N,AN*%
X4000000Y24000000D03*
D18*
%TO.P,CON1,2,RST*%
%TO.N,RST*%
X4000000Y21460000D03*
%TO.P,CON1,3,CS*%
%TO.N,CS*%
X4000000Y18920000D03*
%TO.P,CON1,4,SCK*%
%TO.N,SCK*%
X4000000Y16380000D03*
%TO.P,CON1,5,MISO*%
%TO.N,MISO*%
X4000000Y13840000D03*
%TO.P,CON1,6,MOSI*%
%TO.N,MOSI*%
X4000000Y11300000D03*
%TO.P,CON1,7,3V3*%
%TO.N,+3V3*%
X4000000Y8760000D03*
%TO.P,CON1,8,GND1*%
%TO.N,GND*%
X4000000Y6220000D03*
%TO.P,CON1,9,GND2*%
X26860000Y6220000D03*
%TO.P,CON1,10,5V*%
%TO.N,+5V*%
X26860000Y8760000D03*
%TO.P,CON1,11,SDA*%
%TO.N,SDA*%
X26860000Y11300000D03*
%TO.P,CON1,12,SCL*%
%TO.N,SCL*%
X26860000Y13840000D03*
%TO.P,CON1,13,TX*%
%TO.N,TX1*%
X26860000Y16380000D03*
%TO.P,CON1,14,RX*%
%TO.N,RX1*%
X26860000Y18920000D03*
%TO.P,CON1,15,INT*%
%TO.N,INT*%
X26860000Y21460000D03*
D17*
%TO.P,CON1,16,PWM*%
%TO.N,PWM*%
X26860000Y24000000D03*
%TD*%
%TO.P,D3/PB1,1,K*%
%TO.N,Net-(D3/PB1-K)*%
X41500000Y50200000D03*
D18*
%TO.P,D3/PB1,2,A*%
%TO.N,LEDG*%
X38960000Y50200000D03*
%TD*%
D19*
%TO.P,BOOT0,1*%
%TO.N,+3V3*%
X61350000Y26800000D03*
%TO.P,BOOT0,2*%
%TO.N,BOOT*%
X61350000Y29300000D03*
%TO.P,BOOT0,3*%
%TO.N,GND*%
X61350000Y31800000D03*
%TO.P,BOOT0,4*%
%TO.N,unconnected-(BOOT0-Pad4)*%
X58050000Y26800000D03*
%TO.P,BOOT0,5*%
%TO.N,unconnected-(BOOT0-Pad5)*%
X58050000Y29300000D03*
%TO.P,BOOT0,6*%
%TO.N,unconnected-(BOOT0-Pad6)*%
X58050000Y31800000D03*
%TD*%
D20*
%TO.P,C8,1*%
%TO.N,GND*%
X4925000Y35550000D03*
%TO.P,C8,2*%
%TO.N,+5V*%
X6475000Y35550000D03*
%TD*%
D21*
%TO.P,R4,1*%
%TO.N,SWDIO*%
X39500000Y6912500D03*
%TO.P,R4,2*%
%TO.N,Net-(J1-Pin_4)*%
X39500000Y5087500D03*
%TD*%
%TO.P,R5,1*%
%TO.N,RESET*%
X42000000Y6912500D03*
%TO.P,R5,2*%
%TO.N,Net-(J1-Pin_5)*%
X42000000Y5087500D03*
%TD*%
%TO.P,R6,1*%
%TO.N,SWCLK*%
X34500000Y6912500D03*
%TO.P,R6,2*%
%TO.N,Net-(J1-Pin_2)*%
X34500000Y5087500D03*
%TD*%
D22*
%TO.P,R7,1*%
%TO.N,+3V3*%
X20500000Y9587500D03*
%TO.P,R7,2*%
%TO.N,SDA*%
X20500000Y11412500D03*
%TD*%
%TO.P,R8,1*%
%TO.N,+3V3*%
X18290000Y9577500D03*
%TO.P,R8,2*%
%TO.N,SCL*%
X18290000Y11402500D03*
%TD*%
D21*
%TO.P,R9,1*%
%TO.N,BOOT*%
X32000000Y6912500D03*
%TO.P,R9,2*%
%TO.N,SWCLK*%
X32000000Y5087500D03*
%TD*%
%TO.P,R10,1*%
%TO.N,+3V3*%
X37000000Y6912500D03*
%TO.P,R10,2*%
%TO.N,SWDIO*%
X37000000Y5087500D03*
%TD*%
D23*
%TO.P,R11,1*%
%TO.N,+3V3*%
X12162500Y18900000D03*
%TO.P,R11,2*%
%TO.N,CS*%
X10337500Y18900000D03*
%TD*%
D22*
%TO.P,R14,1*%
%TO.N,GND*%
X44100000Y47587500D03*
%TO.P,R14,2*%
%TO.N,Net-(D3/PB1-K)*%
X44100000Y49412500D03*
%TD*%
D24*
%TO.P,C4,1*%
%TO.N,GND*%
X20475000Y49300000D03*
%TO.P,C4,2*%
%TO.N,+5V*%
X18925000Y49300000D03*
%TD*%
%TO.P,C14,1*%
%TO.N,GND*%
X58100000Y8900000D03*
%TO.P,C14,2*%
%TO.N,RESET*%
X56550000Y8900000D03*
%TD*%
D23*
%TO.P,R13,1*%
%TO.N,GND*%
X58162500Y12810000D03*
%TO.P,R13,2*%
%TO.N,BP*%
X56337500Y12810000D03*
%TD*%
D25*
%TO.P,C5,1*%
%TO.N,+3V3*%
X18950000Y44800000D03*
%TO.P,C5,2*%
%TO.N,GND*%
X20850000Y44800000D03*
%TD*%
D26*
%TO.P,C12,1*%
%TO.N,GND*%
X26250000Y44175000D03*
%TO.P,C12,2*%
%TO.N,+3V3*%
X26250000Y42625000D03*
%TD*%
%TO.P,C13,1*%
%TO.N,GND*%
X24650000Y44175000D03*
%TO.P,C13,2*%
%TO.N,+3V3*%
X24650000Y42625000D03*
%TD*%
D20*
%TO.P,C6,1*%
%TO.N,GND*%
X4925000Y33950000D03*
%TO.P,C6,2*%
%TO.N,VCCIO*%
X6475000Y33950000D03*
%TD*%
%TO.P,C7,1*%
%TO.N,GND*%
X4925000Y37150000D03*
%TO.P,C7,2*%
%TO.N,+5V*%
X6475000Y37150000D03*
%TD*%
D27*
%TO.P,R12,1*%
%TO.N,RESET*%
X56337500Y10750000D03*
%TO.P,R12,2*%
%TO.N,+3V3*%
X58162500Y10750000D03*
%TD*%
D21*
%TO.P,R16,1*%
%TO.N,Net-(D4-K)*%
X24000000Y48612500D03*
%TO.P,R16,2*%
%TO.N,RXLED*%
X24000000Y46787500D03*
%TD*%
D28*
%TO.P,D3,1,K*%
%TO.N,Net-(D3-K)*%
X26700000Y50562500D03*
%TO.P,D3,2,A*%
%TO.N,+5V*%
X26700000Y52437500D03*
%TD*%
D21*
%TO.P,R15,1*%
%TO.N,Net-(D3-K)*%
X26700000Y48612500D03*
%TO.P,R15,2*%
%TO.N,TXLED*%
X26700000Y46787500D03*
%TD*%
D29*
%TO.P,U3,1,VIN*%
%TO.N,+5V*%
X16150000Y49300000D03*
%TO.P,U3,2,GND*%
%TO.N,GND*%
X16150000Y47000000D03*
%TO.P,U3,3,VOUT*%
%TO.N,+3V3*%
X16150000Y44700000D03*
D30*
%TO.P,U3,4,GND*%
%TO.N,GND*%
X9850000Y47000000D03*
%TD*%
D28*
%TO.P,D4,1,K*%
%TO.N,Net-(D4-K)*%
X24000000Y50562500D03*
%TO.P,D4,2,A*%
%TO.N,+5V*%
X24000000Y52437500D03*
%TD*%
D31*
%TO.P,J1,1,Pin_1*%
%TO.N,+3V3*%
X31750000Y1930000D03*
D32*
%TO.P,J1,2,Pin_2*%
%TO.N,Net-(J1-Pin_2)*%
X34290000Y1930000D03*
%TO.P,J1,3,Pin_3*%
%TO.N,GND*%
X36830000Y1930000D03*
%TO.P,J1,4,Pin_4*%
%TO.N,Net-(J1-Pin_4)*%
X39370000Y1930000D03*
%TO.P,J1,5,Pin_5*%
%TO.N,Net-(J1-Pin_5)*%
X41910000Y1930000D03*
%TD*%
D33*
%TO.P,RV1/PB0,*%
%TO.N,*%
X56500000Y48800000D03*
X56500000Y38800000D03*
D18*
%TO.P,RV1/PB0,1,1*%
%TO.N,GND*%
X59800000Y41300000D03*
%TO.P,RV1/PB0,2,2*%
%TO.N,AN_POT*%
X59800000Y43800000D03*
%TO.P,RV1/PB0,3,3*%
%TO.N,+3V3*%
X59800000Y46300000D03*
%TD*%
D34*
%TO.N,GND*%
X7900000Y34650000D03*
X32800000Y36650000D03*
X30900000Y36750000D03*
X18800000Y40900000D03*
%TO.N,PB3*%
X44100000Y45500000D03*
%TO.N,PA15*%
X44150000Y43500000D03*
%TO.N,PB3*%
X37075000Y28775000D03*
%TO.N,PA15*%
X37725000Y28175000D03*
%TO.N,GND*%
X48100000Y19050000D03*
%TO.N,+5V*%
X48250000Y10200000D03*
%TO.N,GND*%
X54850000Y14900000D03*
%TO.N,BOOT*%
X43050000Y8700000D03*
%TO.N,+3V3*%
X48250000Y8050000D03*
%TO.N,Net-(J4-Pin_3)*%
X48150000Y9100000D03*
%TO.N,Net-(J5-Pin_3)*%
X48100000Y25300000D03*
%TO.N,Net-(J3-Pin_3)*%
X48100000Y41500000D03*
%TO.N,TX2*%
X17750000Y39500000D03*
X9250000Y33000000D03*
%TO.N,RX2*%
X7800000Y35800000D03*
X20600000Y39400000D03*
%TO.N,GND*%
X11500000Y38550000D03*
%TO.N,+5V*%
X11100000Y35900000D03*
%TO.N,VCCIO*%
X8925000Y33900000D03*
%TO.N,RX1*%
X24300000Y31650000D03*
%TO.N,TX1*%
X22150000Y31650000D03*
%TO.N,GND*%
X25300000Y47700000D03*
X22900000Y37350000D03*
X19500000Y33300000D03*
X20300000Y30800000D03*
X16400000Y37700000D03*
X29300000Y40800000D03*
X32600000Y41600000D03*
X27600000Y32400000D03*
X32800000Y39400000D03*
X8100000Y22900000D03*
X6200000Y20200000D03*
X5600000Y14300000D03*
X44100000Y9050000D03*
X59000000Y16300000D03*
X30800000Y5500000D03*
X62000000Y24900000D03*
X9900000Y36000000D03*
X8200000Y43200000D03*
X3300000Y39100000D03*
X25900000Y35100000D03*
X23300000Y31300000D03*
X12850000Y34650000D03*
%TO.N,+5V*%
X7300000Y46300000D03*
%TO.N,+3V3*%
X59515000Y11490000D03*
X36000000Y8050000D03*
X9175220Y39008664D03*
X23700000Y42625000D03*
%TO.N,RESET*%
X43440000Y6890000D03*
X31550000Y43625019D03*
X30750000Y4190000D03*
X56450000Y7900000D03*
%TO.N,LEDG*%
X25100000Y40200000D03*
%TO.N,SWDIO*%
X31200030Y32040000D03*
%TO.N,SWCLK*%
X30750020Y34490000D03*
%TO.N,SDA*%
X28900000Y39300000D03*
%TO.N,SCL*%
X28900000Y38500000D03*
%TO.N,BP*%
X23050000Y28943484D03*
X21300000Y31575500D03*
X56400000Y19600000D03*
X56350000Y14250000D03*
%TO.N,INT*%
X25600000Y27919990D03*
X21750000Y34950000D03*
%TO.N,PWM*%
X28600000Y36850000D03*
%TO.N,TXLED*%
X26700000Y45700000D03*
%TO.N,RXLED*%
X15131902Y40600000D03*
X10000000Y38950000D03*
X24000000Y45600000D03*
%TO.N,BOOT*%
X33240000Y8700000D03*
%TD*%
D35*
%TO.N,LEDG*%
X35800000Y45300000D02*
X38960000Y48460000D01*
X38960000Y48460000D02*
X38960000Y50200000D01*
X25800000Y40200000D02*
X30900000Y45300000D01*
X25100000Y40200000D02*
X25800000Y40200000D01*
X30900000Y45300000D02*
X35800000Y45300000D01*
%TO.N,+3V3*%
X58900000Y46300000D02*
X59800000Y46300000D01*
X52800000Y40200000D02*
X58900000Y46300000D01*
X49700000Y40200000D02*
X52800000Y40200000D01*
%TO.N,PB3*%
X43200000Y44600000D02*
X44100000Y45500000D01*
X43200000Y36150000D02*
X43200000Y44600000D01*
X38963604Y28850000D02*
X39206802Y29093198D01*
X39206802Y29093198D02*
X43200000Y33086396D01*
X37700000Y28850000D02*
X38963604Y28850000D01*
X37150000Y28850000D02*
X37700000Y28850000D01*
X43200000Y33086396D02*
X43200000Y36150000D01*
X37075000Y28775000D02*
X37150000Y28850000D01*
%TO.N,PA15*%
X43650000Y43000000D02*
X44150000Y43500000D01*
X39100000Y28350000D02*
X43650000Y32900000D01*
X43650000Y32900000D02*
X43650000Y43000000D01*
X37900000Y28350000D02*
X39100000Y28350000D01*
X37725000Y28175000D02*
X37900000Y28350000D01*
%TO.N,+5V*%
X47350000Y41900000D02*
X48250000Y42800000D01*
X49700000Y36500000D02*
X47350000Y38850000D01*
X48250000Y42800000D02*
X49700000Y42800000D01*
X49700000Y26600000D02*
X49700000Y36500000D01*
X47350000Y38850000D02*
X47350000Y41900000D01*
X47200000Y25600000D02*
X48200000Y26600000D01*
X47200000Y11250000D02*
X47200000Y25600000D01*
X48250000Y10200000D02*
X47200000Y11250000D01*
X48200000Y26600000D02*
X49700000Y26600000D01*
X49500000Y10200000D02*
X49700000Y10400000D01*
X48250000Y10200000D02*
X49500000Y10200000D01*
%TO.N,RX2*%
X16300000Y40150000D02*
X18000000Y40150000D01*
X18000000Y40150000D02*
X18750000Y39400000D01*
X18750000Y39400000D02*
X20600000Y39400000D01*
X11350000Y35200000D02*
X16300000Y40150000D01*
X8400000Y35200000D02*
X11350000Y35200000D01*
X7800000Y35800000D02*
X8400000Y35200000D01*
X37640000Y43196396D02*
X37640000Y42900000D01*
X25363604Y39100000D02*
X31113604Y44850000D01*
X35986396Y44850000D02*
X37640000Y43196396D01*
X20900000Y39100000D02*
X25363604Y39100000D01*
X20600000Y39400000D02*
X20900000Y39100000D01*
X31113604Y44850000D02*
X35986396Y44850000D01*
%TO.N,TX2*%
X25550000Y38650000D02*
X18600000Y38650000D01*
X35800000Y44400000D02*
X31300000Y44400000D01*
X18600000Y38650000D02*
X17750000Y39500000D01*
X36350000Y43850000D02*
X35800000Y44400000D01*
X36350000Y41650000D02*
X36350000Y43850000D01*
X31300000Y44400000D02*
X25550000Y38650000D01*
X37640000Y40360000D02*
X36350000Y41650000D01*
%TO.N,+3V3*%
X50600000Y7800000D02*
X49700000Y7800000D01*
X51300000Y8500000D02*
X50600000Y7800000D01*
X51300000Y12050000D02*
X51300000Y8500000D01*
X49700000Y13650000D02*
X51300000Y12050000D01*
X49700000Y24000000D02*
X49700000Y13650000D01*
X58550000Y24000000D02*
X49700000Y24000000D01*
X61350000Y26800000D02*
X58550000Y24000000D01*
%TO.N,BOOT*%
X43050000Y8163884D02*
X43050000Y8700000D01*
X44813884Y6400000D02*
X43050000Y8163884D01*
X53656802Y19006802D02*
X53656802Y8043198D01*
X53656802Y8043198D02*
X52013604Y6400000D01*
X56250000Y21600000D02*
X53656802Y19006802D01*
X60200000Y21600000D02*
X56250000Y21600000D01*
X62750000Y24150000D02*
X60200000Y21600000D01*
X52013604Y6400000D02*
X44813884Y6400000D01*
X62750000Y27900000D02*
X62750000Y24150000D01*
X61350000Y29300000D02*
X62750000Y27900000D01*
%TO.N,+3V3*%
X36000000Y7550000D02*
X36637500Y6912500D01*
X36637500Y6912500D02*
X37000000Y6912500D01*
X36000000Y8050000D02*
X36000000Y7550000D01*
X48500000Y7800000D02*
X48250000Y8050000D01*
X49700000Y7800000D02*
X48500000Y7800000D01*
%TO.N,RESET*%
X52200000Y5950000D02*
X44380000Y5950000D01*
X44380000Y5950000D02*
X43440000Y6890000D01*
X56450000Y7900000D02*
X54150000Y7900000D01*
X54150000Y7900000D02*
X52200000Y5950000D01*
%TO.N,Net-(J4-Pin_3)*%
X48150000Y9100000D02*
X49700000Y9100000D01*
%TO.N,Net-(J5-Pin_3)*%
X48100000Y25300000D02*
X49700000Y25300000D01*
%TO.N,Net-(J3-Pin_3)*%
X48100000Y41500000D02*
X49700000Y41500000D01*
%TO.N,+5V*%
X49700000Y48250000D02*
X49700000Y42800000D01*
X45512500Y52437500D02*
X49700000Y48250000D01*
X26700000Y52437500D02*
X45512500Y52437500D01*
%TO.N,+3V3*%
X26225000Y42625000D02*
X26250000Y42650000D01*
X24650000Y42625000D02*
X26225000Y42625000D01*
X23700000Y42625000D02*
X24650000Y42625000D01*
%TO.N,TX2*%
X17550000Y39700000D02*
X17750000Y39500000D01*
X9786396Y33000000D02*
X11918198Y35131802D01*
X9250000Y33000000D02*
X9786396Y33000000D01*
X17200000Y39700000D02*
X17550000Y39700000D01*
X16486396Y39700000D02*
X17200000Y39700000D01*
X11918198Y35131802D02*
X16486396Y39700000D01*
%TO.N,+5V*%
X9850000Y37150000D02*
X11100000Y35900000D01*
X6475000Y37150000D02*
X9850000Y37150000D01*
X6475000Y38225000D02*
X6475000Y37150000D01*
X7300000Y39050000D02*
X6475000Y38225000D01*
X7300000Y46300000D02*
X7300000Y39050000D01*
%TO.N,VCCIO*%
X8875000Y33950000D02*
X8925000Y33900000D01*
X6475000Y33950000D02*
X8875000Y33950000D01*
%TO.N,+5V*%
X6475000Y37150000D02*
X6475000Y35550000D01*
%TO.N,RXLED*%
X14481902Y39950000D02*
X15131902Y40600000D01*
X12750000Y39550000D02*
X13150000Y39950000D01*
X13150000Y39950000D02*
X14481902Y39950000D01*
X10600000Y39550000D02*
X12750000Y39550000D01*
X10000000Y38950000D02*
X10600000Y39550000D01*
%TO.N,TX1*%
X24100000Y17360000D02*
X25080000Y16380000D01*
X24100000Y29114654D02*
X24100000Y17360000D01*
X22150000Y31064654D02*
X24100000Y29114654D01*
X25080000Y16380000D02*
X26860000Y16380000D01*
X22150000Y31650000D02*
X22150000Y31064654D01*
%TO.N,RX1*%
X25480000Y18920000D02*
X26860000Y18920000D01*
X24550000Y19850000D02*
X25480000Y18920000D01*
X24550000Y31400000D02*
X24550000Y19850000D01*
X24300000Y31650000D02*
X24550000Y31400000D01*
%TO.N,BP*%
X21300000Y31278258D02*
X21300000Y31575500D01*
X23050000Y29528258D02*
X21300000Y31278258D01*
X23050000Y28943484D02*
X23050000Y29528258D01*
%TO.N,INT*%
X25000000Y29200000D02*
X25000000Y31938606D01*
X21988606Y34950000D02*
X21750000Y34950000D01*
X25600000Y28600000D02*
X25000000Y29200000D01*
X25600000Y27919990D02*
X25600000Y28600000D01*
X25000000Y31938606D02*
X21988606Y34950000D01*
%TO.N,+5V*%
X26700000Y52437500D02*
X24000000Y52437500D01*
X16150000Y49300000D02*
X18925000Y49300000D01*
X19887500Y52487500D02*
X18925000Y51525000D01*
X7300000Y48200000D02*
X8400000Y49300000D01*
X18925000Y51525000D02*
X18925000Y49300000D01*
X23950000Y52487500D02*
X19887500Y52487500D01*
X7300000Y46300000D02*
X7300000Y48200000D01*
X8400000Y49300000D02*
X16150000Y49300000D01*
%TO.N,+3V3*%
X18290000Y9577500D02*
X15272500Y9577500D01*
X4000000Y8760000D02*
X8235000Y8760000D01*
X23700000Y42625000D02*
X19900000Y42625000D01*
X58162500Y10750000D02*
X58775000Y10750000D01*
X23450000Y1930000D02*
X31750000Y1930000D01*
X18850000Y44700000D02*
X18950000Y44800000D01*
X20500000Y4880000D02*
X23450000Y1930000D01*
X16150000Y44700000D02*
X18850000Y44700000D01*
X18950000Y43575000D02*
X18950000Y44800000D01*
X58775000Y10750000D02*
X59515000Y11490000D01*
X20500000Y9587500D02*
X18300000Y9587500D01*
X15272500Y9577500D02*
X12162500Y12687500D01*
X12162500Y12687500D02*
X12162500Y18900000D01*
X19900000Y42625000D02*
X18950000Y43575000D01*
X20500000Y9587500D02*
X20500000Y4880000D01*
X18300000Y9587500D02*
X18290000Y9577500D01*
X8235000Y8760000D02*
X12162500Y12687500D01*
%TO.N,RESET*%
X31550000Y43625019D02*
X31230158Y43305177D01*
X42000000Y6912500D02*
X43417500Y6912500D01*
X43417500Y6912500D02*
X43440000Y6890000D01*
X56550000Y8000000D02*
X56450000Y7900000D01*
X56337500Y10750000D02*
X56337500Y9112500D01*
X30125020Y4814980D02*
X30750000Y4190000D01*
X56337500Y9112500D02*
X56550000Y8900000D01*
X31230158Y39941530D02*
X30125020Y38836392D01*
X30125020Y38836392D02*
X30125020Y4814980D01*
X31230158Y43305177D02*
X31230158Y39941530D01*
X56550000Y8900000D02*
X56550000Y8000000D01*
%TO.N,Net-(D3/PB1-K)*%
X44100000Y49412500D02*
X42287500Y49412500D01*
X42287500Y49412500D02*
X41500000Y50200000D01*
%TO.N,AN*%
X4150000Y24150000D02*
X4000000Y24000000D01*
X10300000Y24150000D02*
X4150000Y24150000D01*
%TO.N,Net-(J1-Pin_5)*%
X41910000Y1930000D02*
X41910000Y4997500D01*
X41910000Y4997500D02*
X42000000Y5087500D01*
%TO.N,Net-(J1-Pin_2)*%
X34290000Y4877500D02*
X34500000Y5087500D01*
X34290000Y1930000D02*
X34290000Y4877500D01*
%TO.N,Net-(J1-Pin_4)*%
X39500000Y5087500D02*
X39500000Y2060000D01*
X39500000Y2060000D02*
X39370000Y1930000D01*
%TO.N,SWDIO*%
X31025040Y31865010D02*
X31025040Y17241430D01*
X31200030Y32040000D02*
X31025040Y31865010D01*
X39500000Y8766470D02*
X39500000Y6912500D01*
X37675000Y5087500D02*
X39500000Y6912500D01*
X37000000Y5087500D02*
X37675000Y5087500D01*
X31025040Y17241430D02*
X39500000Y8766470D01*
%TO.N,SWCLK*%
X30575030Y34315010D02*
X30575030Y17055030D01*
X34500000Y13130060D02*
X34500000Y6912500D01*
X30575030Y17055030D02*
X34500000Y13130060D01*
X32675000Y5087500D02*
X34500000Y6912500D01*
X30750020Y34490000D02*
X30575030Y34315010D01*
X32000000Y5087500D02*
X32675000Y5087500D01*
%TO.N,SDA*%
X29400010Y13840010D02*
X29400010Y13850010D01*
X26860000Y11300000D02*
X29400010Y13840010D01*
X29675010Y14125010D02*
X29675010Y38649992D01*
X26747500Y11412500D02*
X26860000Y11300000D01*
X29675010Y38649992D02*
X29025002Y39300000D01*
X29025002Y39300000D02*
X28900000Y39300000D01*
X29400010Y13850010D02*
X29675010Y14125010D01*
X20500000Y11412500D02*
X26747500Y11412500D01*
%TO.N,SCL*%
X29225000Y38175000D02*
X28900000Y38500000D01*
X29225000Y15325000D02*
X27740000Y13840000D01*
X18290000Y12240000D02*
X18290000Y11402500D01*
X29225000Y38175000D02*
X29225000Y15325000D01*
X27740000Y13840000D02*
X26860000Y13840000D01*
X19890000Y13840000D02*
X18290000Y12240000D01*
X26860000Y13840000D02*
X19890000Y13840000D01*
%TO.N,CS*%
X10350000Y18900000D02*
X4020000Y18900000D01*
%TO.N,BP*%
X56350000Y14250000D02*
X56350000Y12822500D01*
X56350000Y19550000D02*
X56400000Y19600000D01*
X56350000Y14250000D02*
X56350000Y19550000D01*
X56350000Y12822500D02*
X56337500Y12810000D01*
%TO.N,PWM*%
X28774990Y25914990D02*
X26860000Y24000000D01*
X28600000Y36850000D02*
X28774990Y36675010D01*
X28774990Y36675010D02*
X28774990Y25914990D01*
%TO.N,Net-(D3-K)*%
X26700000Y50562500D02*
X26700000Y48612500D01*
%TO.N,Net-(D4-K)*%
X24000000Y50562500D02*
X24000000Y48612500D01*
%TO.N,TXLED*%
X26700000Y46787500D02*
X26700000Y45700000D01*
%TO.N,RXLED*%
X24000000Y46787500D02*
X24000000Y45600000D01*
%TO.N,+3V3*%
X16150000Y43750000D02*
X16150000Y44700000D01*
X10166556Y40000000D02*
X12400000Y40000000D01*
X9175220Y39008664D02*
X10166556Y40000000D01*
X12400000Y40000000D02*
X16150000Y43750000D01*
%TO.N,BOOT*%
X33240000Y8700000D02*
X33240000Y7650000D01*
X33240000Y7650000D02*
X32502500Y6912500D01*
X32502500Y6912500D02*
X32000000Y6912500D01*
%TD*%
%TA.AperFunction,Conductor*%
%TO.N,GND*%
G36*
X61003300Y53974328D02*
G01*
X61304319Y53958551D01*
X61317436Y53957173D01*
X61611911Y53910533D01*
X61624811Y53907791D01*
X61912799Y53830626D01*
X61925332Y53826553D01*
X62203672Y53719708D01*
X62215719Y53714344D01*
X62481368Y53578990D01*
X62492785Y53572399D01*
X62742838Y53410012D01*
X62753495Y53402268D01*
X62985197Y53214640D01*
X62994998Y53205815D01*
X63205814Y52994999D01*
X63214639Y52985198D01*
X63397441Y52759456D01*
X63402263Y52753502D01*
X63410013Y52742836D01*
X63428763Y52713963D01*
X63572394Y52492792D01*
X63578989Y52481369D01*
X63714343Y52215720D01*
X63719707Y52203673D01*
X63826550Y51925339D01*
X63830626Y51912795D01*
X63907790Y51624812D01*
X63910532Y51611912D01*
X63957172Y51317437D01*
X63958550Y51304321D01*
X63974327Y51003302D01*
X63974500Y50996707D01*
X63974500Y3003294D01*
X63974327Y2996699D01*
X63958550Y2695680D01*
X63957172Y2682564D01*
X63910532Y2388089D01*
X63907790Y2375189D01*
X63830626Y2087206D01*
X63826550Y2074662D01*
X63719707Y1796328D01*
X63714343Y1784281D01*
X63578989Y1518632D01*
X63572394Y1507209D01*
X63410015Y1257168D01*
X63402263Y1246499D01*
X63214639Y1014803D01*
X63205814Y1005002D01*
X62994998Y794186D01*
X62985197Y785361D01*
X62753501Y597737D01*
X62742832Y589985D01*
X62492791Y427606D01*
X62481368Y421011D01*
X62215719Y285657D01*
X62203672Y280293D01*
X61925338Y173450D01*
X61912794Y169374D01*
X61624811Y92210D01*
X61611911Y89468D01*
X61317436Y42828D01*
X61304320Y41450D01*
X61020488Y26574D01*
X61003299Y25673D01*
X60996707Y25500D01*
X3003293Y25500D01*
X2996700Y25673D01*
X2978512Y26627D01*
X2695679Y41450D01*
X2682563Y42828D01*
X2388088Y89468D01*
X2375188Y92210D01*
X2087205Y169374D01*
X2074661Y173450D01*
X1796327Y280293D01*
X1784280Y285657D01*
X1518631Y421011D01*
X1507208Y427606D01*
X1257167Y589985D01*
X1246498Y597737D01*
X1187493Y645518D01*
X1014802Y785361D01*
X1005001Y794186D01*
X794185Y1005002D01*
X785360Y1014803D01*
X597732Y1246505D01*
X589988Y1257162D01*
X427601Y1507215D01*
X421010Y1518632D01*
X285656Y1784281D01*
X280292Y1796328D01*
X228980Y1929999D01*
X173447Y2074668D01*
X169373Y2087206D01*
X134916Y2215801D01*
X92209Y2375189D01*
X89467Y2388089D01*
X52116Y2623913D01*
X42826Y2682565D01*
X41449Y2695681D01*
X25673Y2996700D01*
X25500Y3003294D01*
X25500Y11388185D01*
X2879500Y11388185D01*
X2879500Y11211815D01*
X2907090Y11037616D01*
X2961592Y10869877D01*
X3037703Y10720500D01*
X3041664Y10712727D01*
X3046737Y10705745D01*
X3145330Y10570043D01*
X3145332Y10570041D01*
X3145334Y10570038D01*
X3270037Y10445335D01*
X3270040Y10445333D01*
X3270043Y10445330D01*
X3412730Y10341662D01*
X3569877Y10261592D01*
X3737616Y10207090D01*
X3911815Y10179500D01*
X3911818Y10179500D01*
X4088182Y10179500D01*
X4088185Y10179500D01*
X4262384Y10207090D01*
X4430123Y10261592D01*
X4587270Y10341662D01*
X4729957Y10445330D01*
X4854670Y10570043D01*
X4958338Y10712730D01*
X5038408Y10869877D01*
X5092910Y11037616D01*
X5120500Y11211815D01*
X5120500Y11388185D01*
X5092910Y11562384D01*
X5038408Y11730123D01*
X4958338Y11887270D01*
X4854670Y12029957D01*
X4854667Y12029960D01*
X4854665Y12029963D01*
X4729962Y12154666D01*
X4729959Y12154668D01*
X4729957Y12154670D01*
X4587270Y12258338D01*
X4430123Y12338408D01*
X4262384Y12392910D01*
X4088185Y12420500D01*
X3911815Y12420500D01*
X3737616Y12392910D01*
X3737613Y12392910D01*
X3737612Y12392909D01*
X3677441Y12373358D01*
X3569877Y12338408D01*
X3569875Y12338408D01*
X3569875Y12338407D01*
X3412726Y12258336D01*
X3270040Y12154668D01*
X3270037Y12154666D01*
X3145334Y12029963D01*
X3145332Y12029960D01*
X3041664Y11887274D01*
X3041662Y11887270D01*
X2961592Y11730123D01*
X2907090Y11562384D01*
X2879500Y11388185D01*
X25500Y11388185D01*
X25500Y13928185D01*
X2879500Y13928185D01*
X2879500Y13751815D01*
X2907090Y13577616D01*
X2961592Y13409877D01*
X3041662Y13252730D01*
X3145330Y13110043D01*
X3145332Y13110041D01*
X3145334Y13110038D01*
X3270037Y12985335D01*
X3270040Y12985333D01*
X3270043Y12985330D01*
X3412730Y12881662D01*
X3569877Y12801592D01*
X3737616Y12747090D01*
X3911815Y12719500D01*
X3911818Y12719500D01*
X4088182Y12719500D01*
X4088185Y12719500D01*
X4262384Y12747090D01*
X4430123Y12801592D01*
X4587270Y12881662D01*
X4729957Y12985330D01*
X4854670Y13110043D01*
X4958338Y13252730D01*
X5038408Y13409877D01*
X5092910Y13577616D01*
X5120500Y13751815D01*
X5120500Y13928185D01*
X5092910Y14102384D01*
X5038408Y14270123D01*
X4958338Y14427270D01*
X4854670Y14569957D01*
X4854667Y14569960D01*
X4854665Y14569963D01*
X4729962Y14694666D01*
X4729959Y14694668D01*
X4729957Y14694670D01*
X4587270Y14798338D01*
X4430123Y14878408D01*
X4262384Y14932910D01*
X4088185Y14960500D01*
X3911815Y14960500D01*
X3737616Y14932910D01*
X3737613Y14932910D01*
X3737612Y14932909D01*
X3657133Y14906760D01*
X3569877Y14878408D01*
X3569875Y14878408D01*
X3569875Y14878407D01*
X3412726Y14798336D01*
X3270040Y14694668D01*
X3270037Y14694666D01*
X3145334Y14569963D01*
X3145332Y14569960D01*
X3041664Y14427274D01*
X3041662Y14427270D01*
X2961592Y14270123D01*
X2955765Y14252190D01*
X2911667Y14116469D01*
X2907090Y14102384D01*
X2879500Y13928185D01*
X25500Y13928185D01*
X25500Y16468185D01*
X2879500Y16468185D01*
X2879500Y16291815D01*
X2907090Y16117616D01*
X2961592Y15949877D01*
X3041662Y15792730D01*
X3145330Y15650043D01*
X3145332Y15650041D01*
X3145334Y15650038D01*
X3270037Y15525335D01*
X3270040Y15525333D01*
X3270043Y15525330D01*
X3412730Y15421662D01*
X3569877Y15341592D01*
X3737616Y15287090D01*
X3911815Y15259500D01*
X3911818Y15259500D01*
X4088182Y15259500D01*
X4088185Y15259500D01*
X4262384Y15287090D01*
X4430123Y15341592D01*
X4587270Y15421662D01*
X4729957Y15525330D01*
X4854670Y15650043D01*
X4958338Y15792730D01*
X5038408Y15949877D01*
X5092910Y16117616D01*
X5120500Y16291815D01*
X5120500Y16468185D01*
X5092910Y16642384D01*
X5038408Y16810123D01*
X4958338Y16967270D01*
X4854670Y17109957D01*
X4854667Y17109960D01*
X4854665Y17109963D01*
X4729962Y17234666D01*
X4729959Y17234668D01*
X4729957Y17234670D01*
X4587270Y17338338D01*
X4430123Y17418408D01*
X4262384Y17472910D01*
X4088185Y17500500D01*
X3911815Y17500500D01*
X3737616Y17472910D01*
X3737613Y17472910D01*
X3737612Y17472909D01*
X3716983Y17466206D01*
X3569877Y17418408D01*
X3569875Y17418408D01*
X3569875Y17418407D01*
X3412726Y17338336D01*
X3270040Y17234668D01*
X3270037Y17234666D01*
X3145334Y17109963D01*
X3145332Y17109960D01*
X3041664Y16967274D01*
X3041662Y16967270D01*
X2961592Y16810123D01*
X2907090Y16642384D01*
X2879500Y16468185D01*
X25500Y16468185D01*
X25500Y19008185D01*
X2879500Y19008185D01*
X2879500Y18831815D01*
X2907090Y18657616D01*
X2961592Y18489877D01*
X3041662Y18332730D01*
X3145330Y18190043D01*
X3145332Y18190041D01*
X3145334Y18190038D01*
X3270037Y18065335D01*
X3270040Y18065333D01*
X3270043Y18065330D01*
X3412730Y17961662D01*
X3569877Y17881592D01*
X3737616Y17827090D01*
X3911815Y17799500D01*
X3911818Y17799500D01*
X4088182Y17799500D01*
X4088185Y17799500D01*
X4262384Y17827090D01*
X4430123Y17881592D01*
X4587270Y17961662D01*
X4729957Y18065330D01*
X4854670Y18190043D01*
X4958338Y18332730D01*
X5036281Y18485704D01*
X5085029Y18537318D01*
X5148548Y18554500D01*
X9478500Y18554500D01*
X9546621Y18534498D01*
X9593114Y18480842D01*
X9604500Y18428500D01*
X9604500Y18404993D01*
X9609186Y18361414D01*
X9610525Y18348960D01*
X9657806Y18222195D01*
X9657807Y18222194D01*
X9738884Y18113885D01*
X9803673Y18065386D01*
X9847195Y18032806D01*
X9973960Y17985525D01*
X10030000Y17979500D01*
X10030004Y17979500D01*
X10644996Y17979500D01*
X10645000Y17979500D01*
X10701040Y17985525D01*
X10827805Y18032806D01*
X10936115Y18113885D01*
X11017194Y18222195D01*
X11064475Y18348960D01*
X11070500Y18405000D01*
X11070500Y19395000D01*
X11064475Y19451040D01*
X11017194Y19577805D01*
X10984614Y19621327D01*
X10936115Y19686116D01*
X10827806Y19767193D01*
X10827805Y19767194D01*
X10701040Y19814475D01*
X10688586Y19815814D01*
X10645007Y19820500D01*
X10645000Y19820500D01*
X10030000Y19820500D01*
X10029992Y19820500D01*
X9980186Y19815145D01*
X9973960Y19814475D01*
X9847195Y19767194D01*
X9847194Y19767194D01*
X9847193Y19767193D01*
X9738884Y19686116D01*
X9657807Y19577807D01*
X9657806Y19577805D01*
X9616064Y19465889D01*
X9610525Y19451039D01*
X9604500Y19395008D01*
X9604500Y19371500D01*
X9584498Y19303379D01*
X9530842Y19256886D01*
X9478500Y19245500D01*
X5163946Y19245500D01*
X5095825Y19265502D01*
X5049332Y19319158D01*
X5044113Y19332564D01*
X5038408Y19350123D01*
X4958338Y19507270D01*
X4854670Y19649957D01*
X4854667Y19649960D01*
X4854665Y19649963D01*
X4729962Y19774666D01*
X4729959Y19774668D01*
X4729957Y19774670D01*
X4587270Y19878338D01*
X4430123Y19958408D01*
X4262384Y20012910D01*
X4088185Y20040500D01*
X3911815Y20040500D01*
X3737616Y20012910D01*
X3737613Y20012910D01*
X3737612Y20012909D01*
X3676681Y19993111D01*
X3569877Y19958408D01*
X3569875Y19958408D01*
X3569875Y19958407D01*
X3412726Y19878336D01*
X3270040Y19774668D01*
X3270037Y19774666D01*
X3145334Y19649963D01*
X3145332Y19649960D01*
X3041664Y19507274D01*
X3013011Y19451039D01*
X2961592Y19350123D01*
X2938938Y19280400D01*
X2907452Y19183497D01*
X2907090Y19182384D01*
X2879500Y19008185D01*
X25500Y19008185D01*
X25500Y21548185D01*
X2879500Y21548185D01*
X2879500Y21371815D01*
X2907090Y21197616D01*
X2961592Y21029877D01*
X3041662Y20872730D01*
X3145330Y20730043D01*
X3145332Y20730041D01*
X3145334Y20730038D01*
X3270037Y20605335D01*
X3270040Y20605333D01*
X3270043Y20605330D01*
X3412730Y20501662D01*
X3569877Y20421592D01*
X3737616Y20367090D01*
X3911815Y20339500D01*
X3911818Y20339500D01*
X4088182Y20339500D01*
X4088185Y20339500D01*
X4262384Y20367090D01*
X4430123Y20421592D01*
X4587270Y20501662D01*
X4729957Y20605330D01*
X4854670Y20730043D01*
X4958338Y20872730D01*
X5038408Y21029877D01*
X5092910Y21197616D01*
X5120500Y21371815D01*
X5120500Y21548185D01*
X5092910Y21722384D01*
X5038408Y21890123D01*
X4958338Y22047270D01*
X4854670Y22189957D01*
X4854667Y22189960D01*
X4854665Y22189963D01*
X4729962Y22314666D01*
X4729959Y22314668D01*
X4729957Y22314670D01*
X4587270Y22418338D01*
X4430123Y22498408D01*
X4262384Y22552910D01*
X4088185Y22580500D01*
X3911815Y22580500D01*
X3737616Y22552910D01*
X3737613Y22552910D01*
X3737612Y22552909D01*
X3657133Y22526760D01*
X3569877Y22498408D01*
X3569875Y22498408D01*
X3569875Y22498407D01*
X3412726Y22418336D01*
X3270040Y22314668D01*
X3270037Y22314666D01*
X3145334Y22189963D01*
X3145332Y22189960D01*
X3041664Y22047274D01*
X3041662Y22047270D01*
X2961592Y21890123D01*
X2907090Y21722384D01*
X2879500Y21548185D01*
X25500Y21548185D01*
X25500Y24921725D01*
X2879500Y24921725D01*
X2879500Y23078286D01*
X2879501Y23078281D01*
X2892292Y23013965D01*
X2941027Y22941028D01*
X2989762Y22908465D01*
X3013965Y22892293D01*
X3078281Y22879500D01*
X4921718Y22879501D01*
X4986035Y22892293D01*
X5058972Y22941028D01*
X5107707Y23013965D01*
X5120500Y23078281D01*
X5120500Y23678500D01*
X5140502Y23746621D01*
X5194158Y23793114D01*
X5246500Y23804500D01*
X9447860Y23804500D01*
X9515981Y23784498D01*
X9552625Y23748502D01*
X9591027Y23691028D01*
X9610458Y23678045D01*
X9663965Y23642293D01*
X9728281Y23629500D01*
X10771718Y23629501D01*
X10836035Y23642293D01*
X10908972Y23691028D01*
X10957707Y23763965D01*
X10965304Y23802160D01*
X11350000Y23802160D01*
X11356400Y23742629D01*
X11406647Y23607911D01*
X11492810Y23492811D01*
X11607910Y23406648D01*
X11742628Y23356401D01*
X11802159Y23350001D01*
X11802176Y23350000D01*
X12100000Y23350000D01*
X12600000Y23350000D01*
X12897824Y23350000D01*
X12897840Y23350001D01*
X12957371Y23356401D01*
X13092089Y23406648D01*
X13207189Y23492811D01*
X13293352Y23607911D01*
X13343599Y23742629D01*
X13349999Y23802160D01*
X13350000Y23802177D01*
X13350000Y23900000D01*
X12600000Y23900000D01*
X12600000Y23350000D01*
X12100000Y23350000D01*
X12100000Y23900000D01*
X11350000Y23900000D01*
X11350000Y23802160D01*
X10965304Y23802160D01*
X10970500Y23828281D01*
X10970499Y24471718D01*
X10965303Y24497841D01*
X11350000Y24497841D01*
X11350000Y24400000D01*
X12100000Y24400000D01*
X12600000Y24400000D01*
X13350000Y24400000D01*
X13350000Y24497824D01*
X13349999Y24497841D01*
X13343599Y24557372D01*
X13293352Y24692090D01*
X13207189Y24807190D01*
X13092089Y24893353D01*
X12957371Y24943600D01*
X12897840Y24950000D01*
X12600000Y24950000D01*
X12600000Y24400000D01*
X12100000Y24400000D01*
X12100000Y24950000D01*
X11802159Y24950000D01*
X11742628Y24943600D01*
X11607910Y24893353D01*
X11492810Y24807190D01*
X11406647Y24692090D01*
X11356400Y24557372D01*
X11350000Y24497841D01*
X10965303Y24497841D01*
X10957707Y24536035D01*
X10957707Y24536036D01*
X10908972Y24608973D01*
X10836035Y24657707D01*
X10836034Y24657708D01*
X10771721Y24670500D01*
X9728285Y24670500D01*
X9728280Y24670499D01*
X9663964Y24657708D01*
X9591027Y24608973D01*
X9552625Y24551498D01*
X9498148Y24505970D01*
X9447860Y24495500D01*
X5246499Y24495500D01*
X5178378Y24515502D01*
X5131885Y24569158D01*
X5120499Y24621500D01*
X5120499Y24921715D01*
X5120499Y24921718D01*
X5107707Y24986035D01*
X5107707Y24986036D01*
X5058972Y25058973D01*
X4986035Y25107707D01*
X4986034Y25107708D01*
X4921721Y25120500D01*
X3078285Y25120500D01*
X3078280Y25120499D01*
X3013964Y25107708D01*
X2941027Y25058973D01*
X2892293Y24986036D01*
X2892292Y24986035D01*
X2879500Y24921725D01*
X25500Y24921725D01*
X25500Y31644029D01*
X20779500Y31644029D01*
X20779500Y31506972D01*
X20814970Y31374598D01*
X20883494Y31255910D01*
X20883502Y31255900D01*
X20948685Y31190717D01*
X20975996Y31149846D01*
X20978043Y31144905D01*
X20978046Y31144900D01*
X21023531Y31066116D01*
X21023534Y31066113D01*
X21023537Y31066109D01*
X22640937Y29448710D01*
X22674962Y29386398D01*
X22669898Y29315583D01*
X22640941Y29270523D01*
X22633500Y29263083D01*
X22633494Y29263075D01*
X22564970Y29144387D01*
X22529500Y29012013D01*
X22529500Y28874956D01*
X22564970Y28742582D01*
X22633494Y28623894D01*
X22633502Y28623884D01*
X22730399Y28526987D01*
X22730404Y28526983D01*
X22730406Y28526981D01*
X22730407Y28526980D01*
X22730409Y28526979D01*
X22849097Y28458455D01*
X22981471Y28422985D01*
X22981475Y28422984D01*
X23118525Y28422984D01*
X23184715Y28440720D01*
X23250902Y28458455D01*
X23250902Y28458456D01*
X23250905Y28458456D01*
X23369594Y28526981D01*
X23466503Y28623890D01*
X23519381Y28715479D01*
X23570763Y28764471D01*
X23640477Y28777908D01*
X23706388Y28751521D01*
X23747570Y28693689D01*
X23754500Y28652478D01*
X23754500Y17314511D01*
X23778044Y17226646D01*
X23778046Y17226641D01*
X23798101Y17191905D01*
X23823531Y17147858D01*
X23823534Y17147855D01*
X23823537Y17147851D01*
X24803531Y16167858D01*
X24867858Y16103531D01*
X24946642Y16058046D01*
X24946643Y16058046D01*
X24946645Y16058045D01*
X25034510Y16034501D01*
X25034514Y16034500D01*
X25702552Y16034500D01*
X25770673Y16014498D01*
X25817166Y15960842D01*
X25819659Y15954437D01*
X25819697Y15954452D01*
X25821590Y15949882D01*
X25821592Y15949877D01*
X25901662Y15792730D01*
X26005330Y15650043D01*
X26005332Y15650041D01*
X26005334Y15650038D01*
X26130037Y15525335D01*
X26130040Y15525333D01*
X26130043Y15525330D01*
X26272730Y15421662D01*
X26429877Y15341592D01*
X26597616Y15287090D01*
X26771815Y15259500D01*
X26771818Y15259500D01*
X26948182Y15259500D01*
X26948185Y15259500D01*
X27122384Y15287090D01*
X27290123Y15341592D01*
X27447270Y15421662D01*
X27589957Y15525330D01*
X27714670Y15650043D01*
X27818338Y15792730D01*
X27898408Y15949877D01*
X27952910Y16117616D01*
X27980500Y16291815D01*
X27980500Y16468185D01*
X27952910Y16642384D01*
X27898408Y16810123D01*
X27818338Y16967270D01*
X27714670Y17109957D01*
X27714667Y17109960D01*
X27714665Y17109963D01*
X27589962Y17234666D01*
X27589959Y17234668D01*
X27589957Y17234670D01*
X27447270Y17338338D01*
X27290123Y17418408D01*
X27122384Y17472910D01*
X26948185Y17500500D01*
X26771815Y17500500D01*
X26597616Y17472910D01*
X26597613Y17472910D01*
X26597612Y17472909D01*
X26576983Y17466206D01*
X26429877Y17418408D01*
X26429875Y17418408D01*
X26429875Y17418407D01*
X26272726Y17338336D01*
X26130040Y17234668D01*
X26130037Y17234666D01*
X26005334Y17109963D01*
X26005332Y17109960D01*
X25901664Y16967274D01*
X25821590Y16810119D01*
X25819697Y16805548D01*
X25818054Y16806229D01*
X25782308Y16753956D01*
X25716911Y16726321D01*
X25702552Y16725500D01*
X25275301Y16725500D01*
X25207180Y16745502D01*
X25186206Y16762405D01*
X24482405Y17466206D01*
X24448379Y17528518D01*
X24445500Y17555301D01*
X24445500Y19161699D01*
X24465502Y19229820D01*
X24519158Y19276313D01*
X24589432Y19286417D01*
X24654012Y19256923D01*
X24660595Y19250794D01*
X25203531Y18707858D01*
X25267858Y18643531D01*
X25346642Y18598046D01*
X25346643Y18598046D01*
X25346645Y18598045D01*
X25434510Y18574501D01*
X25434514Y18574500D01*
X25525486Y18574500D01*
X25702552Y18574500D01*
X25770673Y18554498D01*
X25817166Y18500842D01*
X25819659Y18494437D01*
X25819697Y18494452D01*
X25821590Y18489882D01*
X25821592Y18489877D01*
X25901662Y18332730D01*
X26005330Y18190043D01*
X26005332Y18190041D01*
X26005334Y18190038D01*
X26130037Y18065335D01*
X26130040Y18065333D01*
X26130043Y18065330D01*
X26272730Y17961662D01*
X26429877Y17881592D01*
X26597616Y17827090D01*
X26771815Y17799500D01*
X26771818Y17799500D01*
X26948182Y17799500D01*
X26948185Y17799500D01*
X27122384Y17827090D01*
X27290123Y17881592D01*
X27447270Y17961662D01*
X27589957Y18065330D01*
X27714670Y18190043D01*
X27818338Y18332730D01*
X27898408Y18489877D01*
X27952910Y18657616D01*
X27980500Y18831815D01*
X27980500Y19008185D01*
X27952910Y19182384D01*
X27898408Y19350123D01*
X27818338Y19507270D01*
X27714670Y19649957D01*
X27714667Y19649960D01*
X27714665Y19649963D01*
X27589962Y19774666D01*
X27589959Y19774668D01*
X27589957Y19774670D01*
X27447270Y19878338D01*
X27290123Y19958408D01*
X27122384Y20012910D01*
X26948185Y20040500D01*
X26771815Y20040500D01*
X26597616Y20012910D01*
X26597613Y20012910D01*
X26597612Y20012909D01*
X26536681Y19993111D01*
X26429877Y19958408D01*
X26429875Y19958408D01*
X26429875Y19958407D01*
X26272726Y19878336D01*
X26130040Y19774668D01*
X26130037Y19774666D01*
X26005334Y19649963D01*
X26005332Y19649960D01*
X25901664Y19507274D01*
X25821590Y19350119D01*
X25819697Y19345548D01*
X25818054Y19346229D01*
X25808208Y19331831D01*
X25797776Y19308988D01*
X25788519Y19303040D01*
X25782308Y19293956D01*
X25759176Y19284182D01*
X25738050Y19270604D01*
X25721371Y19268206D01*
X25716911Y19266321D01*
X25702552Y19265500D01*
X25675301Y19265500D01*
X25607180Y19285502D01*
X25586206Y19302405D01*
X24932405Y19956206D01*
X24898379Y20018518D01*
X24895500Y20045301D01*
X24895500Y21548185D01*
X25739500Y21548185D01*
X25739500Y21371815D01*
X25767090Y21197616D01*
X25821592Y21029877D01*
X25901662Y20872730D01*
X26005330Y20730043D01*
X26005332Y20730041D01*
X26005334Y20730038D01*
X26130037Y20605335D01*
X26130040Y20605333D01*
X26130043Y20605330D01*
X26272730Y20501662D01*
X26429877Y20421592D01*
X26597616Y20367090D01*
X26771815Y20339500D01*
X26771818Y20339500D01*
X26948182Y20339500D01*
X26948185Y20339500D01*
X27122384Y20367090D01*
X27290123Y20421592D01*
X27447270Y20501662D01*
X27589957Y20605330D01*
X27714670Y20730043D01*
X27818338Y20872730D01*
X27898408Y21029877D01*
X27952910Y21197616D01*
X27980500Y21371815D01*
X27980500Y21548185D01*
X27952910Y21722384D01*
X27898408Y21890123D01*
X27818338Y22047270D01*
X27714670Y22189957D01*
X27714667Y22189960D01*
X27714665Y22189963D01*
X27589962Y22314666D01*
X27589959Y22314668D01*
X27589957Y22314670D01*
X27447270Y22418338D01*
X27290123Y22498408D01*
X27122384Y22552910D01*
X26948185Y22580500D01*
X26771815Y22580500D01*
X26597616Y22552910D01*
X26597613Y22552910D01*
X26597612Y22552909D01*
X26517133Y22526760D01*
X26429877Y22498408D01*
X26429875Y22498408D01*
X26429875Y22498407D01*
X26272726Y22418336D01*
X26130040Y22314668D01*
X26130037Y22314666D01*
X26005334Y22189963D01*
X26005332Y22189960D01*
X25901664Y22047274D01*
X25901662Y22047270D01*
X25821592Y21890123D01*
X25767090Y21722384D01*
X25739500Y21548185D01*
X24895500Y21548185D01*
X24895500Y27628984D01*
X24915502Y27697105D01*
X24969158Y27743598D01*
X25039432Y27753702D01*
X25104012Y27724208D01*
X25130618Y27691986D01*
X25131781Y27689971D01*
X25183494Y27600400D01*
X25183502Y27600390D01*
X25280399Y27503493D01*
X25280404Y27503489D01*
X25280406Y27503487D01*
X25280407Y27503486D01*
X25280409Y27503485D01*
X25399097Y27434961D01*
X25531471Y27399491D01*
X25531475Y27399490D01*
X25668525Y27399490D01*
X25753229Y27422187D01*
X25800902Y27434961D01*
X25800902Y27434962D01*
X25800905Y27434962D01*
X25919594Y27503487D01*
X26016503Y27600396D01*
X26085028Y27719085D01*
X26091597Y27743598D01*
X26120499Y27851462D01*
X26120500Y27851465D01*
X26120500Y27988515D01*
X26120499Y27988519D01*
X26085029Y28120893D01*
X26016505Y28239581D01*
X26016497Y28239591D01*
X25982405Y28273683D01*
X25948379Y28335995D01*
X25945500Y28362778D01*
X25945500Y28645486D01*
X25945499Y28645490D01*
X25921955Y28733355D01*
X25921953Y28733360D01*
X25903991Y28764471D01*
X25876469Y28812142D01*
X25812142Y28876469D01*
X25382405Y29306206D01*
X25348379Y29368518D01*
X25345500Y29395301D01*
X25345500Y31984092D01*
X25345499Y31984096D01*
X25321955Y32071961D01*
X25321953Y32071966D01*
X25308077Y32096000D01*
X25276469Y32150748D01*
X25212142Y32215075D01*
X23727217Y33700000D01*
X22194909Y35232309D01*
X22195832Y35233233D01*
X22171432Y35261056D01*
X22166503Y35269594D01*
X22166501Y35269596D01*
X22166499Y35269599D01*
X22069600Y35366498D01*
X22069590Y35366506D01*
X21950902Y35435030D01*
X21818528Y35470500D01*
X21818525Y35470500D01*
X21681475Y35470500D01*
X21681471Y35470500D01*
X21549097Y35435030D01*
X21430409Y35366506D01*
X21430399Y35366498D01*
X21333502Y35269601D01*
X21333494Y35269591D01*
X21264970Y35150903D01*
X21229500Y35018529D01*
X21229500Y34881472D01*
X21264970Y34749098D01*
X21333494Y34630410D01*
X21333502Y34630400D01*
X21430399Y34533503D01*
X21430404Y34533499D01*
X21430406Y34533497D01*
X21430407Y34533496D01*
X21430409Y34533495D01*
X21452531Y34520723D01*
X21527463Y34477461D01*
X21549097Y34464971D01*
X21681471Y34429501D01*
X21681475Y34429500D01*
X21818525Y34429500D01*
X21907546Y34453354D01*
X21978520Y34451666D01*
X22029252Y34420743D01*
X24119841Y32330154D01*
X24153867Y32267842D01*
X24148802Y32197027D01*
X24106255Y32140191D01*
X24093746Y32131940D01*
X23980409Y32066506D01*
X23980399Y32066498D01*
X23883502Y31969601D01*
X23883494Y31969591D01*
X23814970Y31850903D01*
X23779500Y31718529D01*
X23779500Y31581472D01*
X23814970Y31449098D01*
X23883494Y31330410D01*
X23883502Y31330400D01*
X23980399Y31233503D01*
X23980404Y31233499D01*
X23980406Y31233497D01*
X23980407Y31233496D01*
X23980409Y31233495D01*
X24024975Y31207765D01*
X24099095Y31164972D01*
X24111112Y31161752D01*
X24171733Y31124802D01*
X24202755Y31060941D01*
X24204500Y31040046D01*
X24204500Y29802955D01*
X24184498Y29734834D01*
X24130842Y29688341D01*
X24060568Y29678237D01*
X23995988Y29707731D01*
X23989405Y29713860D01*
X22558776Y31144489D01*
X22524750Y31206801D01*
X22529815Y31277616D01*
X22558777Y31322681D01*
X22566503Y31330406D01*
X22635028Y31449095D01*
X22650537Y31506972D01*
X22670499Y31581472D01*
X22670500Y31581475D01*
X22670500Y31718525D01*
X22670499Y31718529D01*
X22635029Y31850903D01*
X22566505Y31969591D01*
X22566497Y31969601D01*
X22469600Y32066498D01*
X22469590Y32066506D01*
X22350902Y32135030D01*
X22218528Y32170500D01*
X22218525Y32170500D01*
X22081475Y32170500D01*
X22081471Y32170500D01*
X21949097Y32135030D01*
X21830409Y32066506D01*
X21830403Y32066501D01*
X21774377Y32010475D01*
X21712064Y31976450D01*
X21641249Y31981516D01*
X21622283Y31990451D01*
X21547762Y32033476D01*
X21500905Y32060528D01*
X21500904Y32060529D01*
X21500901Y32060530D01*
X21368528Y32096000D01*
X21368525Y32096000D01*
X21231475Y32096000D01*
X21231471Y32096000D01*
X21099097Y32060530D01*
X20980409Y31992006D01*
X20980399Y31991998D01*
X20883502Y31895101D01*
X20883494Y31895091D01*
X20814970Y31776403D01*
X20779500Y31644029D01*
X25500Y31644029D01*
X25500Y33651686D01*
X3975001Y33651686D01*
X3985143Y33552398D01*
X4038453Y33391517D01*
X4127427Y33247268D01*
X4127432Y33247262D01*
X4247261Y33127433D01*
X4247267Y33127428D01*
X4391516Y33038454D01*
X4552393Y32985145D01*
X4552399Y32985144D01*
X4651676Y32975001D01*
X4675000Y32975002D01*
X4675000Y33700000D01*
X3975001Y33700000D01*
X3975001Y33651686D01*
X25500Y33651686D01*
X25500Y34248324D01*
X3975000Y34248324D01*
X3975000Y34200000D01*
X4675000Y34200000D01*
X4675000Y35300000D01*
X3975001Y35300000D01*
X3975001Y35251686D01*
X3985143Y35152398D01*
X4038453Y34991517D01*
X4127427Y34847268D01*
X4127432Y34847262D01*
X4135599Y34839095D01*
X4169625Y34776783D01*
X4164560Y34705968D01*
X4135599Y34660905D01*
X4127432Y34652739D01*
X4127427Y34652733D01*
X4038453Y34508484D01*
X3985144Y34347607D01*
X3985143Y34347601D01*
X3975000Y34248324D01*
X25500Y34248324D01*
X25500Y35848324D01*
X3975000Y35848324D01*
X3975000Y35800000D01*
X4675000Y35800000D01*
X4675000Y36900000D01*
X3975001Y36900000D01*
X3975001Y36851686D01*
X3985143Y36752398D01*
X4038453Y36591517D01*
X4127427Y36447268D01*
X4127432Y36447262D01*
X4135599Y36439095D01*
X4169625Y36376783D01*
X4164560Y36305968D01*
X4135599Y36260905D01*
X4127432Y36252739D01*
X4127427Y36252733D01*
X4038453Y36108484D01*
X3985144Y35947607D01*
X3985143Y35947601D01*
X3975000Y35848324D01*
X25500Y35848324D01*
X25500Y37448324D01*
X3975000Y37448324D01*
X3975000Y37400000D01*
X4675000Y37400000D01*
X4675000Y38125000D01*
X4674999Y38125001D01*
X4651694Y38125000D01*
X4552397Y38114857D01*
X4391516Y38061547D01*
X4247267Y37972573D01*
X4247261Y37972568D01*
X4127432Y37852739D01*
X4127427Y37852733D01*
X4038453Y37708484D01*
X3985144Y37547607D01*
X3985143Y37547601D01*
X3975000Y37448324D01*
X25500Y37448324D01*
X25500Y38704931D01*
X45502Y38773052D01*
X99158Y38819545D01*
X169432Y38829649D01*
X230795Y38802851D01*
X307123Y38741041D01*
X475692Y38655151D01*
X658433Y38606186D01*
X658437Y38606185D01*
X737006Y38600001D01*
X737009Y38600000D01*
X1250000Y38600000D01*
X1250000Y39500000D01*
X1750000Y39500000D01*
X1750000Y38600000D01*
X2262991Y38600000D01*
X2262993Y38600001D01*
X2341562Y38606185D01*
X2341566Y38606186D01*
X2524307Y38655151D01*
X2692876Y38741041D01*
X2692877Y38741041D01*
X2839901Y38860099D01*
X2958959Y39007123D01*
X2958959Y39007124D01*
X3044849Y39175693D01*
X3093814Y39358434D01*
X3093815Y39358438D01*
X3099999Y39437007D01*
X3100000Y39437009D01*
X3100000Y39650000D01*
X2165686Y39650000D01*
X2170080Y39654394D01*
X2222741Y39745606D01*
X2250000Y39847339D01*
X2250000Y39952661D01*
X2222741Y40054394D01*
X2170080Y40145606D01*
X2165686Y40150000D01*
X3100000Y40150000D01*
X3100000Y40362991D01*
X3099999Y40362994D01*
X3093815Y40441563D01*
X3093814Y40441567D01*
X3044849Y40624308D01*
X2958959Y40792877D01*
X2958959Y40792878D01*
X2839900Y40939902D01*
X2826713Y40950581D01*
X2786362Y41008995D01*
X2783998Y41079953D01*
X2820371Y41140924D01*
X2883934Y41172551D01*
X2906009Y41174500D01*
X3793991Y41174500D01*
X3862112Y41154498D01*
X3908605Y41100842D01*
X3918709Y41030568D01*
X3889215Y40965988D01*
X3873287Y40950581D01*
X3860099Y40939902D01*
X3741040Y40792878D01*
X3741040Y40792877D01*
X3655150Y40624308D01*
X3606185Y40441567D01*
X3606184Y40441563D01*
X3600000Y40362994D01*
X3600000Y40150000D01*
X4534314Y40150000D01*
X4529920Y40145606D01*
X4477259Y40054394D01*
X4450000Y39952661D01*
X4450000Y39847339D01*
X4477259Y39745606D01*
X4529920Y39654394D01*
X4534314Y39650000D01*
X3600000Y39650000D01*
X3600000Y39437007D01*
X3606184Y39358438D01*
X3606185Y39358434D01*
X3655150Y39175693D01*
X3741040Y39007124D01*
X3741040Y39007123D01*
X3860098Y38860099D01*
X4007122Y38741041D01*
X4175692Y38655151D01*
X4358433Y38606186D01*
X4358437Y38606185D01*
X4437006Y38600001D01*
X4437009Y38600000D01*
X4950000Y38600000D01*
X4950000Y39500000D01*
X5450000Y39500000D01*
X5450000Y38600000D01*
X5962991Y38600000D01*
X5962993Y38600001D01*
X6041562Y38606185D01*
X6041572Y38606187D01*
X6048890Y38608147D01*
X6119866Y38606458D01*
X6178662Y38566665D01*
X6206611Y38501401D01*
X6194838Y38431387D01*
X6190628Y38423454D01*
X6177587Y38400866D01*
X6153045Y38358358D01*
X6153044Y38358355D01*
X6129500Y38270490D01*
X6129500Y37919223D01*
X6109498Y37851102D01*
X6073192Y37814251D01*
X6060030Y37805513D01*
X6039481Y37798322D01*
X5952432Y37734078D01*
X5949817Y37732341D01*
X5918771Y37722721D01*
X5888258Y37711576D01*
X5885097Y37712287D01*
X5882002Y37711327D01*
X5850688Y37720017D01*
X5818988Y37727139D01*
X5816515Y37729501D01*
X5813590Y37730312D01*
X5801579Y37743764D01*
X5772885Y37771165D01*
X5722574Y37852731D01*
X5722567Y37852739D01*
X5602738Y37972568D01*
X5602732Y37972573D01*
X5458483Y38061547D01*
X5297606Y38114856D01*
X5297600Y38114857D01*
X5198323Y38125000D01*
X5175000Y38125000D01*
X5175000Y32975001D01*
X5198314Y32975001D01*
X5297602Y32985144D01*
X5458483Y33038454D01*
X5602732Y33127428D01*
X5602738Y33127433D01*
X5722567Y33247262D01*
X5722572Y33247268D01*
X5772884Y33328835D01*
X5825670Y33376313D01*
X5895745Y33387716D01*
X5954944Y33364069D01*
X6039481Y33301678D01*
X6166241Y33257322D01*
X6196336Y33254500D01*
X6196339Y33254500D01*
X6753661Y33254500D01*
X6753664Y33254500D01*
X6783759Y33257322D01*
X6910519Y33301678D01*
X7018574Y33381426D01*
X7098322Y33489481D01*
X7109043Y33520118D01*
X7150422Y33577809D01*
X7216423Y33603970D01*
X7227971Y33604500D01*
X8432212Y33604500D01*
X8500333Y33584498D01*
X8521307Y33567595D01*
X8605399Y33483503D01*
X8605404Y33483499D01*
X8605406Y33483497D01*
X8721443Y33416503D01*
X8731247Y33410843D01*
X8730601Y33409726D01*
X8779368Y33370423D01*
X8801785Y33303058D01*
X8784985Y33235570D01*
X8764971Y33200904D01*
X8729500Y33068529D01*
X8729500Y32931472D01*
X8764970Y32799098D01*
X8833494Y32680410D01*
X8833502Y32680400D01*
X8930399Y32583503D01*
X8930404Y32583499D01*
X8930406Y32583497D01*
X8930407Y32583496D01*
X8930409Y32583495D01*
X8966949Y32562399D01*
X9031677Y32525028D01*
X9049097Y32514971D01*
X9181471Y32479501D01*
X9181475Y32479500D01*
X9318525Y32479500D01*
X9384715Y32497236D01*
X9450902Y32514971D01*
X9450902Y32514972D01*
X9450905Y32514972D01*
X9569594Y32583497D01*
X9603692Y32617596D01*
X9666002Y32651620D01*
X9692787Y32654500D01*
X9831882Y32654500D01*
X9919754Y32678046D01*
X9998538Y32723531D01*
X12194667Y34919660D01*
X16592602Y39317595D01*
X16654914Y39351621D01*
X16681697Y39354500D01*
X17154514Y39354500D01*
X17160238Y39354500D01*
X17228359Y39334498D01*
X17269357Y39291500D01*
X17333494Y39180410D01*
X17333502Y39180400D01*
X17430399Y39083503D01*
X17430404Y39083499D01*
X17430406Y39083497D01*
X17430407Y39083496D01*
X17430409Y39083495D01*
X17549097Y39014971D01*
X17672559Y38981889D01*
X17681475Y38979500D01*
X17729699Y38979500D01*
X17797820Y38959498D01*
X17818789Y38942600D01*
X18387858Y38373531D01*
X18387859Y38373530D01*
X18387861Y38373529D01*
X18466638Y38328047D01*
X18466640Y38328047D01*
X18466643Y38328045D01*
X18554514Y38304500D01*
X18554516Y38304500D01*
X25595486Y38304500D01*
X25683358Y38328046D01*
X25762142Y38373531D01*
X30669563Y43280952D01*
X30731875Y43314978D01*
X30802690Y43309913D01*
X30859526Y43267366D01*
X30884337Y43200846D01*
X30884658Y43191857D01*
X30884658Y40136831D01*
X30864656Y40068710D01*
X30847753Y40047736D01*
X29912878Y39112861D01*
X29904388Y39104372D01*
X29895904Y39095888D01*
X29833590Y39061867D01*
X29762775Y39066936D01*
X29717719Y39095894D01*
X29435372Y39378241D01*
X29402761Y39434723D01*
X29385028Y39500905D01*
X29316503Y39619594D01*
X29316501Y39619596D01*
X29316497Y39619601D01*
X29219600Y39716498D01*
X29219590Y39716506D01*
X29100902Y39785030D01*
X28968528Y39820500D01*
X28968525Y39820500D01*
X28831475Y39820500D01*
X28831471Y39820500D01*
X28699097Y39785030D01*
X28580409Y39716506D01*
X28580399Y39716498D01*
X28483502Y39619601D01*
X28483494Y39619591D01*
X28414970Y39500903D01*
X28379500Y39368529D01*
X28379500Y39231472D01*
X28414970Y39099098D01*
X28483497Y38980406D01*
X28486338Y38976703D01*
X28511938Y38910482D01*
X28497673Y38840934D01*
X28486338Y38823297D01*
X28483497Y38819595D01*
X28414970Y38700903D01*
X28379500Y38568529D01*
X28379500Y38431472D01*
X28414970Y38299098D01*
X28483494Y38180410D01*
X28483502Y38180400D01*
X28580399Y38083503D01*
X28580404Y38083499D01*
X28580406Y38083497D01*
X28580407Y38083496D01*
X28580409Y38083495D01*
X28673587Y38029699D01*
X28699095Y38014972D01*
X28786114Y37991655D01*
X28846734Y37954704D01*
X28877756Y37890843D01*
X28879500Y37869949D01*
X28879500Y37478176D01*
X28859498Y37410055D01*
X28805842Y37363562D01*
X28735568Y37353458D01*
X28720889Y37356469D01*
X28694417Y37363562D01*
X28668525Y37370500D01*
X28531475Y37370500D01*
X28531471Y37370500D01*
X28399097Y37335030D01*
X28280409Y37266506D01*
X28280399Y37266498D01*
X28183502Y37169601D01*
X28183494Y37169591D01*
X28114970Y37050903D01*
X28079500Y36918529D01*
X28079500Y36781472D01*
X28114970Y36649098D01*
X28183494Y36530410D01*
X28183502Y36530400D01*
X28280399Y36433503D01*
X28280404Y36433499D01*
X28280406Y36433497D01*
X28280407Y36433496D01*
X28280409Y36433495D01*
X28366490Y36383796D01*
X28415483Y36332413D01*
X28429490Y36274677D01*
X28429490Y26110293D01*
X28409488Y26042172D01*
X28392585Y26021198D01*
X27528792Y25157405D01*
X27466480Y25123379D01*
X27439697Y25120500D01*
X25938285Y25120500D01*
X25938280Y25120499D01*
X25873964Y25107708D01*
X25801027Y25058973D01*
X25752293Y24986036D01*
X25752292Y24986035D01*
X25739500Y24921725D01*
X25739500Y23078286D01*
X25739501Y23078281D01*
X25752292Y23013965D01*
X25801027Y22941028D01*
X25849762Y22908465D01*
X25873965Y22892293D01*
X25938281Y22879500D01*
X27781718Y22879501D01*
X27846035Y22892293D01*
X27918972Y22941028D01*
X27967707Y23013965D01*
X27980500Y23078281D01*
X27980499Y24579699D01*
X28000501Y24647819D01*
X28017404Y24668793D01*
X28664405Y25315794D01*
X28726717Y25349820D01*
X28797532Y25344755D01*
X28854368Y25302208D01*
X28879179Y25235688D01*
X28879500Y25226699D01*
X28879500Y15520302D01*
X28859498Y15452181D01*
X28842595Y15431206D01*
X27931206Y14519818D01*
X27868894Y14485793D01*
X27798078Y14490858D01*
X27741243Y14533405D01*
X27740176Y14534852D01*
X27714670Y14569957D01*
X27714665Y14569963D01*
X27589962Y14694666D01*
X27589959Y14694668D01*
X27589957Y14694670D01*
X27447270Y14798338D01*
X27290123Y14878408D01*
X27122384Y14932910D01*
X26948185Y14960500D01*
X26771815Y14960500D01*
X26597616Y14932910D01*
X26597613Y14932910D01*
X26597612Y14932909D01*
X26517133Y14906760D01*
X26429877Y14878408D01*
X26429875Y14878408D01*
X26429875Y14878407D01*
X26272726Y14798336D01*
X26130040Y14694668D01*
X26130037Y14694666D01*
X26005334Y14569963D01*
X26005332Y14569960D01*
X25901664Y14427274D01*
X25821590Y14270119D01*
X25819697Y14265548D01*
X25818054Y14266229D01*
X25782308Y14213956D01*
X25716911Y14186321D01*
X25702552Y14185500D01*
X19844510Y14185500D01*
X19756645Y14161956D01*
X19756642Y14161955D01*
X19695196Y14126479D01*
X19695195Y14126480D01*
X19677861Y14116472D01*
X19677851Y14116464D01*
X18445047Y12883658D01*
X18077858Y12516469D01*
X18045696Y12484307D01*
X18013534Y12452146D01*
X18013530Y12452140D01*
X17968046Y12373360D01*
X17968044Y12373355D01*
X17944500Y12285490D01*
X17944500Y12261500D01*
X17924498Y12193379D01*
X17870842Y12146886D01*
X17818500Y12135500D01*
X17794992Y12135500D01*
X17745186Y12130145D01*
X17738960Y12129475D01*
X17612195Y12082194D01*
X17612194Y12082194D01*
X17612193Y12082193D01*
X17503884Y12001116D01*
X17424842Y11895525D01*
X17422806Y11892805D01*
X17376138Y11767682D01*
X17375525Y11766039D01*
X17369500Y11710008D01*
X17369500Y11094993D01*
X17373133Y11061208D01*
X17375525Y11038960D01*
X17422806Y10912195D01*
X17422807Y10912194D01*
X17503884Y10803885D01*
X17565976Y10757405D01*
X17612195Y10722806D01*
X17738960Y10675525D01*
X17795000Y10669500D01*
X17795004Y10669500D01*
X18784996Y10669500D01*
X18785000Y10669500D01*
X18841040Y10675525D01*
X18967805Y10722806D01*
X19076115Y10803885D01*
X19157194Y10912195D01*
X19204475Y11038960D01*
X19210500Y11095000D01*
X19210500Y11710000D01*
X19204475Y11766040D01*
X19157194Y11892805D01*
X19119025Y11943794D01*
X19076115Y12001116D01*
X18998902Y12058915D01*
X18967805Y12082194D01*
X18932168Y12095486D01*
X18898766Y12107945D01*
X18841931Y12150492D01*
X18817121Y12217013D01*
X18832213Y12286387D01*
X18853702Y12315092D01*
X19996206Y13457595D01*
X20058518Y13491621D01*
X20085301Y13494500D01*
X25702552Y13494500D01*
X25770673Y13474498D01*
X25817166Y13420842D01*
X25819659Y13414437D01*
X25819697Y13414452D01*
X25821590Y13409882D01*
X25821592Y13409877D01*
X25901662Y13252730D01*
X26005330Y13110043D01*
X26005332Y13110041D01*
X26005334Y13110038D01*
X26130037Y12985335D01*
X26130040Y12985333D01*
X26130043Y12985330D01*
X26272730Y12881662D01*
X26429877Y12801592D01*
X26597616Y12747090D01*
X26771815Y12719500D01*
X26771818Y12719500D01*
X26948182Y12719500D01*
X26948185Y12719500D01*
X27122384Y12747090D01*
X27290123Y12801592D01*
X27447270Y12881662D01*
X27589957Y12985330D01*
X27714670Y13110043D01*
X27818338Y13252730D01*
X27898408Y13409877D01*
X27937152Y13529122D01*
X27967890Y13579279D01*
X29114415Y14725804D01*
X29176727Y14759830D01*
X29247542Y14754765D01*
X29304378Y14712218D01*
X29329189Y14645698D01*
X29329510Y14636709D01*
X29329510Y14320311D01*
X29320726Y14290396D01*
X29314098Y14259926D01*
X29310283Y14254831D01*
X29309508Y14252190D01*
X29292605Y14231216D01*
X29187868Y14126479D01*
X29163777Y14102388D01*
X29123544Y14062156D01*
X29123537Y14062146D01*
X29118170Y14052851D01*
X29098150Y14026763D01*
X27434133Y12362746D01*
X27371821Y12328720D01*
X27301006Y12333785D01*
X27294720Y12336548D01*
X27294705Y12336511D01*
X27290135Y12338404D01*
X27182558Y12373358D01*
X27122384Y12392910D01*
X26948185Y12420500D01*
X26771815Y12420500D01*
X26597616Y12392910D01*
X26597613Y12392910D01*
X26597612Y12392909D01*
X26537441Y12373358D01*
X26429877Y12338408D01*
X26429875Y12338408D01*
X26429875Y12338407D01*
X26272726Y12258336D01*
X26130040Y12154668D01*
X26130037Y12154666D01*
X26005334Y12029963D01*
X26005332Y12029960D01*
X25901664Y11887274D01*
X25901662Y11887270D01*
X25873327Y11831658D01*
X25870850Y11826797D01*
X25822102Y11775182D01*
X25758583Y11758000D01*
X21508687Y11758000D01*
X21440566Y11778002D01*
X21394073Y11831658D01*
X21390632Y11839967D01*
X21372987Y11887274D01*
X21367194Y11902805D01*
X21313129Y11975028D01*
X21286115Y12011116D01*
X21191165Y12082193D01*
X21177805Y12092194D01*
X21051040Y12139475D01*
X21038586Y12140814D01*
X20995007Y12145500D01*
X20995000Y12145500D01*
X20005000Y12145500D01*
X20004992Y12145500D01*
X19955186Y12140145D01*
X19948960Y12139475D01*
X19822195Y12092194D01*
X19822194Y12092194D01*
X19822193Y12092193D01*
X19713884Y12011116D01*
X19632807Y11902807D01*
X19632806Y11902805D01*
X19590355Y11788988D01*
X19585525Y11776039D01*
X19579500Y11720008D01*
X19579500Y11104993D01*
X19582886Y11073503D01*
X19585525Y11048960D01*
X19632806Y10922195D01*
X19632807Y10922194D01*
X19713884Y10813885D01*
X19778673Y10765386D01*
X19822195Y10732806D01*
X19948960Y10685525D01*
X20005000Y10679500D01*
X20005004Y10679500D01*
X20994996Y10679500D01*
X20995000Y10679500D01*
X21051040Y10685525D01*
X21177805Y10732806D01*
X21286115Y10813885D01*
X21367194Y10922195D01*
X21381124Y10959543D01*
X21390632Y10985033D01*
X21433179Y11041869D01*
X21499699Y11066679D01*
X21508687Y11067000D01*
X25665998Y11067000D01*
X25734119Y11046998D01*
X25780612Y10993342D01*
X25785831Y10979937D01*
X25821592Y10869877D01*
X25897703Y10720500D01*
X25901664Y10712727D01*
X25906737Y10705745D01*
X26005330Y10570043D01*
X26005332Y10570041D01*
X26005334Y10570038D01*
X26130037Y10445335D01*
X26130040Y10445333D01*
X26130043Y10445330D01*
X26272730Y10341662D01*
X26429877Y10261592D01*
X26597616Y10207090D01*
X26771815Y10179500D01*
X26771818Y10179500D01*
X26948182Y10179500D01*
X26948185Y10179500D01*
X27122384Y10207090D01*
X27290123Y10261592D01*
X27447270Y10341662D01*
X27589957Y10445330D01*
X27714670Y10570043D01*
X27818338Y10712730D01*
X27898408Y10869877D01*
X27952910Y11037616D01*
X27980500Y11211815D01*
X27980500Y11388185D01*
X27952910Y11562384D01*
X27898408Y11730123D01*
X27898400Y11730138D01*
X27896512Y11734699D01*
X27898158Y11735381D01*
X27886467Y11797602D01*
X27913161Y11863389D01*
X27922727Y11874118D01*
X29564427Y13515817D01*
X29626737Y13549840D01*
X29697553Y13544775D01*
X29754388Y13502228D01*
X29779199Y13435708D01*
X29779520Y13426719D01*
X29779520Y4769491D01*
X29803064Y4681626D01*
X29803066Y4681621D01*
X29823121Y4646885D01*
X29848551Y4602838D01*
X30192596Y4258793D01*
X30226620Y4196482D01*
X30229500Y4169699D01*
X30229500Y4121472D01*
X30264970Y3989098D01*
X30333494Y3870410D01*
X30333502Y3870400D01*
X30430399Y3773503D01*
X30430404Y3773499D01*
X30430406Y3773497D01*
X30430407Y3773496D01*
X30430409Y3773495D01*
X30549097Y3704971D01*
X30681471Y3669501D01*
X30681475Y3669500D01*
X30818525Y3669500D01*
X30884715Y3687236D01*
X30950902Y3704971D01*
X30950902Y3704972D01*
X30950905Y3704972D01*
X31069594Y3773497D01*
X31166503Y3870406D01*
X31235028Y3989095D01*
X31270500Y4121475D01*
X31270500Y4245613D01*
X31290502Y4313734D01*
X31344158Y4360227D01*
X31414432Y4370331D01*
X31440525Y4363671D01*
X31448960Y4360525D01*
X31505000Y4354500D01*
X31505004Y4354500D01*
X32494996Y4354500D01*
X32495000Y4354500D01*
X32551040Y4360525D01*
X32677805Y4407806D01*
X32786115Y4488885D01*
X32867194Y4597195D01*
X32914475Y4723960D01*
X32920500Y4780000D01*
X32920500Y4792199D01*
X32940502Y4860320D01*
X32957405Y4881294D01*
X33364405Y5288294D01*
X33426717Y5322320D01*
X33497532Y5317255D01*
X33554368Y5274708D01*
X33579179Y5208188D01*
X33579500Y5199199D01*
X33579500Y4779993D01*
X33583281Y4744832D01*
X33585525Y4723960D01*
X33632806Y4597195D01*
X33632807Y4597194D01*
X33713884Y4488885D01*
X33822196Y4407805D01*
X33862532Y4392761D01*
X33919368Y4350215D01*
X33944179Y4283695D01*
X33944500Y4274705D01*
X33944500Y3192595D01*
X33924498Y3124474D01*
X33870842Y3077981D01*
X33857439Y3072763D01*
X33821497Y3061084D01*
X33821491Y3061082D01*
X33821489Y3061082D01*
X33821489Y3061081D01*
X33650315Y2973863D01*
X33494895Y2860943D01*
X33494892Y2860941D01*
X33359059Y2725108D01*
X33359057Y2725105D01*
X33246135Y2569682D01*
X33208765Y2496340D01*
X33160017Y2444725D01*
X33091102Y2427660D01*
X33023900Y2450561D01*
X32979748Y2506159D01*
X32970499Y2553544D01*
X32970499Y2951715D01*
X32970499Y2951718D01*
X32957707Y3016035D01*
X32957707Y3016036D01*
X32908972Y3088973D01*
X32836035Y3137707D01*
X32836034Y3137708D01*
X32771721Y3150500D01*
X30728285Y3150500D01*
X30728280Y3150499D01*
X30663964Y3137708D01*
X30591027Y3088973D01*
X30542293Y3016036D01*
X30542292Y3016035D01*
X30529500Y2951725D01*
X30529500Y2401500D01*
X30509498Y2333379D01*
X30455842Y2286886D01*
X30403500Y2275500D01*
X23645301Y2275500D01*
X23577180Y2295502D01*
X23556206Y2312405D01*
X20882405Y4986206D01*
X20867460Y5013575D01*
X20850604Y5039803D01*
X20849698Y5046102D01*
X20848379Y5048518D01*
X20845500Y5075301D01*
X20845500Y6330179D01*
X25460000Y6330179D01*
X25460000Y6109822D01*
X25494474Y5892161D01*
X25562567Y5682592D01*
X25562570Y5682586D01*
X25662615Y5486237D01*
X25708931Y5422487D01*
X25708933Y5422487D01*
X26422352Y6135906D01*
X26445792Y6048429D01*
X26504311Y5947070D01*
X26587070Y5864311D01*
X26688429Y5805792D01*
X26775905Y5782353D01*
X26062485Y5068934D01*
X26126240Y5022614D01*
X26126241Y5022613D01*
X26322585Y4922571D01*
X26322591Y4922568D01*
X26532162Y4854475D01*
X26532158Y4854475D01*
X26749821Y4820000D01*
X26970179Y4820000D01*
X27187839Y4854475D01*
X27397408Y4922568D01*
X27397414Y4922571D01*
X27593763Y5022616D01*
X27657513Y5068933D01*
X27657513Y5068935D01*
X26944095Y5782353D01*
X27031571Y5805792D01*
X27132930Y5864311D01*
X27215689Y5947070D01*
X27274208Y6048429D01*
X27297647Y6135905D01*
X28011065Y5422487D01*
X28011067Y5422487D01*
X28057384Y5486237D01*
X28157429Y5682586D01*
X28157432Y5682592D01*
X28225525Y5892161D01*
X28260000Y6109822D01*
X28260000Y6330179D01*
X28225525Y6547840D01*
X28157432Y6757409D01*
X28157429Y6757415D01*
X28057387Y6953759D01*
X28057386Y6953760D01*
X28011066Y7017515D01*
X27297647Y6304096D01*
X27274208Y6391571D01*
X27215689Y6492930D01*
X27132930Y6575689D01*
X27031571Y6634208D01*
X26944094Y6657648D01*
X27657513Y7371067D01*
X27657513Y7371069D01*
X27593763Y7417385D01*
X27397414Y7517430D01*
X27397407Y7517433D01*
X27376532Y7524216D01*
X27317927Y7564291D01*
X27290292Y7629688D01*
X27302400Y7699644D01*
X27350407Y7751949D01*
X27358246Y7756303D01*
X27447270Y7801662D01*
X27589957Y7905330D01*
X27714670Y8030043D01*
X27818338Y8172730D01*
X27898408Y8329877D01*
X27952910Y8497616D01*
X27980500Y8671815D01*
X27980500Y8848185D01*
X27952910Y9022384D01*
X27898408Y9190123D01*
X27818338Y9347270D01*
X27714670Y9489957D01*
X27714667Y9489960D01*
X27714665Y9489963D01*
X27589962Y9614666D01*
X27589959Y9614668D01*
X27589957Y9614670D01*
X27447270Y9718338D01*
X27290123Y9798408D01*
X27122384Y9852910D01*
X26948185Y9880500D01*
X26771815Y9880500D01*
X26597616Y9852910D01*
X26597613Y9852910D01*
X26597612Y9852909D01*
X26538143Y9833586D01*
X26429877Y9798408D01*
X26429875Y9798408D01*
X26429875Y9798407D01*
X26272726Y9718336D01*
X26130040Y9614668D01*
X26130037Y9614666D01*
X26005334Y9489963D01*
X26005332Y9489960D01*
X25901664Y9347274D01*
X25847861Y9241679D01*
X25821592Y9190123D01*
X25767090Y9022384D01*
X25739500Y8848185D01*
X25739500Y8671815D01*
X25767090Y8497616D01*
X25821592Y8329877D01*
X25901662Y8172730D01*
X26005330Y8030043D01*
X26005332Y8030041D01*
X26005334Y8030038D01*
X26130037Y7905335D01*
X26130040Y7905333D01*
X26130043Y7905330D01*
X26272730Y7801662D01*
X26361731Y7756314D01*
X26413346Y7707567D01*
X26430412Y7638653D01*
X26407512Y7571451D01*
X26351915Y7527298D01*
X26343468Y7524216D01*
X26322589Y7517432D01*
X26322585Y7517430D01*
X26126243Y7417389D01*
X26062485Y7371068D01*
X26775905Y6657648D01*
X26688429Y6634208D01*
X26587070Y6575689D01*
X26504311Y6492930D01*
X26445792Y6391571D01*
X26422352Y6304095D01*
X25708932Y7017515D01*
X25662611Y6953757D01*
X25562570Y6757415D01*
X25562567Y6757409D01*
X25494474Y6547840D01*
X25460000Y6330179D01*
X20845500Y6330179D01*
X20845500Y8728500D01*
X20865502Y8796621D01*
X20919158Y8843114D01*
X20971500Y8854500D01*
X20994996Y8854500D01*
X20995000Y8854500D01*
X21051040Y8860525D01*
X21177805Y8907806D01*
X21286115Y8988885D01*
X21367194Y9097195D01*
X21414475Y9223960D01*
X21420500Y9280000D01*
X21420500Y9895000D01*
X21414475Y9951040D01*
X21367194Y10077805D01*
X21293601Y10176115D01*
X21286115Y10186116D01*
X21191165Y10257193D01*
X21177805Y10267194D01*
X21051040Y10314475D01*
X21038586Y10315814D01*
X20995007Y10320500D01*
X20995000Y10320500D01*
X20005000Y10320500D01*
X20004992Y10320500D01*
X19955186Y10315145D01*
X19948960Y10314475D01*
X19822195Y10267194D01*
X19822194Y10267194D01*
X19822193Y10267193D01*
X19713884Y10186116D01*
X19632805Y10077804D01*
X19609368Y10014967D01*
X19595884Y9996956D01*
X19586537Y9976488D01*
X19575024Y9969090D01*
X19566821Y9958131D01*
X19545737Y9950268D01*
X19526811Y9938104D01*
X19504539Y9934902D01*
X19500301Y9933321D01*
X19491313Y9933000D01*
X19294957Y9933000D01*
X19226836Y9953002D01*
X19180343Y10006658D01*
X19176902Y10014967D01*
X19157194Y10067804D01*
X19157194Y10067805D01*
X19109532Y10131475D01*
X19076115Y10176116D01*
X18967806Y10257193D01*
X18967805Y10257194D01*
X18841040Y10304475D01*
X18828586Y10305814D01*
X18785007Y10310500D01*
X18785000Y10310500D01*
X17795000Y10310500D01*
X17794992Y10310500D01*
X17745186Y10305145D01*
X17738960Y10304475D01*
X17612195Y10257194D01*
X17612194Y10257194D01*
X17612193Y10257193D01*
X17503884Y10176116D01*
X17422805Y10067804D01*
X17399368Y10004967D01*
X17356821Y9948131D01*
X17290301Y9923321D01*
X17281313Y9923000D01*
X15467801Y9923000D01*
X15399680Y9943002D01*
X15378706Y9959905D01*
X12544905Y12793706D01*
X12510879Y12856018D01*
X12508000Y12882801D01*
X12508000Y17891314D01*
X12528002Y17959435D01*
X12581658Y18005928D01*
X12589942Y18009360D01*
X12652805Y18032806D01*
X12761115Y18113885D01*
X12842194Y18222195D01*
X12889475Y18348960D01*
X12895500Y18405000D01*
X12895500Y19395000D01*
X12889475Y19451040D01*
X12842194Y19577805D01*
X12809614Y19621327D01*
X12761115Y19686116D01*
X12652806Y19767193D01*
X12652805Y19767194D01*
X12526040Y19814475D01*
X12513586Y19815814D01*
X12470007Y19820500D01*
X12470000Y19820500D01*
X11855000Y19820500D01*
X11854992Y19820500D01*
X11805186Y19815145D01*
X11798960Y19814475D01*
X11672195Y19767194D01*
X11672194Y19767194D01*
X11672193Y19767193D01*
X11563884Y19686116D01*
X11482807Y19577807D01*
X11482806Y19577805D01*
X11441064Y19465889D01*
X11435525Y19451039D01*
X11429500Y19395008D01*
X11429500Y18404993D01*
X11434186Y18361414D01*
X11435525Y18348960D01*
X11482806Y18222195D01*
X11482807Y18222194D01*
X11563884Y18113885D01*
X11644963Y18053192D01*
X11672195Y18032806D01*
X11735034Y18009368D01*
X11791868Y17966824D01*
X11816679Y17900303D01*
X11817000Y17891314D01*
X11817000Y12882801D01*
X11796998Y12814680D01*
X11780095Y12793706D01*
X8128794Y9142405D01*
X8066482Y9108379D01*
X8039699Y9105500D01*
X5157448Y9105500D01*
X5089327Y9125502D01*
X5042834Y9179158D01*
X5040340Y9185564D01*
X5040303Y9185548D01*
X5038409Y9190119D01*
X5038408Y9190123D01*
X4958338Y9347270D01*
X4854670Y9489957D01*
X4854667Y9489960D01*
X4854665Y9489963D01*
X4729962Y9614666D01*
X4729959Y9614668D01*
X4729957Y9614670D01*
X4587270Y9718338D01*
X4430123Y9798408D01*
X4262384Y9852910D01*
X4088185Y9880500D01*
X3911815Y9880500D01*
X3737616Y9852910D01*
X3737613Y9852910D01*
X3737612Y9852909D01*
X3678143Y9833586D01*
X3569877Y9798408D01*
X3569875Y9798408D01*
X3569875Y9798407D01*
X3412726Y9718336D01*
X3270040Y9614668D01*
X3270037Y9614666D01*
X3145334Y9489963D01*
X3145332Y9489960D01*
X3041664Y9347274D01*
X2987861Y9241679D01*
X2961592Y9190123D01*
X2907090Y9022384D01*
X2879500Y8848185D01*
X2879500Y8671815D01*
X2907090Y8497616D01*
X2961592Y8329877D01*
X3041662Y8172730D01*
X3145330Y8030043D01*
X3145332Y8030041D01*
X3145334Y8030038D01*
X3270037Y7905335D01*
X3270040Y7905333D01*
X3270043Y7905330D01*
X3412730Y7801662D01*
X3501731Y7756314D01*
X3553346Y7707567D01*
X3570412Y7638653D01*
X3547512Y7571451D01*
X3491915Y7527298D01*
X3483468Y7524216D01*
X3462589Y7517432D01*
X3462585Y7517430D01*
X3266243Y7417389D01*
X3202485Y7371068D01*
X3915905Y6657648D01*
X3828429Y6634208D01*
X3727070Y6575689D01*
X3644311Y6492930D01*
X3585792Y6391571D01*
X3562352Y6304095D01*
X2848932Y7017515D01*
X2802611Y6953757D01*
X2702570Y6757415D01*
X2702567Y6757409D01*
X2634474Y6547840D01*
X2600000Y6330179D01*
X2600000Y6109822D01*
X2634474Y5892161D01*
X2702567Y5682592D01*
X2702570Y5682586D01*
X2802615Y5486237D01*
X2848931Y5422487D01*
X2848933Y5422487D01*
X3562352Y6135906D01*
X3585792Y6048429D01*
X3644311Y5947070D01*
X3727070Y5864311D01*
X3828429Y5805792D01*
X3915905Y5782353D01*
X3202485Y5068934D01*
X3266240Y5022614D01*
X3266241Y5022613D01*
X3462585Y4922571D01*
X3462591Y4922568D01*
X3672162Y4854475D01*
X3672158Y4854475D01*
X3889821Y4820000D01*
X4110179Y4820000D01*
X4327839Y4854475D01*
X4537408Y4922568D01*
X4537414Y4922571D01*
X4733763Y5022616D01*
X4797513Y5068933D01*
X4797513Y5068935D01*
X4084095Y5782353D01*
X4171571Y5805792D01*
X4272930Y5864311D01*
X4355689Y5947070D01*
X4414208Y6048429D01*
X4437647Y6135905D01*
X5151065Y5422487D01*
X5151067Y5422487D01*
X5197384Y5486237D01*
X5297429Y5682586D01*
X5297432Y5682592D01*
X5365525Y5892161D01*
X5400000Y6109822D01*
X5400000Y6330179D01*
X5365525Y6547840D01*
X5297432Y6757409D01*
X5297429Y6757415D01*
X5197387Y6953759D01*
X5197386Y6953760D01*
X5151066Y7017515D01*
X4437647Y6304096D01*
X4414208Y6391571D01*
X4355689Y6492930D01*
X4272930Y6575689D01*
X4171571Y6634208D01*
X4084094Y6657648D01*
X4797513Y7371067D01*
X4797513Y7371069D01*
X4733763Y7417385D01*
X4537414Y7517430D01*
X4537407Y7517433D01*
X4516532Y7524216D01*
X4457927Y7564291D01*
X4430292Y7629688D01*
X4442400Y7699644D01*
X4490407Y7751949D01*
X4498246Y7756303D01*
X4587270Y7801662D01*
X4729957Y7905330D01*
X4854670Y8030043D01*
X4958338Y8172730D01*
X5038408Y8329877D01*
X5038411Y8329889D01*
X5040303Y8334452D01*
X5041945Y8333772D01*
X5077692Y8386044D01*
X5143089Y8413679D01*
X5157448Y8414500D01*
X8280486Y8414500D01*
X8368358Y8438046D01*
X8447142Y8483531D01*
X12073406Y12109796D01*
X12135716Y12143819D01*
X12206531Y12138755D01*
X12251594Y12109794D01*
X15060350Y9301038D01*
X15060353Y9301036D01*
X15060358Y9301031D01*
X15139142Y9255546D01*
X15139143Y9255546D01*
X15139145Y9255545D01*
X15220453Y9233758D01*
X15227014Y9232000D01*
X15317986Y9232000D01*
X17281313Y9232000D01*
X17349434Y9211998D01*
X17395927Y9158342D01*
X17399368Y9150033D01*
X17422805Y9087197D01*
X17503884Y8978885D01*
X17537122Y8954004D01*
X17612195Y8897806D01*
X17738960Y8850525D01*
X17795000Y8844500D01*
X17795004Y8844500D01*
X18784996Y8844500D01*
X18785000Y8844500D01*
X18841040Y8850525D01*
X18967805Y8897806D01*
X19076115Y8978885D01*
X19157194Y9087195D01*
X19171482Y9125502D01*
X19184362Y9160033D01*
X19197845Y9178045D01*
X19207193Y9198512D01*
X19218705Y9205911D01*
X19226909Y9216869D01*
X19247992Y9224733D01*
X19266919Y9236896D01*
X19289190Y9240099D01*
X19293429Y9241679D01*
X19302417Y9242000D01*
X19491313Y9242000D01*
X19559434Y9221998D01*
X19605927Y9168342D01*
X19609368Y9160033D01*
X19629708Y9105500D01*
X19632806Y9097195D01*
X19640292Y9087195D01*
X19713884Y8988885D01*
X19760481Y8954004D01*
X19822195Y8907806D01*
X19948960Y8860525D01*
X20005000Y8854500D01*
X20028500Y8854500D01*
X20096621Y8834498D01*
X20143114Y8780842D01*
X20154500Y8728500D01*
X20154500Y4834511D01*
X20178044Y4746646D01*
X20178046Y4746641D01*
X20187364Y4730502D01*
X20223531Y4667858D01*
X20223534Y4667855D01*
X20223537Y4667851D01*
X23237850Y1653538D01*
X23237853Y1653536D01*
X23237858Y1653531D01*
X23316642Y1608046D01*
X23316643Y1608046D01*
X23316645Y1608045D01*
X23404510Y1584501D01*
X23404514Y1584500D01*
X23495486Y1584500D01*
X30403501Y1584500D01*
X30471622Y1564498D01*
X30518115Y1510842D01*
X30529501Y1458500D01*
X30529501Y908281D01*
X30542292Y843965D01*
X30591027Y771028D01*
X30638131Y739555D01*
X30663965Y722293D01*
X30728281Y709500D01*
X32771718Y709501D01*
X32836035Y722293D01*
X32908972Y771028D01*
X32957707Y843965D01*
X32970500Y908281D01*
X32970499Y1306459D01*
X32990501Y1374576D01*
X33044156Y1421070D01*
X33114430Y1431174D01*
X33179011Y1401681D01*
X33208765Y1363660D01*
X33237913Y1306456D01*
X33246135Y1290319D01*
X33359055Y1134898D01*
X33359057Y1134896D01*
X33359059Y1134893D01*
X33494892Y999060D01*
X33494895Y999058D01*
X33494898Y999055D01*
X33650319Y886135D01*
X33821491Y798918D01*
X34004193Y739555D01*
X34004194Y739555D01*
X34004199Y739553D01*
X34193945Y709500D01*
X34193948Y709500D01*
X34386052Y709500D01*
X34386055Y709500D01*
X34575801Y739553D01*
X34758509Y798918D01*
X34929681Y886135D01*
X35085102Y999055D01*
X35220945Y1134898D01*
X35294465Y1236091D01*
X35350686Y1279443D01*
X35421422Y1285518D01*
X35484214Y1252387D01*
X35508667Y1219231D01*
X35547086Y1143828D01*
X35607340Y1060895D01*
X35607341Y1060895D01*
X36347037Y1800591D01*
X36364075Y1737007D01*
X36429901Y1622993D01*
X36522993Y1529901D01*
X36637007Y1464075D01*
X36700590Y1447038D01*
X35960893Y707342D01*
X36043830Y647086D01*
X36043830Y647085D01*
X36254201Y539896D01*
X36478745Y466937D01*
X36711950Y430000D01*
X36948050Y430000D01*
X37181254Y466937D01*
X37405798Y539896D01*
X37616174Y647088D01*
X37699105Y707341D01*
X37699105Y707343D01*
X36959410Y1447038D01*
X37022993Y1464075D01*
X37137007Y1529901D01*
X37230099Y1622993D01*
X37295925Y1737007D01*
X37312962Y1800590D01*
X38052657Y1060895D01*
X38052659Y1060895D01*
X38112912Y1143826D01*
X38151331Y1219229D01*
X38200078Y1270845D01*
X38268993Y1287912D01*
X38336195Y1265013D01*
X38365535Y1236089D01*
X38439056Y1134896D01*
X38574892Y999060D01*
X38574895Y999058D01*
X38574898Y999055D01*
X38730319Y886135D01*
X38901491Y798918D01*
X39084193Y739555D01*
X39084194Y739555D01*
X39084199Y739553D01*
X39273945Y709500D01*
X39273948Y709500D01*
X39466052Y709500D01*
X39466055Y709500D01*
X39655801Y739553D01*
X39838509Y798918D01*
X40009681Y886135D01*
X40165102Y999055D01*
X40300945Y1134898D01*
X40413865Y1290319D01*
X40501082Y1461491D01*
X40520167Y1520231D01*
X40560240Y1578836D01*
X40625637Y1606473D01*
X40695594Y1594366D01*
X40747900Y1546360D01*
X40759831Y1520233D01*
X40778918Y1461491D01*
X40866135Y1290319D01*
X40979055Y1134898D01*
X40979057Y1134896D01*
X40979059Y1134893D01*
X41114892Y999060D01*
X41114895Y999058D01*
X41114898Y999055D01*
X41270319Y886135D01*
X41441491Y798918D01*
X41624193Y739555D01*
X41624194Y739555D01*
X41624199Y739553D01*
X41813945Y709500D01*
X41813948Y709500D01*
X42006052Y709500D01*
X42006055Y709500D01*
X42195801Y739553D01*
X42378509Y798918D01*
X42549681Y886135D01*
X42705102Y999055D01*
X42840945Y1134898D01*
X42953865Y1290319D01*
X43041082Y1461491D01*
X43100447Y1644199D01*
X43130500Y1833945D01*
X43130500Y2026055D01*
X43100447Y2215801D01*
X43041082Y2398509D01*
X42953865Y2569681D01*
X42840945Y2725102D01*
X42840942Y2725105D01*
X42840940Y2725108D01*
X42705107Y2860941D01*
X42705104Y2860943D01*
X42705102Y2860945D01*
X42549681Y2973865D01*
X42378509Y3061082D01*
X42369325Y3064066D01*
X42342561Y3072763D01*
X42283956Y3112838D01*
X42256321Y3178235D01*
X42255500Y3192595D01*
X42255500Y4228500D01*
X42275502Y4296621D01*
X42329158Y4343114D01*
X42381500Y4354500D01*
X42494996Y4354500D01*
X42495000Y4354500D01*
X42551040Y4360525D01*
X42677805Y4407806D01*
X42786115Y4488885D01*
X42867194Y4597195D01*
X42914475Y4723960D01*
X42920500Y4780000D01*
X42920500Y5395000D01*
X42914475Y5451040D01*
X42867194Y5577805D01*
X42829585Y5628045D01*
X42786115Y5686116D01*
X42677806Y5767193D01*
X42677805Y5767194D01*
X42551040Y5814475D01*
X42538586Y5815814D01*
X42495007Y5820500D01*
X42495000Y5820500D01*
X41505000Y5820500D01*
X41504992Y5820500D01*
X41455186Y5815145D01*
X41448960Y5814475D01*
X41322195Y5767194D01*
X41322194Y5767194D01*
X41322193Y5767193D01*
X41213884Y5686116D01*
X41132807Y5577807D01*
X41085525Y5451039D01*
X41079500Y5395008D01*
X41079500Y4779993D01*
X41083281Y4744832D01*
X41085525Y4723960D01*
X41132806Y4597195D01*
X41132807Y4597194D01*
X41213884Y4488885D01*
X41278673Y4440386D01*
X41322195Y4407806D01*
X41448960Y4360525D01*
X41451969Y4360202D01*
X41454146Y4359300D01*
X41456629Y4358713D01*
X41456533Y4358311D01*
X41517561Y4333033D01*
X41558052Y4274715D01*
X41564500Y4234924D01*
X41564500Y3192595D01*
X41544498Y3124474D01*
X41490842Y3077981D01*
X41477439Y3072763D01*
X41441497Y3061084D01*
X41441491Y3061082D01*
X41441489Y3061082D01*
X41441489Y3061081D01*
X41270315Y2973863D01*
X41114895Y2860943D01*
X41114892Y2860941D01*
X40979059Y2725108D01*
X40979057Y2725105D01*
X40866137Y2569685D01*
X40778919Y2398511D01*
X40778916Y2398505D01*
X40759833Y2339771D01*
X40719759Y2281165D01*
X40654363Y2253528D01*
X40584406Y2265635D01*
X40532100Y2313641D01*
X40520167Y2339771D01*
X40506587Y2381567D01*
X40501082Y2398509D01*
X40413865Y2569681D01*
X40300945Y2725102D01*
X40300942Y2725105D01*
X40300940Y2725108D01*
X40165107Y2860941D01*
X40165104Y2860943D01*
X40165102Y2860945D01*
X40009681Y2973865D01*
X39914296Y3022467D01*
X39862681Y3071215D01*
X39845500Y3134733D01*
X39845500Y4228500D01*
X39865502Y4296621D01*
X39919158Y4343114D01*
X39971500Y4354500D01*
X39994996Y4354500D01*
X39995000Y4354500D01*
X40051040Y4360525D01*
X40177805Y4407806D01*
X40286115Y4488885D01*
X40367194Y4597195D01*
X40414475Y4723960D01*
X40420500Y4780000D01*
X40420500Y5395000D01*
X40414475Y5451040D01*
X40367194Y5577805D01*
X40329585Y5628045D01*
X40286115Y5686116D01*
X40177806Y5767193D01*
X40177805Y5767194D01*
X40051040Y5814475D01*
X40038586Y5815814D01*
X39995007Y5820500D01*
X39995000Y5820500D01*
X39200802Y5820500D01*
X39179214Y5826839D01*
X39156770Y5828444D01*
X39145813Y5836646D01*
X39132681Y5840502D01*
X39117945Y5857508D01*
X39099934Y5870991D01*
X39095151Y5883814D01*
X39086188Y5894158D01*
X39082985Y5916431D01*
X39075123Y5937511D01*
X39078031Y5950884D01*
X39076084Y5964432D01*
X39085431Y5984899D01*
X39090214Y6006885D01*
X39103699Y6024899D01*
X39105578Y6029012D01*
X39111707Y6035595D01*
X39218707Y6142595D01*
X39281019Y6176621D01*
X39307802Y6179500D01*
X39994996Y6179500D01*
X39995000Y6179500D01*
X40051040Y6185525D01*
X40177805Y6232806D01*
X40286115Y6313885D01*
X40367194Y6422195D01*
X40414475Y6548960D01*
X40420500Y6605000D01*
X40420500Y7220000D01*
X40414475Y7276040D01*
X40367194Y7402805D01*
X40330304Y7452085D01*
X40286115Y7511116D01*
X40177806Y7592193D01*
X40177805Y7592194D01*
X40051040Y7639475D01*
X40038586Y7640814D01*
X39995007Y7645500D01*
X39995000Y7645500D01*
X39971500Y7645500D01*
X39903379Y7665502D01*
X39856886Y7719158D01*
X39845500Y7771500D01*
X39845500Y8811956D01*
X39845499Y8811960D01*
X39821955Y8899825D01*
X39821953Y8899830D01*
X39816579Y8909137D01*
X39776469Y8978612D01*
X39712142Y9042939D01*
X31407445Y17347636D01*
X31373419Y17409948D01*
X31370540Y17436731D01*
X31370540Y28843529D01*
X36554500Y28843529D01*
X36554500Y28706472D01*
X36589970Y28574098D01*
X36658494Y28455410D01*
X36658502Y28455400D01*
X36755399Y28358503D01*
X36755404Y28358499D01*
X36755406Y28358497D01*
X36755407Y28358496D01*
X36755409Y28358495D01*
X36823079Y28319426D01*
X36865980Y28294657D01*
X36874097Y28289971D01*
X37006471Y28254501D01*
X37006475Y28254500D01*
X37078500Y28254500D01*
X37146621Y28234498D01*
X37193114Y28180842D01*
X37204500Y28128500D01*
X37204500Y28106472D01*
X37239970Y27974098D01*
X37308494Y27855410D01*
X37308502Y27855400D01*
X37405399Y27758503D01*
X37405404Y27758499D01*
X37405406Y27758497D01*
X37405407Y27758496D01*
X37405409Y27758495D01*
X37524097Y27689971D01*
X37656471Y27654501D01*
X37656475Y27654500D01*
X37793525Y27654500D01*
X37859715Y27672236D01*
X37925902Y27689971D01*
X37925902Y27689972D01*
X37925905Y27689972D01*
X38044594Y27758497D01*
X38141503Y27855406D01*
X38191209Y27941501D01*
X38242591Y27990493D01*
X38300328Y28004500D01*
X39145486Y28004500D01*
X39233358Y28028046D01*
X39312142Y28073531D01*
X43926469Y32687858D01*
X43955843Y32738737D01*
X43971954Y32766642D01*
X43995500Y32854514D01*
X43995500Y42804699D01*
X44004283Y42834615D01*
X44010912Y42865084D01*
X44014726Y42870180D01*
X44015502Y42872820D01*
X44032405Y42893794D01*
X44081206Y42942595D01*
X44143518Y42976621D01*
X44170301Y42979500D01*
X44218525Y42979500D01*
X44315310Y43005434D01*
X44350902Y43014971D01*
X44350902Y43014972D01*
X44350905Y43014972D01*
X44469594Y43083497D01*
X44566503Y43180406D01*
X44635028Y43299095D01*
X44638080Y43310483D01*
X44656019Y43377433D01*
X44670500Y43431475D01*
X44670500Y43568525D01*
X44668765Y43575001D01*
X44635029Y43700903D01*
X44618517Y43729502D01*
X44589383Y43779965D01*
X44566505Y43819591D01*
X44566497Y43819601D01*
X44469600Y43916498D01*
X44469590Y43916506D01*
X44350902Y43985030D01*
X44218528Y44020500D01*
X44218525Y44020500D01*
X44081475Y44020500D01*
X44081471Y44020500D01*
X43949097Y43985030D01*
X43830409Y43916506D01*
X43830399Y43916498D01*
X43760595Y43846693D01*
X43698283Y43812667D01*
X43627468Y43817732D01*
X43570632Y43860279D01*
X43545821Y43926799D01*
X43545500Y43935788D01*
X43545500Y44404699D01*
X43565502Y44472820D01*
X43582405Y44493794D01*
X44031206Y44942595D01*
X44093518Y44976621D01*
X44120301Y44979500D01*
X44168525Y44979500D01*
X44254050Y45002417D01*
X44300902Y45014971D01*
X44300902Y45014972D01*
X44300905Y45014972D01*
X44419594Y45083497D01*
X44516503Y45180406D01*
X44585028Y45299095D01*
X44620500Y45431475D01*
X44620500Y45568525D01*
X44613641Y45594123D01*
X44585029Y45700903D01*
X44578202Y45712727D01*
X44527293Y45800905D01*
X44516505Y45819591D01*
X44516497Y45819601D01*
X44419600Y45916498D01*
X44419590Y45916506D01*
X44300902Y45985030D01*
X44168528Y46020500D01*
X44168525Y46020500D01*
X44031475Y46020500D01*
X44031471Y46020500D01*
X43899097Y45985030D01*
X43780409Y45916506D01*
X43780399Y45916498D01*
X43683502Y45819601D01*
X43683494Y45819591D01*
X43614970Y45700903D01*
X43579500Y45568529D01*
X43579500Y45520301D01*
X43559498Y45452180D01*
X43542595Y45431206D01*
X42987858Y44876469D01*
X42964128Y44852739D01*
X42923534Y44812146D01*
X42923530Y44812140D01*
X42878046Y44733360D01*
X42878044Y44733355D01*
X42854500Y44645490D01*
X42854500Y33281697D01*
X42834498Y33213576D01*
X42817595Y33192602D01*
X38857398Y29232405D01*
X38795086Y29198379D01*
X38768303Y29195500D01*
X38453606Y29195500D01*
X38385485Y29215502D01*
X38338992Y29269158D01*
X38328888Y29339432D01*
X38358382Y29404012D01*
X38364511Y29410595D01*
X38402626Y29448710D01*
X38471512Y29517596D01*
X38588665Y29692928D01*
X38669362Y29887747D01*
X38710500Y30094565D01*
X38710500Y30305435D01*
X38709629Y30309812D01*
X38696219Y30377230D01*
X38669362Y30512253D01*
X38588665Y30707072D01*
X38471512Y30882404D01*
X38322404Y31031512D01*
X38147072Y31148665D01*
X37952253Y31229362D01*
X37893162Y31241116D01*
X37745440Y31270500D01*
X37745435Y31270500D01*
X37534565Y31270500D01*
X37534559Y31270500D01*
X37357292Y31235239D01*
X37327747Y31229362D01*
X37327744Y31229362D01*
X37327741Y31229360D01*
X37132928Y31148665D01*
X36957600Y31031515D01*
X36957593Y31031510D01*
X36808490Y30882407D01*
X36808485Y30882400D01*
X36691335Y30707072D01*
X36610640Y30512259D01*
X36610638Y30512252D01*
X36569500Y30305441D01*
X36569500Y30094560D01*
X36598148Y29950537D01*
X36610638Y29887747D01*
X36691335Y29692928D01*
X36808488Y29517596D01*
X36877374Y29448710D01*
X36879682Y29446402D01*
X36913707Y29384089D01*
X36908641Y29313274D01*
X36866094Y29256438D01*
X36853586Y29248188D01*
X36755409Y29191506D01*
X36755399Y29191498D01*
X36658502Y29094601D01*
X36658494Y29094591D01*
X36589970Y28975903D01*
X36554500Y28843529D01*
X31370540Y28843529D01*
X31370540Y30305441D01*
X34029500Y30305441D01*
X34029500Y30094560D01*
X34058148Y29950537D01*
X34070638Y29887747D01*
X34151335Y29692928D01*
X34268488Y29517596D01*
X34417596Y29368488D01*
X34592928Y29251335D01*
X34787747Y29170638D01*
X34965824Y29135217D01*
X34994559Y29129501D01*
X34994562Y29129501D01*
X34994565Y29129500D01*
X34994566Y29129500D01*
X35205434Y29129500D01*
X35205435Y29129500D01*
X35412253Y29170638D01*
X35607072Y29251335D01*
X35782404Y29368488D01*
X35931512Y29517596D01*
X36048665Y29692928D01*
X36129362Y29887747D01*
X36170500Y30094565D01*
X36170500Y30305435D01*
X36169629Y30309812D01*
X36156219Y30377230D01*
X36129362Y30512253D01*
X36048665Y30707072D01*
X35931512Y30882404D01*
X35782404Y31031512D01*
X35607072Y31148665D01*
X35412253Y31229362D01*
X35353162Y31241116D01*
X35205440Y31270500D01*
X35205435Y31270500D01*
X34994565Y31270500D01*
X34994559Y31270500D01*
X34817292Y31235239D01*
X34787747Y31229362D01*
X34787744Y31229362D01*
X34787741Y31229360D01*
X34592928Y31148665D01*
X34417600Y31031515D01*
X34417593Y31031510D01*
X34268490Y30882407D01*
X34268485Y30882400D01*
X34151335Y30707072D01*
X34070640Y30512259D01*
X34070638Y30512252D01*
X34029500Y30305441D01*
X31370540Y30305441D01*
X31370540Y31464677D01*
X31390542Y31532798D01*
X31433540Y31573796D01*
X31485487Y31603789D01*
X31519624Y31623497D01*
X31616533Y31720406D01*
X31685058Y31839095D01*
X31720530Y31971475D01*
X31720530Y32108525D01*
X31714256Y32131940D01*
X31685059Y32240903D01*
X31616535Y32359591D01*
X31616527Y32359601D01*
X31519630Y32456498D01*
X31519620Y32456506D01*
X31400932Y32525030D01*
X31268558Y32560500D01*
X31268555Y32560500D01*
X31131505Y32560500D01*
X31103987Y32553127D01*
X31079141Y32546469D01*
X31053745Y32547074D01*
X31028598Y32543458D01*
X31018862Y32547905D01*
X31008165Y32548159D01*
X30987126Y32562399D01*
X30964018Y32572952D01*
X30958232Y32581954D01*
X30949369Y32587953D01*
X30939367Y32611308D01*
X30925634Y32632678D01*
X30923317Y32648790D01*
X30921421Y32653218D01*
X30920530Y32668176D01*
X30920530Y32845441D01*
X34029500Y32845441D01*
X34029500Y32634560D01*
X34051288Y32525028D01*
X34070638Y32427747D01*
X34151335Y32232928D01*
X34268488Y32057596D01*
X34417596Y31908488D01*
X34592928Y31791335D01*
X34787747Y31710638D01*
X34965824Y31675217D01*
X34994559Y31669501D01*
X34994562Y31669501D01*
X34994565Y31669500D01*
X34994566Y31669500D01*
X35205434Y31669500D01*
X35205435Y31669500D01*
X35412253Y31710638D01*
X35607072Y31791335D01*
X35782404Y31908488D01*
X35931512Y32057596D01*
X36048665Y32232928D01*
X36129362Y32427747D01*
X36170500Y32634565D01*
X36170500Y32845435D01*
X36170499Y32845441D01*
X36569500Y32845441D01*
X36569500Y32634560D01*
X36591288Y32525028D01*
X36610638Y32427747D01*
X36691335Y32232928D01*
X36808488Y32057596D01*
X36957596Y31908488D01*
X37132928Y31791335D01*
X37327747Y31710638D01*
X37505824Y31675217D01*
X37534559Y31669501D01*
X37534562Y31669501D01*
X37534565Y31669500D01*
X37534566Y31669500D01*
X37745434Y31669500D01*
X37745435Y31669500D01*
X37952253Y31710638D01*
X38147072Y31791335D01*
X38322404Y31908488D01*
X38471512Y32057596D01*
X38588665Y32232928D01*
X38669362Y32427747D01*
X38710500Y32634565D01*
X38710500Y32845435D01*
X38669362Y33052253D01*
X38588665Y33247072D01*
X38471512Y33422404D01*
X38322404Y33571512D01*
X38147072Y33688665D01*
X37952253Y33769362D01*
X37893162Y33781116D01*
X37745440Y33810500D01*
X37745435Y33810500D01*
X37534565Y33810500D01*
X37534559Y33810500D01*
X37357292Y33775239D01*
X37327747Y33769362D01*
X37327744Y33769362D01*
X37327741Y33769360D01*
X37132928Y33688665D01*
X36957600Y33571515D01*
X36957593Y33571510D01*
X36808490Y33422407D01*
X36808485Y33422400D01*
X36691335Y33247072D01*
X36610640Y33052259D01*
X36610638Y33052252D01*
X36569500Y32845441D01*
X36170499Y32845441D01*
X36129362Y33052253D01*
X36048665Y33247072D01*
X35931512Y33422404D01*
X35782404Y33571512D01*
X35607072Y33688665D01*
X35412253Y33769362D01*
X35353162Y33781116D01*
X35205440Y33810500D01*
X35205435Y33810500D01*
X34994565Y33810500D01*
X34994559Y33810500D01*
X34817292Y33775239D01*
X34787747Y33769362D01*
X34787744Y33769362D01*
X34787741Y33769360D01*
X34592928Y33688665D01*
X34417600Y33571515D01*
X34417593Y33571510D01*
X34268490Y33422407D01*
X34268485Y33422400D01*
X34151335Y33247072D01*
X34070640Y33052259D01*
X34070638Y33052252D01*
X34029500Y32845441D01*
X30920530Y32845441D01*
X30920530Y33914677D01*
X30940532Y33982798D01*
X30983530Y34023796D01*
X31035477Y34053789D01*
X31069614Y34073497D01*
X31166523Y34170406D01*
X31235048Y34289095D01*
X31246367Y34331335D01*
X31270519Y34421472D01*
X31270520Y34421475D01*
X31270520Y34558525D01*
X31270519Y34558529D01*
X31235049Y34690903D01*
X31223695Y34710568D01*
X31187692Y34772929D01*
X31166525Y34809591D01*
X31166517Y34809601D01*
X31069620Y34906498D01*
X31069610Y34906506D01*
X30950922Y34975030D01*
X30818548Y35010500D01*
X30818545Y35010500D01*
X30681495Y35010500D01*
X30653977Y35003127D01*
X30629131Y34996469D01*
X30558155Y34998159D01*
X30499359Y35037953D01*
X30471411Y35103218D01*
X30470520Y35118176D01*
X30470520Y35385441D01*
X34029500Y35385441D01*
X34029500Y35174560D01*
X34046424Y35089481D01*
X34070638Y34967747D01*
X34151335Y34772928D01*
X34268488Y34597596D01*
X34417596Y34448488D01*
X34592928Y34331335D01*
X34787747Y34250638D01*
X34965824Y34215217D01*
X34994559Y34209501D01*
X34994562Y34209501D01*
X34994565Y34209500D01*
X34994566Y34209500D01*
X35205434Y34209500D01*
X35205435Y34209500D01*
X35412253Y34250638D01*
X35607072Y34331335D01*
X35782404Y34448488D01*
X35931512Y34597596D01*
X36048665Y34772928D01*
X36129362Y34967747D01*
X36170500Y35174565D01*
X36170500Y35385435D01*
X36170499Y35385441D01*
X36569500Y35385441D01*
X36569500Y35174560D01*
X36586424Y35089481D01*
X36610638Y34967747D01*
X36691335Y34772928D01*
X36808488Y34597596D01*
X36957596Y34448488D01*
X37132928Y34331335D01*
X37327747Y34250638D01*
X37505824Y34215217D01*
X37534559Y34209501D01*
X37534562Y34209501D01*
X37534565Y34209500D01*
X37534566Y34209500D01*
X37745434Y34209500D01*
X37745435Y34209500D01*
X37952253Y34250638D01*
X38147072Y34331335D01*
X38322404Y34448488D01*
X38471512Y34597596D01*
X38588665Y34772928D01*
X38669362Y34967747D01*
X38710500Y35174565D01*
X38710500Y35385435D01*
X38669362Y35592253D01*
X38588665Y35787072D01*
X38471512Y35962404D01*
X38322404Y36111512D01*
X38147072Y36228665D01*
X37967120Y36303204D01*
X37952258Y36309360D01*
X37952257Y36309361D01*
X37952253Y36309362D01*
X37893162Y36321116D01*
X37745440Y36350500D01*
X37745435Y36350500D01*
X37534565Y36350500D01*
X37534559Y36350500D01*
X37357292Y36315239D01*
X37327747Y36309362D01*
X37327744Y36309362D01*
X37327741Y36309360D01*
X37132928Y36228665D01*
X36957600Y36111515D01*
X36957593Y36111510D01*
X36808490Y35962407D01*
X36808485Y35962400D01*
X36691335Y35787072D01*
X36610640Y35592259D01*
X36610638Y35592252D01*
X36569500Y35385441D01*
X36170499Y35385441D01*
X36129362Y35592253D01*
X36048665Y35787072D01*
X35931512Y35962404D01*
X35782404Y36111512D01*
X35607072Y36228665D01*
X35427120Y36303204D01*
X35412258Y36309360D01*
X35412257Y36309361D01*
X35412253Y36309362D01*
X35353162Y36321116D01*
X35205440Y36350500D01*
X35205435Y36350500D01*
X34994565Y36350500D01*
X34994559Y36350500D01*
X34817292Y36315239D01*
X34787747Y36309362D01*
X34787744Y36309362D01*
X34787741Y36309360D01*
X34592928Y36228665D01*
X34417600Y36111515D01*
X34417593Y36111510D01*
X34268490Y35962407D01*
X34268485Y35962400D01*
X34151335Y35787072D01*
X34070640Y35592259D01*
X34070638Y35592252D01*
X34029500Y35385441D01*
X30470520Y35385441D01*
X30470520Y37925441D01*
X34029500Y37925441D01*
X34029500Y37714560D01*
X34050196Y37610518D01*
X34070638Y37507747D01*
X34151335Y37312928D01*
X34268488Y37137596D01*
X34417596Y36988488D01*
X34592928Y36871335D01*
X34787747Y36790638D01*
X34965824Y36755217D01*
X34994559Y36749501D01*
X34994562Y36749501D01*
X34994565Y36749500D01*
X34994566Y36749500D01*
X35205434Y36749500D01*
X35205435Y36749500D01*
X35412253Y36790638D01*
X35607072Y36871335D01*
X35782404Y36988488D01*
X35931512Y37137596D01*
X36048665Y37312928D01*
X36129362Y37507747D01*
X36170500Y37714565D01*
X36170500Y37925435D01*
X36170499Y37925441D01*
X36569500Y37925441D01*
X36569500Y37714560D01*
X36590196Y37610518D01*
X36610638Y37507747D01*
X36691335Y37312928D01*
X36808488Y37137596D01*
X36957596Y36988488D01*
X37132928Y36871335D01*
X37327747Y36790638D01*
X37505824Y36755217D01*
X37534559Y36749501D01*
X37534562Y36749501D01*
X37534565Y36749500D01*
X37534566Y36749500D01*
X37745434Y36749500D01*
X37745435Y36749500D01*
X37952253Y36790638D01*
X38147072Y36871335D01*
X38322404Y36988488D01*
X38471512Y37137596D01*
X38588665Y37312928D01*
X38669362Y37507747D01*
X38710500Y37714565D01*
X38710500Y37925435D01*
X38669362Y38132253D01*
X38588665Y38327072D01*
X38471512Y38502404D01*
X38322404Y38651512D01*
X38147072Y38768665D01*
X37952253Y38849362D01*
X37893162Y38861116D01*
X37745440Y38890500D01*
X37745435Y38890500D01*
X37534565Y38890500D01*
X37534559Y38890500D01*
X37381726Y38860099D01*
X37327747Y38849362D01*
X37327744Y38849362D01*
X37327741Y38849360D01*
X37132928Y38768665D01*
X36957600Y38651515D01*
X36957593Y38651510D01*
X36808490Y38502407D01*
X36808485Y38502400D01*
X36691335Y38327072D01*
X36610640Y38132259D01*
X36610638Y38132252D01*
X36569500Y37925441D01*
X36170499Y37925441D01*
X36129362Y38132253D01*
X36048665Y38327072D01*
X35931512Y38502404D01*
X35782404Y38651512D01*
X35607072Y38768665D01*
X35412253Y38849362D01*
X35353162Y38861116D01*
X35205440Y38890500D01*
X35205435Y38890500D01*
X34994565Y38890500D01*
X34994559Y38890500D01*
X34841726Y38860099D01*
X34787747Y38849362D01*
X34787744Y38849362D01*
X34787741Y38849360D01*
X34592928Y38768665D01*
X34417600Y38651515D01*
X34417593Y38651510D01*
X34268490Y38502407D01*
X34268485Y38502400D01*
X34151335Y38327072D01*
X34070640Y38132259D01*
X34070638Y38132252D01*
X34029500Y37925441D01*
X30470520Y37925441D01*
X30470520Y38641091D01*
X30490522Y38709212D01*
X30507425Y38730186D01*
X31506620Y39729381D01*
X31506627Y39729388D01*
X31552112Y39808172D01*
X31575658Y39896044D01*
X31575658Y39987016D01*
X31575658Y40465441D01*
X34029500Y40465441D01*
X34029500Y40254560D01*
X34058884Y40106838D01*
X34070638Y40047747D01*
X34070639Y40047743D01*
X34070640Y40047742D01*
X34072772Y40042595D01*
X34151335Y39852928D01*
X34268488Y39677596D01*
X34417596Y39528488D01*
X34592928Y39411335D01*
X34787747Y39330638D01*
X34965824Y39295217D01*
X34994559Y39289501D01*
X34994562Y39289501D01*
X34994565Y39289500D01*
X34994566Y39289500D01*
X35205434Y39289500D01*
X35205435Y39289500D01*
X35412253Y39330638D01*
X35607072Y39411335D01*
X35782404Y39528488D01*
X35931512Y39677596D01*
X36048665Y39852928D01*
X36129362Y40047747D01*
X36170500Y40254565D01*
X36170500Y40465435D01*
X36129362Y40672253D01*
X36048665Y40867072D01*
X35931512Y41042404D01*
X35782404Y41191512D01*
X35607072Y41308665D01*
X35412253Y41389362D01*
X35353162Y41401116D01*
X35205440Y41430500D01*
X35205435Y41430500D01*
X34994565Y41430500D01*
X34994559Y41430500D01*
X34817292Y41395239D01*
X34787747Y41389362D01*
X34787744Y41389362D01*
X34787741Y41389360D01*
X34592928Y41308665D01*
X34417600Y41191515D01*
X34417593Y41191510D01*
X34268490Y41042407D01*
X34268485Y41042400D01*
X34151335Y40867072D01*
X34075930Y40685028D01*
X34070638Y40672253D01*
X34064761Y40642708D01*
X34029500Y40465441D01*
X31575658Y40465441D01*
X31575658Y42996350D01*
X31595660Y43064471D01*
X31649316Y43110964D01*
X31669046Y43118056D01*
X31750902Y43139990D01*
X31750902Y43139991D01*
X31750905Y43139991D01*
X31869594Y43208516D01*
X31966503Y43305425D01*
X32035028Y43424114D01*
X32037001Y43431475D01*
X32063270Y43529511D01*
X32070500Y43556494D01*
X32070500Y43693544D01*
X32063917Y43718111D01*
X32035029Y43825921D01*
X32035028Y43825922D01*
X32035028Y43825924D01*
X32012177Y43865502D01*
X31995441Y43934496D01*
X32018662Y44001588D01*
X32074469Y44045475D01*
X32121298Y44054500D01*
X33952537Y44054500D01*
X34020658Y44034498D01*
X34067151Y43980842D01*
X34077255Y43910568D01*
X34057303Y43858499D01*
X34042292Y43836035D01*
X34029500Y43771725D01*
X34029500Y42028286D01*
X34029501Y42028281D01*
X34042292Y41963965D01*
X34091027Y41891028D01*
X34129230Y41865502D01*
X34163965Y41842293D01*
X34228281Y41829500D01*
X35878500Y41829501D01*
X35946621Y41809499D01*
X35993114Y41755843D01*
X36004500Y41703501D01*
X36004500Y41604511D01*
X36028044Y41516646D01*
X36028046Y41516641D01*
X36041699Y41492993D01*
X36073531Y41437858D01*
X36618032Y40893357D01*
X36652056Y40831046D01*
X36646992Y40760231D01*
X36645345Y40756046D01*
X36610641Y40672263D01*
X36610640Y40672259D01*
X36610638Y40672253D01*
X36604761Y40642708D01*
X36569500Y40465441D01*
X36569500Y40254560D01*
X36598884Y40106838D01*
X36610638Y40047747D01*
X36610639Y40047743D01*
X36610640Y40047742D01*
X36612772Y40042595D01*
X36691335Y39852928D01*
X36808488Y39677596D01*
X36957596Y39528488D01*
X37132928Y39411335D01*
X37327747Y39330638D01*
X37505824Y39295217D01*
X37534559Y39289501D01*
X37534562Y39289501D01*
X37534565Y39289500D01*
X37534566Y39289500D01*
X37745434Y39289500D01*
X37745435Y39289500D01*
X37952253Y39330638D01*
X38147072Y39411335D01*
X38322404Y39528488D01*
X38471512Y39677596D01*
X38588665Y39852928D01*
X38669362Y40047747D01*
X38710500Y40254565D01*
X38710500Y40465435D01*
X38669362Y40672253D01*
X38588665Y40867072D01*
X38471512Y41042404D01*
X38322404Y41191512D01*
X38147072Y41308665D01*
X37952253Y41389362D01*
X37893162Y41401116D01*
X37745440Y41430500D01*
X37745435Y41430500D01*
X37534565Y41430500D01*
X37534559Y41430500D01*
X37357292Y41395239D01*
X37327747Y41389362D01*
X37327745Y41389362D01*
X37327737Y41389359D01*
X37243954Y41354655D01*
X37173365Y41347066D01*
X37109878Y41378846D01*
X37106642Y41381969D01*
X36732405Y41756206D01*
X36717460Y41783575D01*
X36700604Y41809803D01*
X36699698Y41816102D01*
X36698379Y41818518D01*
X36695500Y41845301D01*
X36695500Y42026394D01*
X36715502Y42094515D01*
X36769158Y42141008D01*
X36839432Y42151112D01*
X36904012Y42121618D01*
X36910595Y42115489D01*
X36957596Y42068488D01*
X37132928Y41951335D01*
X37327747Y41870638D01*
X37501776Y41836022D01*
X37534559Y41829501D01*
X37534562Y41829501D01*
X37534565Y41829500D01*
X37534566Y41829500D01*
X37745434Y41829500D01*
X37745435Y41829500D01*
X37952253Y41870638D01*
X38147072Y41951335D01*
X38322404Y42068488D01*
X38471512Y42217596D01*
X38588665Y42392928D01*
X38669362Y42587747D01*
X38710500Y42794565D01*
X38710500Y43005435D01*
X38669362Y43212253D01*
X38588665Y43407072D01*
X38471512Y43582404D01*
X38322404Y43731512D01*
X38147072Y43848665D01*
X37952253Y43929362D01*
X37875580Y43944613D01*
X37745440Y43970500D01*
X37745435Y43970500D01*
X37534565Y43970500D01*
X37534559Y43970500D01*
X37450433Y43953766D01*
X37379719Y43960094D01*
X37336757Y43988250D01*
X36245904Y45079104D01*
X36211878Y45141416D01*
X36216943Y45212232D01*
X36245904Y45257294D01*
X37679207Y46690597D01*
X38263632Y47275022D01*
X42900001Y47275022D01*
X42910493Y47172309D01*
X42965642Y47005878D01*
X43057683Y46856656D01*
X43057688Y46856650D01*
X43181649Y46732689D01*
X43181655Y46732684D01*
X43330877Y46640643D01*
X43497308Y46585494D01*
X43600012Y46575001D01*
X43850000Y46575001D01*
X44350000Y46575001D01*
X44599978Y46575001D01*
X44702691Y46585494D01*
X44869122Y46640643D01*
X45018344Y46732684D01*
X45018350Y46732689D01*
X45142311Y46856650D01*
X45142316Y46856656D01*
X45234357Y47005878D01*
X45289506Y47172309D01*
X45299999Y47275013D01*
X45300000Y47275013D01*
X45300000Y47337500D01*
X44350000Y47337500D01*
X44350000Y46575001D01*
X43850000Y46575001D01*
X43850000Y47337500D01*
X42900001Y47337500D01*
X42900001Y47275022D01*
X38263632Y47275022D01*
X39236469Y48247858D01*
X39269459Y48305000D01*
X39281954Y48326642D01*
X39305500Y48414514D01*
X39305500Y49042552D01*
X39325502Y49110673D01*
X39379158Y49157166D01*
X39385562Y49159659D01*
X39385547Y49159696D01*
X39390117Y49161590D01*
X39390117Y49161591D01*
X39390123Y49161592D01*
X39547270Y49241662D01*
X39689957Y49345330D01*
X39814670Y49470043D01*
X39918338Y49612730D01*
X39998408Y49769877D01*
X40052910Y49937616D01*
X40080500Y50111815D01*
X40080500Y50288185D01*
X40052910Y50462384D01*
X39998408Y50630123D01*
X39918338Y50787270D01*
X39814670Y50929957D01*
X39814667Y50929960D01*
X39814665Y50929963D01*
X39689962Y51054666D01*
X39689959Y51054668D01*
X39689957Y51054670D01*
X39597664Y51121725D01*
X40379500Y51121725D01*
X40379500Y49278286D01*
X40379501Y49278281D01*
X40392292Y49213965D01*
X40441027Y49141028D01*
X40469004Y49122335D01*
X40513965Y49092293D01*
X40578281Y49079500D01*
X42178773Y49079501D01*
X42211385Y49075208D01*
X42242014Y49067000D01*
X42332986Y49067000D01*
X43091313Y49067000D01*
X43159434Y49046998D01*
X43205927Y48993342D01*
X43209368Y48985033D01*
X43228217Y48934498D01*
X43232806Y48922195D01*
X43282994Y48855151D01*
X43313885Y48813885D01*
X43384789Y48760807D01*
X43427336Y48703972D01*
X43432401Y48633156D01*
X43398376Y48570844D01*
X43348915Y48540335D01*
X43330879Y48534359D01*
X43181655Y48442317D01*
X43181649Y48442312D01*
X43057688Y48318351D01*
X43057683Y48318345D01*
X42965642Y48169123D01*
X42910493Y48002692D01*
X42900000Y47899988D01*
X42900000Y47837500D01*
X45299999Y47837500D01*
X45299999Y47899979D01*
X45289506Y48002692D01*
X45234357Y48169123D01*
X45142316Y48318345D01*
X45142311Y48318351D01*
X45018350Y48442312D01*
X45018344Y48442317D01*
X44869119Y48534359D01*
X44851085Y48540335D01*
X44792714Y48580749D01*
X44765459Y48646306D01*
X44777973Y48716191D01*
X44815209Y48760807D01*
X44886115Y48813885D01*
X44967194Y48922195D01*
X45014475Y49048960D01*
X45020500Y49105000D01*
X45020500Y49720000D01*
X45014475Y49776040D01*
X44967194Y49902805D01*
X44931643Y49950296D01*
X44886115Y50011116D01*
X44777806Y50092193D01*
X44777805Y50092194D01*
X44651040Y50139475D01*
X44638586Y50140814D01*
X44595007Y50145500D01*
X44595000Y50145500D01*
X43605000Y50145500D01*
X43604992Y50145500D01*
X43555186Y50140145D01*
X43548960Y50139475D01*
X43422195Y50092194D01*
X43422194Y50092194D01*
X43422193Y50092193D01*
X43313884Y50011116D01*
X43232805Y49902804D01*
X43209368Y49839967D01*
X43166821Y49783131D01*
X43100301Y49758321D01*
X43091313Y49758000D01*
X42746500Y49758000D01*
X42678379Y49778002D01*
X42631886Y49831658D01*
X42620500Y49884000D01*
X42620499Y51121715D01*
X42620499Y51121718D01*
X42607707Y51186035D01*
X42607707Y51186036D01*
X42558972Y51258973D01*
X42486035Y51307707D01*
X42486034Y51307708D01*
X42421721Y51320500D01*
X40578285Y51320500D01*
X40578280Y51320499D01*
X40513964Y51307708D01*
X40441027Y51258973D01*
X40392293Y51186036D01*
X40392292Y51186035D01*
X40379500Y51121725D01*
X39597664Y51121725D01*
X39547270Y51158338D01*
X39390123Y51238408D01*
X39222384Y51292910D01*
X39048185Y51320500D01*
X38871815Y51320500D01*
X38697616Y51292910D01*
X38697613Y51292910D01*
X38697612Y51292909D01*
X38628645Y51270500D01*
X38529877Y51238408D01*
X38529875Y51238408D01*
X38529875Y51238407D01*
X38372726Y51158336D01*
X38230040Y51054668D01*
X38230037Y51054666D01*
X38105334Y50929963D01*
X38105332Y50929960D01*
X38001664Y50787274D01*
X38001662Y50787270D01*
X37921592Y50630123D01*
X37867090Y50462384D01*
X37839500Y50288185D01*
X37839500Y50111815D01*
X37867090Y49937616D01*
X37921592Y49769877D01*
X38001662Y49612730D01*
X38105330Y49470043D01*
X38105332Y49470041D01*
X38105334Y49470038D01*
X38230037Y49345335D01*
X38230040Y49345333D01*
X38230043Y49345330D01*
X38372730Y49241662D01*
X38529877Y49161592D01*
X38529879Y49161592D01*
X38529882Y49161590D01*
X38534453Y49159696D01*
X38533769Y49158047D01*
X38586023Y49122335D01*
X38613675Y49056945D01*
X38614500Y49042552D01*
X38614500Y48655301D01*
X38594498Y48587180D01*
X38577595Y48566206D01*
X35693794Y45682405D01*
X35631482Y45648379D01*
X35604699Y45645500D01*
X30854510Y45645500D01*
X30766645Y45621956D01*
X30766640Y45621954D01*
X30718436Y45594123D01*
X30687858Y45576469D01*
X30687856Y45576468D01*
X30687850Y45576463D01*
X25693794Y40582405D01*
X25631482Y40548379D01*
X25604699Y40545500D01*
X25542787Y40545500D01*
X25474666Y40565502D01*
X25453695Y40582402D01*
X25419594Y40616503D01*
X25419593Y40616504D01*
X25419590Y40616506D01*
X25300902Y40685030D01*
X25168528Y40720500D01*
X25168525Y40720500D01*
X25031475Y40720500D01*
X25031471Y40720500D01*
X24899097Y40685030D01*
X24780409Y40616506D01*
X24780399Y40616498D01*
X24683502Y40519601D01*
X24683494Y40519591D01*
X24614970Y40400903D01*
X24579500Y40268529D01*
X24579500Y40131472D01*
X24614970Y39999098D01*
X24683494Y39880410D01*
X24683502Y39880400D01*
X24780399Y39783503D01*
X24780404Y39783499D01*
X24780406Y39783497D01*
X24780407Y39783496D01*
X24780409Y39783495D01*
X24846035Y39745606D01*
X24891089Y39719594D01*
X24899097Y39714971D01*
X24980323Y39693206D01*
X25040945Y39656255D01*
X25071967Y39592394D01*
X25063537Y39521899D01*
X25018334Y39467153D01*
X24950709Y39445536D01*
X24947711Y39445500D01*
X21223352Y39445500D01*
X21155231Y39465502D01*
X21108738Y39519158D01*
X21101647Y39538883D01*
X21085028Y39600905D01*
X21019172Y39714972D01*
X21016505Y39719591D01*
X21016497Y39719601D01*
X20919600Y39816498D01*
X20919590Y39816506D01*
X20800902Y39885030D01*
X20668528Y39920500D01*
X20668525Y39920500D01*
X20531475Y39920500D01*
X20531471Y39920500D01*
X20399097Y39885030D01*
X20280409Y39816506D01*
X20280404Y39816502D01*
X20263357Y39799454D01*
X20246307Y39782405D01*
X20183998Y39748380D01*
X20157213Y39745500D01*
X18945301Y39745500D01*
X18877180Y39765502D01*
X18856210Y39782401D01*
X18212142Y40426469D01*
X18168095Y40451899D01*
X18133359Y40471954D01*
X18133354Y40471956D01*
X18045489Y40495500D01*
X18045486Y40495500D01*
X16345486Y40495500D01*
X16254514Y40495500D01*
X16254510Y40495500D01*
X16166645Y40471956D01*
X16166640Y40471954D01*
X16114009Y40441567D01*
X16087858Y40426469D01*
X16087856Y40426468D01*
X16087850Y40426463D01*
X11766023Y36104635D01*
X11703711Y36070609D01*
X11632896Y36075674D01*
X11576060Y36118221D01*
X11567809Y36130730D01*
X11516505Y36219591D01*
X11516497Y36219601D01*
X11419600Y36316498D01*
X11419590Y36316506D01*
X11300902Y36385030D01*
X11168528Y36420500D01*
X11168525Y36420500D01*
X11120301Y36420500D01*
X11052180Y36440502D01*
X11031210Y36457401D01*
X10062142Y37426469D01*
X10015038Y37453664D01*
X9983359Y37471954D01*
X9983354Y37471956D01*
X9895489Y37495500D01*
X9895486Y37495500D01*
X7227971Y37495500D01*
X7159850Y37515502D01*
X7113357Y37569158D01*
X7109043Y37579882D01*
X7105441Y37590174D01*
X7098322Y37610519D01*
X7018574Y37718574D01*
X6910519Y37798322D01*
X6910517Y37798323D01*
X6910515Y37798324D01*
X6904879Y37800296D01*
X6885585Y37814136D01*
X6863988Y37823999D01*
X6857277Y37834441D01*
X6847189Y37841677D01*
X6838439Y37863754D01*
X6825604Y37883725D01*
X6822803Y37903204D01*
X6821030Y37907678D01*
X6820500Y37919223D01*
X6820500Y38029699D01*
X6840502Y38097820D01*
X6857400Y38118790D01*
X7576469Y38837858D01*
X7621954Y38916642D01*
X7645500Y39004514D01*
X7645500Y39077193D01*
X8654720Y39077193D01*
X8654720Y38940136D01*
X8690190Y38807762D01*
X8758714Y38689074D01*
X8758722Y38689064D01*
X8855619Y38592167D01*
X8855624Y38592163D01*
X8855626Y38592161D01*
X8855627Y38592160D01*
X8855629Y38592159D01*
X8974317Y38523635D01*
X9106691Y38488165D01*
X9106695Y38488164D01*
X9243745Y38488164D01*
X9376125Y38523636D01*
X9491556Y38590281D01*
X9560547Y38607017D01*
X9627639Y38583797D01*
X9643647Y38570255D01*
X9680399Y38533503D01*
X9680404Y38533499D01*
X9680406Y38533497D01*
X9680407Y38533496D01*
X9680409Y38533495D01*
X9799097Y38464971D01*
X9931471Y38429501D01*
X9931475Y38429500D01*
X10068525Y38429500D01*
X10134715Y38447236D01*
X10200902Y38464971D01*
X10200902Y38464972D01*
X10200905Y38464972D01*
X10319594Y38533497D01*
X10416503Y38630406D01*
X10485028Y38749095D01*
X10491448Y38773052D01*
X10509637Y38840934D01*
X10520500Y38881475D01*
X10520500Y38929699D01*
X10529283Y38959615D01*
X10535912Y38990084D01*
X10539726Y38995180D01*
X10540502Y38997820D01*
X10557405Y39018794D01*
X10706206Y39167595D01*
X10768518Y39201621D01*
X10795301Y39204500D01*
X12795486Y39204500D01*
X12883358Y39228046D01*
X12962142Y39273531D01*
X13256207Y39567597D01*
X13318518Y39601620D01*
X13345301Y39604500D01*
X14527388Y39604500D01*
X14615260Y39628046D01*
X14694044Y39673531D01*
X15063109Y40042597D01*
X15125420Y40076620D01*
X15152203Y40079500D01*
X15200427Y40079500D01*
X15286684Y40102613D01*
X15332804Y40114971D01*
X15332804Y40114972D01*
X15332807Y40114972D01*
X15451496Y40183497D01*
X15548405Y40280406D01*
X15616930Y40399095D01*
X15617415Y40400903D01*
X15644894Y40503457D01*
X15652402Y40531475D01*
X15652402Y40668525D01*
X15651403Y40672253D01*
X15616931Y40800903D01*
X15606088Y40819683D01*
X15559775Y40899901D01*
X15548407Y40919591D01*
X15548399Y40919601D01*
X15451502Y41016498D01*
X15451492Y41016506D01*
X15332804Y41085030D01*
X15200430Y41120500D01*
X15200427Y41120500D01*
X15063377Y41120500D01*
X15063373Y41120500D01*
X14930999Y41085030D01*
X14812311Y41016506D01*
X14812301Y41016498D01*
X14715404Y40919601D01*
X14715396Y40919591D01*
X14646872Y40800903D01*
X14611402Y40668529D01*
X14611402Y40620301D01*
X14591400Y40552180D01*
X14574497Y40531206D01*
X14375696Y40332405D01*
X14313384Y40298379D01*
X14286601Y40295500D01*
X13488301Y40295500D01*
X13420180Y40315502D01*
X13373687Y40369158D01*
X13363583Y40439432D01*
X13393077Y40504012D01*
X13399206Y40510595D01*
X16426463Y43537852D01*
X16426469Y43537858D01*
X16437228Y43556494D01*
X16471954Y43616642D01*
X16480175Y43647323D01*
X16485177Y43657797D01*
X16501443Y43675934D01*
X16514124Y43696736D01*
X16524717Y43701882D01*
X16532581Y43710649D01*
X16556070Y43717112D01*
X16577985Y43727757D01*
X16598878Y43729501D01*
X16814034Y43729501D01*
X16814042Y43729502D01*
X16818739Y43730121D01*
X16930457Y43744827D01*
X17075320Y43804831D01*
X17199716Y43900284D01*
X17295169Y44024680D01*
X17355173Y44169543D01*
X17365100Y44244946D01*
X17393822Y44309874D01*
X17453088Y44348965D01*
X17490022Y44354500D01*
X18108311Y44354500D01*
X18176432Y44334498D01*
X18222925Y44280842D01*
X18233588Y44241972D01*
X18235525Y44223960D01*
X18282806Y44097195D01*
X18282807Y44097194D01*
X18363884Y43988885D01*
X18405534Y43957707D01*
X18472195Y43907806D01*
X18522534Y43889031D01*
X18579368Y43846485D01*
X18604179Y43779965D01*
X18604500Y43770976D01*
X18604500Y43529511D01*
X18628044Y43441646D01*
X18628046Y43441641D01*
X18644405Y43413306D01*
X18673531Y43362858D01*
X19623531Y42412858D01*
X19687858Y42348531D01*
X19766642Y42303046D01*
X19766643Y42303046D01*
X19766645Y42303045D01*
X19854510Y42279501D01*
X19854514Y42279500D01*
X19945486Y42279500D01*
X23257213Y42279500D01*
X23325334Y42259498D01*
X23346304Y42242599D01*
X23380406Y42208497D01*
X23380407Y42208496D01*
X23380409Y42208495D01*
X23429215Y42180317D01*
X23496332Y42141567D01*
X23499097Y42139971D01*
X23629736Y42104966D01*
X23631475Y42104500D01*
X23768525Y42104500D01*
X23900905Y42139972D01*
X23900907Y42139974D01*
X23908532Y42143131D01*
X23909180Y42141567D01*
X23968661Y42156001D01*
X24035755Y42132784D01*
X24064052Y42104966D01*
X24081424Y42081428D01*
X24081425Y42081428D01*
X24081426Y42081426D01*
X24189481Y42001678D01*
X24316241Y41957322D01*
X24346336Y41954500D01*
X24346339Y41954500D01*
X24953661Y41954500D01*
X24953664Y41954500D01*
X24983759Y41957322D01*
X25110519Y42001678D01*
X25218574Y42081426D01*
X25298322Y42189481D01*
X25300294Y42195118D01*
X25314133Y42214413D01*
X25323998Y42236012D01*
X25334436Y42242721D01*
X25341670Y42252806D01*
X25363747Y42261558D01*
X25383724Y42274396D01*
X25403197Y42277196D01*
X25407670Y42278969D01*
X25419222Y42279500D01*
X25480778Y42279500D01*
X25548899Y42259498D01*
X25595392Y42205842D01*
X25599699Y42195136D01*
X25601678Y42189481D01*
X25681426Y42081426D01*
X25789481Y42001678D01*
X25916241Y41957322D01*
X25946336Y41954500D01*
X25946339Y41954500D01*
X26553661Y41954500D01*
X26553664Y41954500D01*
X26583759Y41957322D01*
X26710519Y42001678D01*
X26818574Y42081426D01*
X26898322Y42189481D01*
X26942678Y42316241D01*
X26945500Y42346336D01*
X26945500Y42903664D01*
X26942678Y42933759D01*
X26898322Y43060519D01*
X26835931Y43145056D01*
X26811575Y43211742D01*
X26827138Y43281011D01*
X26871165Y43327116D01*
X26952732Y43377428D01*
X26952738Y43377433D01*
X27072567Y43497262D01*
X27072572Y43497268D01*
X27161546Y43641517D01*
X27214855Y43802394D01*
X27214856Y43802400D01*
X27225000Y43901677D01*
X27225000Y43925000D01*
X23675001Y43925000D01*
X23675001Y43901686D01*
X23685143Y43802398D01*
X23738453Y43641517D01*
X23827427Y43497268D01*
X23827432Y43497262D01*
X23947261Y43377433D01*
X23947267Y43377428D01*
X24028834Y43327117D01*
X24038045Y43316877D01*
X24050245Y43310483D01*
X24061322Y43290997D01*
X24076312Y43274331D01*
X24078524Y43260736D01*
X24085331Y43248762D01*
X24084114Y43226381D01*
X24087715Y43204256D01*
X24082143Y43190097D01*
X24081479Y43177870D01*
X24064833Y43146104D01*
X24064820Y43146086D01*
X24008720Y43102573D01*
X23938002Y43096297D01*
X23908722Y43107329D01*
X23908532Y43106869D01*
X23900904Y43110029D01*
X23768528Y43145500D01*
X23768525Y43145500D01*
X23631475Y43145500D01*
X23631471Y43145500D01*
X23499097Y43110030D01*
X23380409Y43041506D01*
X23380404Y43041502D01*
X23363357Y43024454D01*
X23346307Y43007405D01*
X23283998Y42973380D01*
X23257213Y42970500D01*
X20095301Y42970500D01*
X20027180Y42990502D01*
X20006206Y43007405D01*
X19332405Y43681206D01*
X19317460Y43708575D01*
X19300604Y43734803D01*
X19299698Y43741102D01*
X19298379Y43743518D01*
X19295500Y43770301D01*
X19295500Y43770976D01*
X19315502Y43839097D01*
X19369158Y43885590D01*
X19377449Y43889025D01*
X19427805Y43907806D01*
X19536115Y43988885D01*
X19617194Y44097195D01*
X19634133Y44142612D01*
X19676676Y44199444D01*
X19743196Y44224256D01*
X19812571Y44209166D01*
X19862774Y44158964D01*
X19871791Y44138210D01*
X19915640Y44005882D01*
X20007683Y43856656D01*
X20007688Y43856650D01*
X20131649Y43732689D01*
X20131655Y43732684D01*
X20280877Y43640643D01*
X20447308Y43585494D01*
X20550012Y43575001D01*
X21100000Y43575001D01*
X21149978Y43575001D01*
X21252691Y43585494D01*
X21419122Y43640643D01*
X21568344Y43732684D01*
X21568350Y43732689D01*
X21692311Y43856650D01*
X21692316Y43856656D01*
X21784357Y44005878D01*
X21839506Y44172309D01*
X21849999Y44275013D01*
X21850000Y44275013D01*
X21850000Y44550000D01*
X21100000Y44550000D01*
X21100000Y43575001D01*
X20550012Y43575001D01*
X20600000Y43575002D01*
X20600000Y45050000D01*
X21100000Y45050000D01*
X21849999Y45050000D01*
X21849999Y45324979D01*
X21839506Y45427692D01*
X21784357Y45594123D01*
X21692316Y45743345D01*
X21692311Y45743351D01*
X21568350Y45867312D01*
X21568344Y45867317D01*
X21419122Y45959358D01*
X21252691Y46014507D01*
X21149987Y46025000D01*
X21100000Y46025000D01*
X21100000Y45050000D01*
X20600000Y45050000D01*
X20600000Y46025000D01*
X20599999Y46025001D01*
X20550021Y46025000D01*
X20447308Y46014507D01*
X20280877Y45959358D01*
X20131655Y45867317D01*
X20131649Y45867312D01*
X20007688Y45743351D01*
X20007683Y45743345D01*
X19915640Y45594119D01*
X19871791Y45461791D01*
X19831377Y45403419D01*
X19765821Y45376164D01*
X19695936Y45388678D01*
X19643910Y45436987D01*
X19634134Y45457386D01*
X19617194Y45502805D01*
X19567997Y45568525D01*
X19536115Y45611116D01*
X19427806Y45692193D01*
X19427805Y45692194D01*
X19301040Y45739475D01*
X19288586Y45740814D01*
X19245007Y45745500D01*
X19245000Y45745500D01*
X18655000Y45745500D01*
X18654992Y45745500D01*
X18605186Y45740145D01*
X18598960Y45739475D01*
X18472195Y45692194D01*
X18472194Y45692194D01*
X18472193Y45692193D01*
X18363884Y45611116D01*
X18295903Y45520301D01*
X18282806Y45502805D01*
X18235525Y45376040D01*
X18234855Y45369814D01*
X18229500Y45320008D01*
X18229500Y45171500D01*
X18209498Y45103379D01*
X18155842Y45056886D01*
X18103500Y45045500D01*
X17490021Y45045500D01*
X17421900Y45065502D01*
X17375407Y45119158D01*
X17365099Y45155055D01*
X17355173Y45230456D01*
X17355173Y45230457D01*
X17295169Y45375320D01*
X17295164Y45375327D01*
X17199716Y45499717D01*
X17075709Y45594871D01*
X17033842Y45652209D01*
X17029620Y45723080D01*
X17064384Y45784983D01*
X17096430Y45807713D01*
X17249025Y45883393D01*
X17249027Y45883394D01*
X17397367Y46002633D01*
X17516606Y46150973D01*
X17516607Y46150975D01*
X17601170Y46321483D01*
X17601171Y46321485D01*
X17647101Y46506170D01*
X17647103Y46506183D01*
X17650000Y46548893D01*
X17650000Y46750000D01*
X14650000Y46750000D01*
X14650000Y46548893D01*
X14652896Y46506183D01*
X14652898Y46506170D01*
X14698828Y46321485D01*
X14698829Y46321483D01*
X14783392Y46150975D01*
X14783393Y46150973D01*
X14902632Y46002633D01*
X15050972Y45883394D01*
X15050974Y45883393D01*
X15203569Y45807713D01*
X15255709Y45759527D01*
X15273521Y45690801D01*
X15251350Y45623355D01*
X15224291Y45594871D01*
X15100282Y45499715D01*
X15004835Y45375327D01*
X15004830Y45375319D01*
X14944826Y45230456D01*
X14929500Y45114038D01*
X14929500Y44285967D01*
X14929501Y44285958D01*
X14939611Y44209166D01*
X14944827Y44169543D01*
X14974795Y44097194D01*
X15004830Y44024682D01*
X15004835Y44024674D01*
X15100283Y43900284D01*
X15224673Y43804836D01*
X15224680Y43804831D01*
X15369543Y43744827D01*
X15369545Y43744827D01*
X15369547Y43744826D01*
X15377521Y43742689D01*
X15377187Y43741446D01*
X15434468Y43716111D01*
X15473564Y43656849D01*
X15474415Y43585857D01*
X15442197Y43530810D01*
X12293794Y40382405D01*
X12231482Y40348380D01*
X12204699Y40345500D01*
X10121066Y40345500D01*
X10033198Y40321955D01*
X10033195Y40321954D01*
X9966348Y40283359D01*
X9966347Y40283358D01*
X9954414Y40276470D01*
X9954411Y40276467D01*
X9770066Y40092121D01*
X9244012Y39566068D01*
X9181702Y39532044D01*
X9154919Y39529164D01*
X9106691Y39529164D01*
X8974317Y39493694D01*
X8855629Y39425170D01*
X8855619Y39425162D01*
X8758722Y39328265D01*
X8758714Y39328255D01*
X8690190Y39209567D01*
X8654720Y39077193D01*
X7645500Y39077193D01*
X7645500Y39095486D01*
X7645500Y45541997D01*
X8350000Y45541997D01*
X8360609Y45422674D01*
X8360609Y45422671D01*
X8416559Y45227135D01*
X8510721Y45046869D01*
X8639247Y44889248D01*
X8796868Y44760722D01*
X8977134Y44666560D01*
X9172671Y44610610D01*
X9291996Y44600001D01*
X9292003Y44600000D01*
X9600000Y44600000D01*
X10100000Y44600000D01*
X10407997Y44600000D01*
X10408003Y44600001D01*
X10527326Y44610610D01*
X10527329Y44610610D01*
X10722865Y44666560D01*
X10903131Y44760722D01*
X11060752Y44889248D01*
X11189278Y45046869D01*
X11283440Y45227135D01*
X11339390Y45422671D01*
X11339390Y45422674D01*
X11349999Y45541997D01*
X11350000Y45542003D01*
X11350000Y46750000D01*
X10100000Y46750000D01*
X10100000Y44600000D01*
X9600000Y44600000D01*
X9600000Y46750000D01*
X8350000Y46750000D01*
X8350000Y45541997D01*
X7645500Y45541997D01*
X7645500Y45857213D01*
X7665502Y45925334D01*
X7682401Y45946305D01*
X7716503Y45980406D01*
X7785028Y46099095D01*
X7787363Y46107807D01*
X7820499Y46231472D01*
X7820500Y46231475D01*
X7820500Y46368525D01*
X7820499Y46368529D01*
X7785029Y46500903D01*
X7716505Y46619591D01*
X7716497Y46619601D01*
X7682405Y46653693D01*
X7667460Y46681062D01*
X7650604Y46707290D01*
X7649698Y46713589D01*
X7648379Y46716005D01*
X7645500Y46742788D01*
X7645500Y47095008D01*
X23079500Y47095008D01*
X23079500Y46479993D01*
X23084186Y46436414D01*
X23085525Y46423960D01*
X23132806Y46297195D01*
X23132807Y46297194D01*
X23213884Y46188885D01*
X23264527Y46150975D01*
X23322195Y46107806D01*
X23448960Y46060525D01*
X23459838Y46059356D01*
X23525429Y46032186D01*
X23565919Y45973868D01*
X23568453Y45902916D01*
X23555487Y45871079D01*
X23514970Y45800902D01*
X23479500Y45668529D01*
X23479500Y45531472D01*
X23514970Y45399098D01*
X23583494Y45280410D01*
X23583502Y45280400D01*
X23680399Y45183503D01*
X23680404Y45183499D01*
X23680406Y45183497D01*
X23680407Y45183496D01*
X23680409Y45183495D01*
X23685770Y45180400D01*
X23799095Y45114972D01*
X23817459Y45110052D01*
X23878081Y45073101D01*
X23909103Y45009241D01*
X23900675Y44938746D01*
X23873944Y44899250D01*
X23827427Y44852733D01*
X23738453Y44708484D01*
X23685144Y44547607D01*
X23685143Y44547601D01*
X23675000Y44448324D01*
X23675000Y44425000D01*
X24400000Y44425000D01*
X24900000Y44425000D01*
X26000000Y44425000D01*
X26000000Y45125000D01*
X25951685Y45125000D01*
X25852397Y45114857D01*
X25691516Y45061547D01*
X25547267Y44972573D01*
X25547261Y44972568D01*
X25539095Y44964401D01*
X25476783Y44930375D01*
X25405968Y44935440D01*
X25360905Y44964401D01*
X25352738Y44972568D01*
X25352732Y44972573D01*
X25208483Y45061547D01*
X25047606Y45114856D01*
X25047600Y45114857D01*
X24948323Y45125000D01*
X24900000Y45125000D01*
X24900000Y44425000D01*
X24400000Y44425000D01*
X24400000Y45141331D01*
X24385619Y45167665D01*
X24385619Y45167667D01*
X24385618Y45167669D01*
X24388805Y45212232D01*
X24390682Y45238481D01*
X24390682Y45238483D01*
X24390683Y45238484D01*
X24390689Y45238493D01*
X24412776Y45272856D01*
X24411475Y45273854D01*
X24416498Y45280402D01*
X24416503Y45280406D01*
X24485028Y45399095D01*
X24493705Y45431475D01*
X24503521Y45468111D01*
X24520500Y45531475D01*
X24520500Y45668525D01*
X24505882Y45723080D01*
X24485029Y45800903D01*
X24481097Y45807713D01*
X24444512Y45871081D01*
X24427775Y45940073D01*
X24450995Y46007165D01*
X24506802Y46051052D01*
X24540160Y46059356D01*
X24551040Y46060525D01*
X24677805Y46107806D01*
X24786115Y46188885D01*
X24867194Y46297195D01*
X24914475Y46423960D01*
X24920500Y46480000D01*
X24920500Y47095000D01*
X24920499Y47095008D01*
X25779500Y47095008D01*
X25779500Y46479993D01*
X25784186Y46436414D01*
X25785525Y46423960D01*
X25832806Y46297195D01*
X25832807Y46297194D01*
X25913884Y46188885D01*
X25964527Y46150975D01*
X26022195Y46107806D01*
X26141061Y46063471D01*
X26197895Y46020926D01*
X26222706Y45954406D01*
X26215407Y45909338D01*
X26217109Y45908882D01*
X26179500Y45768529D01*
X26179500Y45631472D01*
X26214970Y45499098D01*
X26283494Y45380410D01*
X26283502Y45380400D01*
X26380399Y45283503D01*
X26380403Y45283500D01*
X26380406Y45283497D01*
X26437000Y45250822D01*
X26485993Y45199442D01*
X26500000Y45141704D01*
X26500000Y44425000D01*
X27224999Y44425000D01*
X27224999Y44448315D01*
X27214856Y44547603D01*
X27161546Y44708484D01*
X27072572Y44852733D01*
X27072567Y44852739D01*
X26952738Y44972568D01*
X26952732Y44972573D01*
X26904347Y45002417D01*
X26856869Y45055203D01*
X26845466Y45125278D01*
X26873759Y45190394D01*
X26907490Y45218774D01*
X27019594Y45283497D01*
X27116503Y45380406D01*
X27185028Y45499095D01*
X27185195Y45499716D01*
X27220499Y45631472D01*
X27220500Y45631475D01*
X27220500Y45768525D01*
X27220499Y45768529D01*
X27182891Y45908882D01*
X27185240Y45909512D01*
X27178974Y45967788D01*
X27210753Y46031275D01*
X27258935Y46063470D01*
X27377805Y46107806D01*
X27486115Y46188885D01*
X27567194Y46297195D01*
X27614475Y46423960D01*
X27620500Y46480000D01*
X27620500Y47095000D01*
X27614475Y47151040D01*
X27567194Y47277805D01*
X27534614Y47321327D01*
X27486115Y47386116D01*
X27377806Y47467193D01*
X27377805Y47467194D01*
X27251040Y47514475D01*
X27238586Y47515814D01*
X27195007Y47520500D01*
X27195000Y47520500D01*
X26205000Y47520500D01*
X26204992Y47520500D01*
X26155186Y47515145D01*
X26148960Y47514475D01*
X26022195Y47467194D01*
X26022194Y47467194D01*
X26022193Y47467193D01*
X25913884Y47386116D01*
X25832807Y47277807D01*
X25832806Y47277805D01*
X25786878Y47154666D01*
X25785525Y47151039D01*
X25779500Y47095008D01*
X24920499Y47095008D01*
X24914475Y47151040D01*
X24867194Y47277805D01*
X24834614Y47321327D01*
X24786115Y47386116D01*
X24677806Y47467193D01*
X24677805Y47467194D01*
X24551040Y47514475D01*
X24538586Y47515814D01*
X24495007Y47520500D01*
X24495000Y47520500D01*
X23505000Y47520500D01*
X23504992Y47520500D01*
X23455186Y47515145D01*
X23448960Y47514475D01*
X23322195Y47467194D01*
X23322194Y47467194D01*
X23322193Y47467193D01*
X23213884Y47386116D01*
X23132807Y47277807D01*
X23132806Y47277805D01*
X23086878Y47154666D01*
X23085525Y47151039D01*
X23079500Y47095008D01*
X7645500Y47095008D01*
X7645500Y48004699D01*
X7665502Y48072820D01*
X7682405Y48093794D01*
X8134905Y48546294D01*
X8197217Y48580320D01*
X8268032Y48575255D01*
X8324868Y48532708D01*
X8349679Y48466188D01*
X8350000Y48457199D01*
X8350000Y47250000D01*
X11350000Y47250000D01*
X11350000Y48457997D01*
X11349999Y48458004D01*
X11339390Y48577327D01*
X11339390Y48577330D01*
X11283439Y48772872D01*
X11281072Y48778798D01*
X11282990Y48779565D01*
X11271041Y48839794D01*
X11297069Y48905848D01*
X11354676Y48947344D01*
X11396534Y48954500D01*
X14809979Y48954500D01*
X14878100Y48934498D01*
X14924593Y48880842D01*
X14934901Y48844945D01*
X14944826Y48769545D01*
X14944827Y48769543D01*
X14960044Y48732806D01*
X15004830Y48624682D01*
X15004835Y48624674D01*
X15100283Y48500284D01*
X15224290Y48405130D01*
X15266157Y48347792D01*
X15270379Y48276921D01*
X15235615Y48215019D01*
X15203570Y48192288D01*
X15050971Y48116606D01*
X14902632Y47997368D01*
X14783393Y47849028D01*
X14783392Y47849026D01*
X14698829Y47678518D01*
X14698828Y47678516D01*
X14652898Y47493831D01*
X14652896Y47493818D01*
X14650000Y47451108D01*
X14650000Y47250000D01*
X17650000Y47250000D01*
X17650000Y47451108D01*
X17647103Y47493818D01*
X17647101Y47493831D01*
X17601171Y47678516D01*
X17601170Y47678518D01*
X17516607Y47849026D01*
X17516606Y47849028D01*
X17397367Y47997368D01*
X17249027Y48116607D01*
X17249025Y48116608D01*
X17096430Y48192288D01*
X17044289Y48240474D01*
X17026478Y48309200D01*
X17048649Y48376646D01*
X17075703Y48405126D01*
X17199716Y48500284D01*
X17295169Y48624680D01*
X17355173Y48769543D01*
X17365100Y48844946D01*
X17393822Y48909874D01*
X17453088Y48948965D01*
X17490022Y48954500D01*
X18172029Y48954500D01*
X18240150Y48934498D01*
X18286643Y48880842D01*
X18290957Y48870118D01*
X18301678Y48839481D01*
X18381426Y48731426D01*
X18489481Y48651678D01*
X18616241Y48607322D01*
X18646336Y48604500D01*
X18646339Y48604500D01*
X19203661Y48604500D01*
X19203664Y48604500D01*
X19233759Y48607322D01*
X19360519Y48651678D01*
X19445054Y48714068D01*
X19511740Y48738425D01*
X19581010Y48722862D01*
X19627114Y48678836D01*
X19677425Y48597271D01*
X19677432Y48597262D01*
X19797261Y48477433D01*
X19797267Y48477428D01*
X19941516Y48388454D01*
X20102393Y48335145D01*
X20102399Y48335144D01*
X20201676Y48325001D01*
X20725000Y48325001D01*
X20748314Y48325001D01*
X20847602Y48335144D01*
X21008483Y48388454D01*
X21152732Y48477428D01*
X21152738Y48477433D01*
X21272567Y48597262D01*
X21272572Y48597268D01*
X21361546Y48741517D01*
X21414855Y48902394D01*
X21414856Y48902400D01*
X21425000Y49001677D01*
X21425000Y49050000D01*
X20725000Y49050000D01*
X20725000Y48325001D01*
X20201676Y48325001D01*
X20225000Y48325002D01*
X20225000Y49550000D01*
X20725000Y49550000D01*
X21424999Y49550000D01*
X21424999Y49598315D01*
X21414856Y49697603D01*
X21361546Y49858484D01*
X21272572Y50002733D01*
X21272567Y50002739D01*
X21152738Y50122568D01*
X21152732Y50122573D01*
X21008483Y50211547D01*
X20847606Y50264856D01*
X20847600Y50264857D01*
X20748323Y50275000D01*
X20725000Y50275000D01*
X20725000Y49550000D01*
X20225000Y49550000D01*
X20225000Y50275000D01*
X20224999Y50275001D01*
X20201694Y50275000D01*
X20102397Y50264857D01*
X19941516Y50211547D01*
X19797267Y50122573D01*
X19797261Y50122568D01*
X19677432Y50002739D01*
X19677428Y50002734D01*
X19627114Y49921164D01*
X19618708Y49913604D01*
X19613859Y49903391D01*
X19592780Y49890285D01*
X19574327Y49873687D01*
X19563168Y49871872D01*
X19553567Y49865901D01*
X19528748Y49866271D01*
X19504252Y49862285D01*
X19492031Y49866819D01*
X19482579Y49866959D01*
X19457589Y49879595D01*
X19450182Y49882342D01*
X19447562Y49884081D01*
X19360519Y49948322D01*
X19339972Y49955512D01*
X19326808Y49964252D01*
X19313718Y49979821D01*
X19297189Y49991677D01*
X19291337Y50006440D01*
X19281119Y50018594D01*
X19278524Y50038770D01*
X19271030Y50057678D01*
X19270500Y50069223D01*
X19270500Y50862174D01*
X23079500Y50862174D01*
X23079500Y50262838D01*
X23079501Y50262823D01*
X23082441Y50231467D01*
X23128662Y50099371D01*
X23128663Y50099370D01*
X23211768Y49986768D01*
X23324370Y49903663D01*
X23324371Y49903663D01*
X23324372Y49903662D01*
X23324375Y49903661D01*
X23456463Y49857442D01*
X23456466Y49857441D01*
X23487829Y49854500D01*
X23528499Y49854501D01*
X23596618Y49834501D01*
X23643112Y49780846D01*
X23654500Y49728501D01*
X23654500Y49471500D01*
X23634498Y49403379D01*
X23580842Y49356886D01*
X23528500Y49345500D01*
X23504992Y49345500D01*
X23455186Y49340145D01*
X23448960Y49339475D01*
X23322195Y49292194D01*
X23322194Y49292194D01*
X23322193Y49292193D01*
X23213884Y49211116D01*
X23132807Y49102807D01*
X23132806Y49102805D01*
X23088880Y48985033D01*
X23085525Y48976039D01*
X23079500Y48920008D01*
X23079500Y48920000D01*
X23079500Y48305000D01*
X23085525Y48248960D01*
X23132806Y48122195D01*
X23136989Y48116607D01*
X23213884Y48013885D01*
X23235949Y47997368D01*
X23322195Y47932806D01*
X23448960Y47885525D01*
X23505000Y47879500D01*
X23505004Y47879500D01*
X24494996Y47879500D01*
X24495000Y47879500D01*
X24551040Y47885525D01*
X24677805Y47932806D01*
X24786115Y48013885D01*
X24867194Y48122195D01*
X24914475Y48248960D01*
X24920500Y48305000D01*
X24920500Y48920000D01*
X24914475Y48976040D01*
X24867194Y49102805D01*
X24824634Y49159659D01*
X24786115Y49211116D01*
X24677806Y49292193D01*
X24677805Y49292194D01*
X24551040Y49339475D01*
X24538586Y49340814D01*
X24495007Y49345500D01*
X24495000Y49345500D01*
X24471500Y49345500D01*
X24403379Y49365502D01*
X24356886Y49419158D01*
X24345500Y49471500D01*
X24345500Y49728501D01*
X24365502Y49796622D01*
X24419158Y49843115D01*
X24471500Y49854501D01*
X24512163Y49854501D01*
X24512170Y49854501D01*
X24543534Y49857441D01*
X24675630Y49903663D01*
X24788232Y49986768D01*
X24871337Y50099370D01*
X24917559Y50231466D01*
X24920500Y50262829D01*
X24920499Y50862170D01*
X24920499Y50862174D01*
X25779500Y50862174D01*
X25779500Y50262838D01*
X25779501Y50262823D01*
X25782441Y50231467D01*
X25828662Y50099371D01*
X25828663Y50099370D01*
X25911768Y49986768D01*
X26024370Y49903663D01*
X26024371Y49903663D01*
X26024372Y49903662D01*
X26024375Y49903661D01*
X26156463Y49857442D01*
X26156466Y49857441D01*
X26187829Y49854500D01*
X26228499Y49854501D01*
X26296618Y49834501D01*
X26343112Y49780846D01*
X26354500Y49728501D01*
X26354500Y49471500D01*
X26334498Y49403379D01*
X26280842Y49356886D01*
X26228500Y49345500D01*
X26204992Y49345500D01*
X26155186Y49340145D01*
X26148960Y49339475D01*
X26022195Y49292194D01*
X26022194Y49292194D01*
X26022193Y49292193D01*
X25913884Y49211116D01*
X25832807Y49102807D01*
X25832806Y49102805D01*
X25788880Y48985033D01*
X25785525Y48976039D01*
X25779500Y48920008D01*
X25779500Y48920000D01*
X25779500Y48305000D01*
X25785525Y48248960D01*
X25832806Y48122195D01*
X25836989Y48116607D01*
X25913884Y48013885D01*
X25935949Y47997368D01*
X26022195Y47932806D01*
X26148960Y47885525D01*
X26205000Y47879500D01*
X26205004Y47879500D01*
X27194996Y47879500D01*
X27195000Y47879500D01*
X27251040Y47885525D01*
X27377805Y47932806D01*
X27486115Y48013885D01*
X27567194Y48122195D01*
X27614475Y48248960D01*
X27620500Y48305000D01*
X27620500Y48920000D01*
X27614475Y48976040D01*
X27567194Y49102805D01*
X27524634Y49159659D01*
X27486115Y49211116D01*
X27377806Y49292193D01*
X27377805Y49292194D01*
X27251040Y49339475D01*
X27238586Y49340814D01*
X27195007Y49345500D01*
X27195000Y49345500D01*
X27171500Y49345500D01*
X27103379Y49365502D01*
X27056886Y49419158D01*
X27045500Y49471500D01*
X27045500Y49728501D01*
X27065502Y49796622D01*
X27119158Y49843115D01*
X27171500Y49854501D01*
X27212163Y49854501D01*
X27212170Y49854501D01*
X27243534Y49857441D01*
X27375630Y49903663D01*
X27488232Y49986768D01*
X27571337Y50099370D01*
X27617559Y50231466D01*
X27620500Y50262829D01*
X27620499Y50862170D01*
X27617559Y50893534D01*
X27571337Y51025630D01*
X27488232Y51138232D01*
X27375630Y51221337D01*
X27375629Y51221338D01*
X27375627Y51221339D01*
X27375624Y51221340D01*
X27243536Y51267559D01*
X27243538Y51267559D01*
X27218443Y51269912D01*
X27212171Y51270500D01*
X27212170Y51270500D01*
X26187837Y51270500D01*
X26187822Y51270499D01*
X26156466Y51267559D01*
X26024370Y51221338D01*
X25911768Y51138232D01*
X25828661Y51025628D01*
X25828660Y51025625D01*
X25782441Y50893538D01*
X25779500Y50862174D01*
X24920499Y50862174D01*
X24917559Y50893534D01*
X24871337Y51025630D01*
X24788232Y51138232D01*
X24675630Y51221337D01*
X24675629Y51221338D01*
X24675627Y51221339D01*
X24675624Y51221340D01*
X24543536Y51267559D01*
X24543538Y51267559D01*
X24518443Y51269912D01*
X24512171Y51270500D01*
X24512170Y51270500D01*
X23487837Y51270500D01*
X23487822Y51270499D01*
X23456466Y51267559D01*
X23324370Y51221338D01*
X23211768Y51138232D01*
X23128661Y51025628D01*
X23128660Y51025625D01*
X23082441Y50893538D01*
X23079500Y50862174D01*
X19270500Y50862174D01*
X19270500Y51329699D01*
X19290502Y51397820D01*
X19307405Y51418794D01*
X19993706Y52105095D01*
X20056018Y52139121D01*
X20082801Y52142000D01*
X22980605Y52142000D01*
X23048726Y52121998D01*
X23095219Y52068342D01*
X23099534Y52057615D01*
X23128660Y51974375D01*
X23128661Y51974373D01*
X23128662Y51974371D01*
X23128663Y51974370D01*
X23211768Y51861768D01*
X23324370Y51778663D01*
X23324371Y51778663D01*
X23324372Y51778662D01*
X23324375Y51778661D01*
X23456463Y51732442D01*
X23456466Y51732441D01*
X23487829Y51729500D01*
X24512170Y51729501D01*
X24543534Y51732441D01*
X24675630Y51778663D01*
X24788232Y51861768D01*
X24871337Y51974370D01*
X24882969Y52007614D01*
X24924347Y52065306D01*
X24990347Y52091469D01*
X25001899Y52092000D01*
X25698101Y52092000D01*
X25766222Y52071998D01*
X25812715Y52018342D01*
X25817031Y52007613D01*
X25828661Y51974373D01*
X25828662Y51974371D01*
X25828663Y51974370D01*
X25911768Y51861768D01*
X26024370Y51778663D01*
X26024371Y51778663D01*
X26024372Y51778662D01*
X26024375Y51778661D01*
X26156463Y51732442D01*
X26156466Y51732441D01*
X26187829Y51729500D01*
X27212170Y51729501D01*
X27243534Y51732441D01*
X27375630Y51778663D01*
X27488232Y51861768D01*
X27571337Y51974370D01*
X27582969Y52007614D01*
X27624347Y52065306D01*
X27690347Y52091469D01*
X27701899Y52092000D01*
X45317199Y52092000D01*
X45385320Y52071998D01*
X45406294Y52055095D01*
X49317595Y48143794D01*
X49351621Y48081482D01*
X49354500Y48054699D01*
X49354500Y43622187D01*
X49334498Y43554066D01*
X49280842Y43507573D01*
X49261112Y43500481D01*
X49198657Y43483746D01*
X49198642Y43483741D01*
X49144255Y43461213D01*
X49144245Y43461208D01*
X49030242Y43395389D01*
X48983546Y43359558D01*
X48983529Y43359543D01*
X48890457Y43266471D01*
X48890442Y43266454D01*
X48854613Y43219760D01*
X48850604Y43212816D01*
X48848123Y43208516D01*
X48848115Y43208503D01*
X48796734Y43159508D01*
X48738994Y43145500D01*
X48204510Y43145500D01*
X48116645Y43121956D01*
X48116640Y43121954D01*
X48037860Y43076470D01*
X48037854Y43076466D01*
X47803054Y42841665D01*
X47137858Y42176469D01*
X47119670Y42158281D01*
X47073534Y42112146D01*
X47073530Y42112140D01*
X47028046Y42033360D01*
X47028044Y42033355D01*
X47004500Y41945490D01*
X47004500Y38804511D01*
X47028044Y38716646D01*
X47028046Y38716641D01*
X47041533Y38693281D01*
X47073531Y38637858D01*
X47073534Y38637855D01*
X47073537Y38637851D01*
X49317595Y36393794D01*
X49351620Y36331482D01*
X49354500Y36304699D01*
X49354500Y27422187D01*
X49334498Y27354066D01*
X49280842Y27307573D01*
X49261112Y27300481D01*
X49198657Y27283746D01*
X49198642Y27283741D01*
X49144255Y27261213D01*
X49144245Y27261208D01*
X49030242Y27195389D01*
X48983546Y27159558D01*
X48983529Y27159543D01*
X48890457Y27066471D01*
X48890442Y27066454D01*
X48854613Y27019760D01*
X48848115Y27008503D01*
X48796734Y26959508D01*
X48738994Y26945500D01*
X48245486Y26945500D01*
X48154514Y26945500D01*
X48100734Y26931090D01*
X48066638Y26921954D01*
X47987861Y26876472D01*
X47987851Y26876464D01*
X47237342Y26125953D01*
X46987858Y25876469D01*
X46967179Y25855790D01*
X46923534Y25812146D01*
X46923530Y25812140D01*
X46878046Y25733360D01*
X46878044Y25733355D01*
X46854500Y25645490D01*
X46854500Y11204511D01*
X46878044Y11116646D01*
X46878046Y11116641D01*
X46884767Y11105000D01*
X46923531Y11037858D01*
X47692596Y10268793D01*
X47726620Y10206482D01*
X47729500Y10179699D01*
X47729500Y10131472D01*
X47764970Y9999098D01*
X47833494Y9880410D01*
X47833502Y9880400D01*
X47930402Y9783500D01*
X47936418Y9778884D01*
X47978288Y9721548D01*
X47982512Y9650677D01*
X47947750Y9588773D01*
X47922718Y9569800D01*
X47830409Y9516506D01*
X47830399Y9516498D01*
X47733502Y9419601D01*
X47733494Y9419591D01*
X47664970Y9300903D01*
X47629500Y9168529D01*
X47629500Y9031472D01*
X47664970Y8899098D01*
X47733494Y8780410D01*
X47733502Y8780400D01*
X47830399Y8683503D01*
X47830403Y8683500D01*
X47830406Y8683497D01*
X47889165Y8649573D01*
X47938158Y8598191D01*
X47951595Y8528478D01*
X47925208Y8462567D01*
X47915261Y8451359D01*
X47833499Y8369597D01*
X47833494Y8369591D01*
X47764970Y8250903D01*
X47729500Y8118529D01*
X47729500Y7981472D01*
X47764970Y7849098D01*
X47833494Y7730410D01*
X47833502Y7730400D01*
X47930399Y7633503D01*
X47930404Y7633499D01*
X47930406Y7633497D01*
X47930407Y7633496D01*
X47930409Y7633495D01*
X47980606Y7604514D01*
X48047638Y7565813D01*
X48049097Y7564971D01*
X48181471Y7529501D01*
X48181475Y7529500D01*
X48243759Y7529500D01*
X48306758Y7512620D01*
X48366642Y7478046D01*
X48366643Y7478046D01*
X48366645Y7478045D01*
X48454510Y7454501D01*
X48454514Y7454500D01*
X48738994Y7454500D01*
X48807115Y7434498D01*
X48848115Y7391497D01*
X48854613Y7380241D01*
X48890442Y7333547D01*
X48890457Y7333530D01*
X48983529Y7240458D01*
X48983546Y7240443D01*
X49030242Y7204612D01*
X49131635Y7146073D01*
X49144257Y7138786D01*
X49198642Y7116259D01*
X49325809Y7082184D01*
X49384174Y7074500D01*
X49384181Y7074500D01*
X50015819Y7074500D01*
X50015826Y7074500D01*
X50074191Y7082184D01*
X50201358Y7116259D01*
X50255743Y7138786D01*
X50369757Y7204612D01*
X50416460Y7240448D01*
X50509552Y7333540D01*
X50538349Y7371069D01*
X50545389Y7380244D01*
X50552481Y7392529D01*
X50603861Y7441525D01*
X50637583Y7452085D01*
X50637509Y7452362D01*
X50644165Y7454146D01*
X50645163Y7454458D01*
X50645478Y7454500D01*
X50645486Y7454500D01*
X50733358Y7478046D01*
X50812142Y7523531D01*
X51576469Y8287858D01*
X51621954Y8366642D01*
X51645500Y8454514D01*
X51645500Y8545486D01*
X51645500Y12095486D01*
X51633713Y12139475D01*
X51621955Y12183355D01*
X51621953Y12183360D01*
X51608128Y12207306D01*
X51576469Y12262142D01*
X51512142Y12326469D01*
X50082405Y13756206D01*
X50048379Y13818518D01*
X50045500Y13845301D01*
X50045500Y23177814D01*
X50065502Y23245935D01*
X50119158Y23292428D01*
X50138879Y23299518D01*
X50201358Y23316259D01*
X50255743Y23338786D01*
X50369757Y23404612D01*
X50416460Y23440448D01*
X50509552Y23533540D01*
X50545388Y23580243D01*
X50551886Y23591498D01*
X50603266Y23640492D01*
X50661006Y23654500D01*
X58595486Y23654500D01*
X58683358Y23678046D01*
X58762142Y23723531D01*
X60854913Y25816304D01*
X60917222Y25850326D01*
X60988037Y25845262D01*
X60992224Y25843614D01*
X61052320Y25818721D01*
X61052324Y25818720D01*
X61052331Y25818717D01*
X61249489Y25779500D01*
X61249490Y25779500D01*
X61450510Y25779500D01*
X61450511Y25779500D01*
X61647669Y25818717D01*
X61833388Y25895644D01*
X62000531Y26007326D01*
X62142674Y26149469D01*
X62173735Y26195956D01*
X62228212Y26241483D01*
X62298655Y26250331D01*
X62362699Y26219690D01*
X62400010Y26159288D01*
X62404500Y26125953D01*
X62404500Y24345301D01*
X62384498Y24277180D01*
X62367595Y24256206D01*
X60093794Y21982405D01*
X60031482Y21948379D01*
X60004699Y21945500D01*
X56204510Y21945500D01*
X56116645Y21921956D01*
X56116642Y21921955D01*
X56061508Y21890123D01*
X56037859Y21876470D01*
X56037853Y21876466D01*
X54080990Y19919601D01*
X53444660Y19283271D01*
X53427710Y19266321D01*
X53380336Y19218948D01*
X53380332Y19218942D01*
X53334848Y19140162D01*
X53334846Y19140157D01*
X53311302Y19052292D01*
X53311302Y8238499D01*
X53291300Y8170378D01*
X53274397Y8149404D01*
X51907398Y6782405D01*
X51845086Y6748379D01*
X51818303Y6745500D01*
X45009185Y6745500D01*
X44941064Y6765502D01*
X44920090Y6782405D01*
X43481936Y8220559D01*
X43447910Y8282871D01*
X43452975Y8353686D01*
X43463479Y8372616D01*
X43462374Y8373254D01*
X43486188Y8414501D01*
X43535028Y8499095D01*
X43544657Y8535028D01*
X43568325Y8623359D01*
X43570500Y8631475D01*
X43570500Y8768525D01*
X43567318Y8780400D01*
X43535029Y8900903D01*
X43531042Y8907808D01*
X43466503Y9019594D01*
X43466501Y9019596D01*
X43466497Y9019601D01*
X43369600Y9116498D01*
X43369590Y9116506D01*
X43250902Y9185030D01*
X43118528Y9220500D01*
X43118525Y9220500D01*
X42981475Y9220500D01*
X42981471Y9220500D01*
X42849097Y9185030D01*
X42730409Y9116506D01*
X42730399Y9116498D01*
X42633502Y9019601D01*
X42633494Y9019591D01*
X42564970Y8900903D01*
X42529500Y8768529D01*
X42529500Y8631472D01*
X42564970Y8499098D01*
X42633494Y8380410D01*
X42633496Y8380407D01*
X42633497Y8380406D01*
X42667595Y8346308D01*
X42701620Y8283998D01*
X42704500Y8257213D01*
X42704500Y8118395D01*
X42728044Y8030530D01*
X42728046Y8030525D01*
X42748101Y7995789D01*
X42773531Y7951742D01*
X42773534Y7951739D01*
X42773537Y7951735D01*
X43193449Y7531823D01*
X43203193Y7513979D01*
X43217044Y7499092D01*
X43219859Y7483457D01*
X43227475Y7469511D01*
X43226024Y7449229D01*
X43229628Y7429219D01*
X43223543Y7414543D01*
X43222410Y7398696D01*
X43210225Y7382420D01*
X43202438Y7363636D01*
X43184976Y7348692D01*
X43179863Y7341860D01*
X43176182Y7339206D01*
X43171883Y7336224D01*
X43120406Y7306503D01*
X43100819Y7286917D01*
X43091540Y7280478D01*
X43068138Y7272698D01*
X43046495Y7260879D01*
X43025947Y7258671D01*
X43024169Y7258079D01*
X43023067Y7258361D01*
X43019712Y7258000D01*
X43008687Y7258000D01*
X42940566Y7278002D01*
X42894073Y7331658D01*
X42890632Y7339967D01*
X42874797Y7382420D01*
X42867194Y7402805D01*
X42810869Y7478047D01*
X42786115Y7511116D01*
X42677806Y7592193D01*
X42677805Y7592194D01*
X42551040Y7639475D01*
X42538586Y7640814D01*
X42495007Y7645500D01*
X42495000Y7645500D01*
X41505000Y7645500D01*
X41504992Y7645500D01*
X41455186Y7640145D01*
X41448960Y7639475D01*
X41322195Y7592194D01*
X41322194Y7592194D01*
X41322193Y7592193D01*
X41213884Y7511116D01*
X41132807Y7402807D01*
X41132806Y7402805D01*
X41087181Y7280478D01*
X41085525Y7276039D01*
X41079500Y7220008D01*
X41079500Y6604993D01*
X41082651Y6575689D01*
X41085525Y6548960D01*
X41132806Y6422195D01*
X41132807Y6422194D01*
X41213884Y6313885D01*
X41278673Y6265386D01*
X41322195Y6232806D01*
X41448960Y6185525D01*
X41505000Y6179500D01*
X41505004Y6179500D01*
X42494996Y6179500D01*
X42495000Y6179500D01*
X42551040Y6185525D01*
X42677805Y6232806D01*
X42786115Y6313885D01*
X42867194Y6422195D01*
X42881402Y6460291D01*
X42923947Y6517124D01*
X42990467Y6541935D01*
X43059842Y6526844D01*
X43088550Y6505353D01*
X43120406Y6473497D01*
X43120407Y6473496D01*
X43120409Y6473495D01*
X43239097Y6404971D01*
X43371471Y6369501D01*
X43371475Y6369500D01*
X43419699Y6369500D01*
X43487820Y6349498D01*
X43508794Y6332595D01*
X44103531Y5737858D01*
X44167858Y5673531D01*
X44246642Y5628046D01*
X44246643Y5628046D01*
X44246645Y5628045D01*
X44334510Y5604501D01*
X44334514Y5604500D01*
X52245486Y5604500D01*
X52333358Y5628046D01*
X52412142Y5673531D01*
X54256206Y7517595D01*
X54318518Y7551620D01*
X54345301Y7554500D01*
X56007213Y7554500D01*
X56075334Y7534498D01*
X56096304Y7517599D01*
X56130406Y7483497D01*
X56130407Y7483496D01*
X56130409Y7483495D01*
X56184813Y7452085D01*
X56246202Y7416642D01*
X56249097Y7414971D01*
X56381471Y7379501D01*
X56381475Y7379500D01*
X56518525Y7379500D01*
X56605495Y7402804D01*
X56650902Y7414971D01*
X56650902Y7414972D01*
X56650905Y7414972D01*
X56769594Y7483497D01*
X56866503Y7580406D01*
X56935028Y7699095D01*
X56950332Y7756207D01*
X56955952Y7777182D01*
X56970500Y7831475D01*
X56970500Y7968525D01*
X56954017Y8030038D01*
X56932891Y8108882D01*
X56935366Y8109546D01*
X56933593Y8126034D01*
X56927533Y8154836D01*
X56929844Y8160906D01*
X56929150Y8167361D01*
X56942321Y8193675D01*
X56952796Y8221186D01*
X56959305Y8227608D01*
X56960928Y8230849D01*
X56978327Y8246372D01*
X56985514Y8251677D01*
X56985519Y8251678D01*
X57070056Y8314070D01*
X57136741Y8338425D01*
X57206011Y8322862D01*
X57252114Y8278836D01*
X57302425Y8197271D01*
X57302432Y8197262D01*
X57422261Y8077433D01*
X57422267Y8077428D01*
X57566516Y7988454D01*
X57727393Y7935145D01*
X57727399Y7935144D01*
X57826676Y7925001D01*
X58350000Y7925001D01*
X58373314Y7925001D01*
X58472602Y7935144D01*
X58633483Y7988454D01*
X58777732Y8077428D01*
X58777738Y8077433D01*
X58897567Y8197262D01*
X58897572Y8197268D01*
X58986546Y8341517D01*
X59039855Y8502394D01*
X59039856Y8502400D01*
X59050000Y8601677D01*
X59050000Y8650000D01*
X58350000Y8650000D01*
X58350000Y7925001D01*
X57826676Y7925001D01*
X57850000Y7925002D01*
X57850000Y8774000D01*
X57870002Y8842121D01*
X57923658Y8888614D01*
X57976000Y8900000D01*
X58100000Y8900000D01*
X58100000Y9024000D01*
X58120002Y9092121D01*
X58173658Y9138614D01*
X58226000Y9150000D01*
X59049999Y9150000D01*
X59049999Y9198315D01*
X59039856Y9297603D01*
X58986546Y9458484D01*
X58897572Y9602733D01*
X58897567Y9602739D01*
X58777738Y9722568D01*
X58777726Y9722577D01*
X58749436Y9740027D01*
X58701958Y9792813D01*
X58690555Y9862888D01*
X58718848Y9928003D01*
X58740068Y9948131D01*
X58761115Y9963885D01*
X58842194Y10072195D01*
X58889475Y10198960D01*
X58895500Y10255000D01*
X58895500Y10347877D01*
X58915502Y10415998D01*
X58958499Y10456995D01*
X58987142Y10473531D01*
X59446207Y10932597D01*
X59508518Y10966620D01*
X59535301Y10969500D01*
X59583525Y10969500D01*
X59649715Y10987236D01*
X59715902Y11004971D01*
X59715902Y11004972D01*
X59715905Y11004972D01*
X59834594Y11073497D01*
X59931503Y11170406D01*
X60000028Y11289095D01*
X60003229Y11301039D01*
X60027900Y11393111D01*
X60035500Y11421475D01*
X60035500Y11558525D01*
X60019780Y11617193D01*
X60000029Y11690903D01*
X59989003Y11710000D01*
X59961291Y11758000D01*
X59931505Y11809591D01*
X59931497Y11809601D01*
X59834600Y11906498D01*
X59834590Y11906506D01*
X59715902Y11975030D01*
X59583528Y12010500D01*
X59583525Y12010500D01*
X59446475Y12010500D01*
X59446471Y12010500D01*
X59314095Y11975029D01*
X59306468Y11971869D01*
X59305150Y11975049D01*
X59251580Y11962106D01*
X59184511Y11985391D01*
X59140676Y12041239D01*
X59133995Y12111921D01*
X59138091Y12127592D01*
X59164506Y12207306D01*
X59174999Y12310013D01*
X59175000Y12310013D01*
X59175000Y12560000D01*
X58288500Y12560000D01*
X58220379Y12580002D01*
X58173886Y12633658D01*
X58162500Y12686000D01*
X58162500Y12810000D01*
X58038500Y12810000D01*
X57970379Y12830002D01*
X57923886Y12883658D01*
X57912500Y12936000D01*
X57912500Y13060000D01*
X58412500Y13060000D01*
X59174999Y13060000D01*
X59174999Y13309979D01*
X59164506Y13412692D01*
X59109357Y13579123D01*
X59017316Y13728345D01*
X59017311Y13728351D01*
X58893350Y13852312D01*
X58893344Y13852317D01*
X58744122Y13944358D01*
X58577691Y13999507D01*
X58474987Y14010000D01*
X58412500Y14010000D01*
X58412500Y13060000D01*
X57912500Y13060000D01*
X57912500Y14010000D01*
X57912499Y14010001D01*
X57850022Y14010000D01*
X57747308Y13999507D01*
X57580877Y13944358D01*
X57431655Y13852317D01*
X57431649Y13852312D01*
X57307688Y13728351D01*
X57307683Y13728345D01*
X57215641Y13579121D01*
X57209665Y13561085D01*
X57169250Y13502714D01*
X57103693Y13475460D01*
X57033808Y13487974D01*
X56989193Y13525211D01*
X56936115Y13596115D01*
X56924895Y13604514D01*
X56827805Y13677194D01*
X56782425Y13694120D01*
X56725593Y13736665D01*
X56700782Y13803186D01*
X56715874Y13872560D01*
X56737364Y13901268D01*
X56766503Y13930406D01*
X56835028Y14049095D01*
X56836035Y14052851D01*
X56865269Y14161954D01*
X56870500Y14181475D01*
X56870500Y14318525D01*
X56870499Y14318529D01*
X56835029Y14450903D01*
X56766505Y14569591D01*
X56766497Y14569601D01*
X56732405Y14603693D01*
X56698379Y14666005D01*
X56695500Y14692788D01*
X56695500Y19107212D01*
X56715502Y19175333D01*
X56732405Y19196307D01*
X56816497Y19280400D01*
X56816503Y19280406D01*
X56885028Y19399095D01*
X56920500Y19531475D01*
X56920500Y19668525D01*
X56915787Y19686115D01*
X56885029Y19800903D01*
X56816505Y19919591D01*
X56816497Y19919601D01*
X56719600Y20016498D01*
X56719590Y20016506D01*
X56600902Y20085030D01*
X56468528Y20120500D01*
X56468525Y20120500D01*
X56331475Y20120500D01*
X56331471Y20120500D01*
X56199097Y20085030D01*
X56080409Y20016506D01*
X56080399Y20016498D01*
X55983502Y19919601D01*
X55983494Y19919591D01*
X55914970Y19800903D01*
X55879500Y19668529D01*
X55879500Y19531472D01*
X55914970Y19399098D01*
X55943248Y19350119D01*
X55981843Y19283270D01*
X55987619Y19273267D01*
X56004500Y19210267D01*
X56004500Y14692788D01*
X55984498Y14624667D01*
X55967595Y14603693D01*
X55933502Y14569601D01*
X55933494Y14569591D01*
X55864970Y14450903D01*
X55829500Y14318529D01*
X55829500Y14181472D01*
X55864970Y14049098D01*
X55933494Y13930410D01*
X55933496Y13930407D01*
X55933497Y13930406D01*
X55955842Y13908061D01*
X55989867Y13845751D01*
X55984803Y13774936D01*
X55942258Y13718099D01*
X55910781Y13700911D01*
X55847195Y13677194D01*
X55738884Y13596116D01*
X55657807Y13487807D01*
X55657806Y13487805D01*
X55628741Y13409877D01*
X55610525Y13361039D01*
X55604500Y13305008D01*
X55604500Y12314993D01*
X55607673Y12285486D01*
X55610525Y12258960D01*
X55657806Y12132195D01*
X55657807Y12132194D01*
X55738884Y12023885D01*
X55803673Y11975386D01*
X55847195Y11942806D01*
X55967177Y11898055D01*
X56024011Y11855509D01*
X56048822Y11788988D01*
X56033730Y11719614D01*
X55983528Y11669412D01*
X55967184Y11661948D01*
X55847195Y11617194D01*
X55847194Y11617194D01*
X55847193Y11617193D01*
X55738884Y11536116D01*
X55670903Y11445301D01*
X55657806Y11427805D01*
X55643028Y11388182D01*
X55610525Y11301039D01*
X55604500Y11245008D01*
X55604500Y10254993D01*
X55609186Y10211414D01*
X55610525Y10198960D01*
X55657806Y10072195D01*
X55657807Y10072194D01*
X55738884Y9963885D01*
X55819963Y9903192D01*
X55847195Y9882806D01*
X55910034Y9859368D01*
X55928046Y9845885D01*
X55948512Y9836538D01*
X55955909Y9825028D01*
X55966868Y9816824D01*
X55974732Y9795739D01*
X55986896Y9776812D01*
X55990098Y9754542D01*
X55991679Y9750303D01*
X55992000Y9741314D01*
X55992000Y9490490D01*
X55971998Y9422369D01*
X55967380Y9415669D01*
X55926676Y9360518D01*
X55882323Y9233762D01*
X55882322Y9233758D01*
X55879711Y9205911D01*
X55879500Y9203664D01*
X55879500Y8596336D01*
X55882322Y8566241D01*
X55917224Y8466498D01*
X55926678Y8439481D01*
X55931091Y8431132D01*
X55927807Y8429397D01*
X55945986Y8379667D01*
X55930442Y8310393D01*
X55879912Y8260520D01*
X55820251Y8245500D01*
X54128302Y8245500D01*
X54060181Y8265502D01*
X54013688Y8319158D01*
X54002302Y8371500D01*
X54002302Y18811501D01*
X54022304Y18879622D01*
X54039207Y18900596D01*
X56356206Y21217595D01*
X56418518Y21251621D01*
X56445301Y21254500D01*
X60245486Y21254500D01*
X60333358Y21278046D01*
X60412142Y21323531D01*
X63026469Y23937858D01*
X63036085Y23954514D01*
X63071954Y24016642D01*
X63095500Y24104514D01*
X63095500Y27945486D01*
X63079687Y28004500D01*
X63071955Y28033355D01*
X63071953Y28033360D01*
X63066579Y28042667D01*
X63026469Y28112142D01*
X62962142Y28176469D01*
X62333699Y28804912D01*
X62299673Y28867224D01*
X62304738Y28938039D01*
X62306364Y28942172D01*
X62331283Y29002331D01*
X62370500Y29199489D01*
X62370500Y29400511D01*
X62331283Y29597669D01*
X62254356Y29783388D01*
X62142674Y29950531D01*
X62142669Y29950537D01*
X62000536Y30092670D01*
X62000530Y30092675D01*
X61945069Y30129733D01*
X61833388Y30204356D01*
X61647669Y30281283D01*
X61640936Y30282623D01*
X61578029Y30315533D01*
X61542901Y30377230D01*
X61546704Y30448125D01*
X61588233Y30505709D01*
X61645823Y30530650D01*
X61654419Y30532012D01*
X61849025Y30595244D01*
X61849034Y30595247D01*
X62031350Y30688141D01*
X62075920Y30720525D01*
X62075920Y30720527D01*
X61438585Y31357862D01*
X61523694Y31380667D01*
X61626306Y31439910D01*
X61710090Y31523694D01*
X61769333Y31626306D01*
X61792138Y31711415D01*
X62429473Y31074080D01*
X62429475Y31074080D01*
X62461859Y31118650D01*
X62554753Y31300966D01*
X62554756Y31300975D01*
X62617988Y31495580D01*
X62650000Y31697692D01*
X62650000Y31902309D01*
X62617988Y32104421D01*
X62554756Y32299026D01*
X62554753Y32299035D01*
X62461861Y32481346D01*
X62461857Y32481353D01*
X62429475Y32525922D01*
X61792138Y31888586D01*
X61769333Y31973694D01*
X61710090Y32076306D01*
X61626306Y32160090D01*
X61523694Y32219333D01*
X61438584Y32242139D01*
X62075920Y32879476D01*
X62075920Y32879477D01*
X62031350Y32911860D01*
X61849034Y33004754D01*
X61849025Y33004757D01*
X61654420Y33067989D01*
X61452309Y33100000D01*
X61247691Y33100000D01*
X61045579Y33067989D01*
X60850974Y33004757D01*
X60850971Y33004756D01*
X60668650Y32911859D01*
X60668641Y32911854D01*
X60624078Y32879477D01*
X60624078Y32879475D01*
X61261414Y32242139D01*
X61176306Y32219333D01*
X61073694Y32160090D01*
X60989910Y32076306D01*
X60930667Y31973694D01*
X60907861Y31888586D01*
X60270525Y32525922D01*
X60270523Y32525922D01*
X60238146Y32481359D01*
X60238141Y32481350D01*
X60145244Y32299029D01*
X60145243Y32299026D01*
X60082011Y32104421D01*
X60050000Y31902309D01*
X60050000Y31697692D01*
X60082011Y31495580D01*
X60145243Y31300975D01*
X60145246Y31300966D01*
X60238140Y31118650D01*
X60270523Y31074080D01*
X60270524Y31074080D01*
X60907861Y31711417D01*
X60930667Y31626306D01*
X60989910Y31523694D01*
X61073694Y31439910D01*
X61176306Y31380667D01*
X61261415Y31357862D01*
X60624078Y30720525D01*
X60668647Y30688143D01*
X60668654Y30688139D01*
X60850965Y30595247D01*
X60850974Y30595244D01*
X61045578Y30532012D01*
X61054178Y30530650D01*
X61118333Y30500241D01*
X61155863Y30439975D01*
X61154853Y30368986D01*
X61115624Y30309812D01*
X61059064Y30282623D01*
X61052338Y30281285D01*
X61052325Y30281281D01*
X60866612Y30204356D01*
X60699469Y30092675D01*
X60699463Y30092670D01*
X60557330Y29950537D01*
X60557325Y29950531D01*
X60445644Y29783388D01*
X60368719Y29597675D01*
X60368717Y29597670D01*
X60329500Y29400514D01*
X60329500Y29199487D01*
X60350363Y29094601D01*
X60368717Y29002331D01*
X60445644Y28816612D01*
X60480484Y28764471D01*
X60557325Y28649470D01*
X60557330Y28649464D01*
X60699463Y28507331D01*
X60699469Y28507326D01*
X60866612Y28395644D01*
X61052331Y28318717D01*
X61249489Y28279500D01*
X61249490Y28279500D01*
X61450510Y28279500D01*
X61450511Y28279500D01*
X61647669Y28318717D01*
X61707776Y28343615D01*
X61778362Y28351204D01*
X61841850Y28319426D01*
X61845088Y28316301D01*
X62367595Y27793794D01*
X62401621Y27731482D01*
X62404500Y27704699D01*
X62404500Y27474048D01*
X62384498Y27405927D01*
X62330842Y27359434D01*
X62260568Y27349330D01*
X62195988Y27378824D01*
X62173735Y27404045D01*
X62142674Y27450531D01*
X62142673Y27450532D01*
X62142671Y27450535D01*
X62000536Y27592670D01*
X62000530Y27592675D01*
X61908001Y27654501D01*
X61833388Y27704356D01*
X61647669Y27781283D01*
X61584772Y27793794D01*
X61450513Y27820500D01*
X61450511Y27820500D01*
X61249489Y27820500D01*
X61249486Y27820500D01*
X61052330Y27781283D01*
X61052325Y27781281D01*
X60866612Y27704356D01*
X60699469Y27592675D01*
X60699463Y27592670D01*
X60557330Y27450537D01*
X60557325Y27450531D01*
X60445644Y27283388D01*
X60368719Y27097675D01*
X60368717Y27097670D01*
X60329500Y26900514D01*
X60329500Y26699487D01*
X60368717Y26502331D01*
X60368720Y26502322D01*
X60393613Y26442224D01*
X60401202Y26371634D01*
X60369422Y26308148D01*
X60366299Y26304912D01*
X58443792Y24382404D01*
X58381482Y24348380D01*
X58354699Y24345500D01*
X50801500Y24345500D01*
X50799757Y24346012D01*
X50798003Y24345549D01*
X50765849Y24355968D01*
X50733379Y24365502D01*
X50732189Y24366875D01*
X50730464Y24367434D01*
X50709047Y24393583D01*
X50686886Y24419158D01*
X50686260Y24421404D01*
X50685478Y24422359D01*
X50684090Y24429192D01*
X50676333Y24457037D01*
X50675500Y24464246D01*
X50675500Y24550000D01*
X50664463Y24619683D01*
X50655806Y24634677D01*
X50652810Y24660608D01*
X50654583Y24670903D01*
X50652119Y24681056D01*
X50656700Y24701512D01*
X50655286Y24701793D01*
X50670499Y24778276D01*
X50670500Y24778281D01*
X50670499Y25821718D01*
X50657707Y25886035D01*
X50657706Y25886036D01*
X50655286Y25898208D01*
X50659057Y25898959D01*
X50653814Y25947684D01*
X50654568Y25951523D01*
X50656004Y25958281D01*
X50656005Y25958281D01*
X50669378Y26021198D01*
X50675500Y26049998D01*
X50675500Y26665819D01*
X50675500Y26665826D01*
X50667816Y26724191D01*
X50633741Y26851358D01*
X50613380Y26900514D01*
X57029500Y26900514D01*
X57029500Y26900511D01*
X57029500Y26699489D01*
X57068717Y26502331D01*
X57145644Y26316612D01*
X57153462Y26304912D01*
X57257325Y26149470D01*
X57257330Y26149464D01*
X57399463Y26007331D01*
X57399469Y26007326D01*
X57566612Y25895644D01*
X57752331Y25818717D01*
X57949489Y25779500D01*
X57949490Y25779500D01*
X58150510Y25779500D01*
X58150511Y25779500D01*
X58347669Y25818717D01*
X58533388Y25895644D01*
X58700531Y26007326D01*
X58842674Y26149469D01*
X58954356Y26316612D01*
X59031283Y26502331D01*
X59070500Y26699489D01*
X59070500Y26900511D01*
X59031283Y27097669D01*
X58954356Y27283388D01*
X58842674Y27450531D01*
X58842669Y27450537D01*
X58700536Y27592670D01*
X58700530Y27592675D01*
X58608001Y27654501D01*
X58533388Y27704356D01*
X58347669Y27781283D01*
X58284772Y27793794D01*
X58150513Y27820500D01*
X58150511Y27820500D01*
X57949489Y27820500D01*
X57949486Y27820500D01*
X57752330Y27781283D01*
X57752325Y27781281D01*
X57566612Y27704356D01*
X57399469Y27592675D01*
X57399463Y27592670D01*
X57257330Y27450537D01*
X57257325Y27450531D01*
X57145644Y27283388D01*
X57068719Y27097675D01*
X57068717Y27097670D01*
X57029500Y26900514D01*
X50613380Y26900514D01*
X50611214Y26905743D01*
X50580173Y26959508D01*
X50545388Y27019758D01*
X50509557Y27066454D01*
X50509542Y27066471D01*
X50416470Y27159543D01*
X50416453Y27159558D01*
X50369757Y27195389D01*
X50255754Y27261208D01*
X50255749Y27261211D01*
X50255743Y27261214D01*
X50201358Y27283741D01*
X50201352Y27283743D01*
X50201342Y27283746D01*
X50138888Y27300481D01*
X50078265Y27337433D01*
X50047244Y27401294D01*
X50045500Y27422187D01*
X50045500Y29400514D01*
X57029500Y29400514D01*
X57029500Y29199487D01*
X57050363Y29094601D01*
X57068717Y29002331D01*
X57145644Y28816612D01*
X57180484Y28764471D01*
X57257325Y28649470D01*
X57257330Y28649464D01*
X57399463Y28507331D01*
X57399469Y28507326D01*
X57566612Y28395644D01*
X57752331Y28318717D01*
X57949489Y28279500D01*
X57949490Y28279500D01*
X58150510Y28279500D01*
X58150511Y28279500D01*
X58347669Y28318717D01*
X58533388Y28395644D01*
X58700531Y28507326D01*
X58842674Y28649469D01*
X58954356Y28816612D01*
X59031283Y29002331D01*
X59070500Y29199489D01*
X59070500Y29400511D01*
X59031283Y29597669D01*
X58954356Y29783388D01*
X58842674Y29950531D01*
X58842669Y29950537D01*
X58700536Y30092670D01*
X58700530Y30092675D01*
X58645069Y30129733D01*
X58533388Y30204356D01*
X58347669Y30281283D01*
X58340932Y30282623D01*
X58150513Y30320500D01*
X58150511Y30320500D01*
X57949489Y30320500D01*
X57949486Y30320500D01*
X57752330Y30281283D01*
X57752325Y30281281D01*
X57566612Y30204356D01*
X57399469Y30092675D01*
X57399463Y30092670D01*
X57257330Y29950537D01*
X57257325Y29950531D01*
X57145644Y29783388D01*
X57068719Y29597675D01*
X57068717Y29597670D01*
X57029500Y29400514D01*
X50045500Y29400514D01*
X50045500Y31900514D01*
X57029500Y31900514D01*
X57029500Y31699487D01*
X57044616Y31623495D01*
X57068717Y31502331D01*
X57145644Y31316612D01*
X57183870Y31259403D01*
X57257325Y31149470D01*
X57257330Y31149464D01*
X57399463Y31007331D01*
X57399469Y31007326D01*
X57566612Y30895644D01*
X57752331Y30818717D01*
X57949489Y30779500D01*
X57949490Y30779500D01*
X58150510Y30779500D01*
X58150511Y30779500D01*
X58347669Y30818717D01*
X58533388Y30895644D01*
X58700531Y31007326D01*
X58842674Y31149469D01*
X58954356Y31316612D01*
X59031283Y31502331D01*
X59070500Y31699489D01*
X59070500Y31900511D01*
X59070499Y31900514D01*
X59056759Y31969591D01*
X59031283Y32097669D01*
X58954356Y32283388D01*
X58842674Y32450531D01*
X58842669Y32450537D01*
X58700536Y32592670D01*
X58700530Y32592675D01*
X58533388Y32704356D01*
X58507582Y32715045D01*
X58450384Y32738737D01*
X58347669Y32781283D01*
X58150513Y32820500D01*
X58150511Y32820500D01*
X57949489Y32820500D01*
X57949486Y32820500D01*
X57752330Y32781283D01*
X57752325Y32781281D01*
X57566612Y32704356D01*
X57399469Y32592675D01*
X57399463Y32592670D01*
X57257330Y32450537D01*
X57257325Y32450531D01*
X57145644Y32283388D01*
X57068719Y32097675D01*
X57068717Y32097670D01*
X57029500Y31900514D01*
X50045500Y31900514D01*
X50045500Y36545486D01*
X50045499Y36545490D01*
X50021955Y36633355D01*
X50021953Y36633360D01*
X50012867Y36649098D01*
X49976469Y36712142D01*
X49912142Y36776469D01*
X47747061Y38941550D01*
X53979500Y38941550D01*
X53979500Y38658451D01*
X54011197Y38377132D01*
X54074193Y38101131D01*
X54167686Y37833945D01*
X54167691Y37833931D01*
X54167693Y37833927D01*
X54290524Y37578866D01*
X54290526Y37578862D01*
X54290528Y37578859D01*
X54441140Y37339161D01*
X54617650Y37117824D01*
X54817823Y36917651D01*
X54817827Y36917648D01*
X55039161Y36741140D01*
X55278866Y36590524D01*
X55533927Y36467693D01*
X55533942Y36467688D01*
X55533944Y36467687D01*
X55801130Y36374194D01*
X55801133Y36374194D01*
X55801137Y36374192D01*
X56077135Y36311197D01*
X56276614Y36288721D01*
X56358450Y36279500D01*
X56358452Y36279500D01*
X56641550Y36279500D01*
X56712994Y36287551D01*
X56922865Y36311197D01*
X57198863Y36374192D01*
X57229831Y36385028D01*
X57331203Y36420500D01*
X57466073Y36467693D01*
X57721134Y36590524D01*
X57960839Y36741140D01*
X58182173Y36917648D01*
X58382352Y37117827D01*
X58558860Y37339161D01*
X58709476Y37578866D01*
X58832307Y37833927D01*
X58919635Y38083495D01*
X58925806Y38101131D01*
X58925806Y38101132D01*
X58925808Y38101137D01*
X58988803Y38377135D01*
X59020500Y38658452D01*
X59020500Y38941548D01*
X59018848Y38956206D01*
X59008810Y39045301D01*
X58988803Y39222865D01*
X58925808Y39498863D01*
X58925410Y39500000D01*
X58832313Y39766056D01*
X58832312Y39766058D01*
X58832307Y39766073D01*
X58709476Y40021134D01*
X58599962Y40195425D01*
X58558857Y40260844D01*
X58558853Y40260849D01*
X58528200Y40299286D01*
X58501365Y40365016D01*
X58514326Y40434819D01*
X58562969Y40486534D01*
X58631849Y40503741D01*
X58636597Y40503457D01*
X58648933Y40502487D01*
X59317037Y41170591D01*
X59334075Y41107007D01*
X59399901Y40992993D01*
X59492993Y40899901D01*
X59607007Y40834075D01*
X59670590Y40817038D01*
X59002485Y40148934D01*
X59066240Y40102614D01*
X59066241Y40102613D01*
X59262585Y40002571D01*
X59262591Y40002568D01*
X59472162Y39934475D01*
X59472158Y39934475D01*
X59689821Y39900000D01*
X59910179Y39900000D01*
X60127839Y39934475D01*
X60337408Y40002568D01*
X60337414Y40002571D01*
X60533763Y40102616D01*
X60597513Y40148933D01*
X60597513Y40148935D01*
X59929410Y40817038D01*
X59992993Y40834075D01*
X60107007Y40899901D01*
X60200099Y40992993D01*
X60265925Y41107007D01*
X60282962Y41170590D01*
X60951065Y40502487D01*
X60951067Y40502487D01*
X60997384Y40566237D01*
X61097429Y40762586D01*
X61097432Y40762592D01*
X61165525Y40972161D01*
X61200000Y41189822D01*
X61200000Y41410179D01*
X61165525Y41627840D01*
X61097432Y41837409D01*
X61097429Y41837415D01*
X60997387Y42033759D01*
X60997386Y42033760D01*
X60951066Y42097515D01*
X60282962Y41429411D01*
X60265925Y41492993D01*
X60200099Y41607007D01*
X60107007Y41700099D01*
X59992993Y41765925D01*
X59929409Y41782963D01*
X60597513Y42451067D01*
X60597513Y42451069D01*
X60533763Y42497385D01*
X60343011Y42594578D01*
X60291396Y42643326D01*
X60274330Y42712241D01*
X60297231Y42779443D01*
X60343010Y42819111D01*
X60387270Y42841662D01*
X60529957Y42945330D01*
X60654670Y43070043D01*
X60758338Y43212730D01*
X60838408Y43369877D01*
X60892910Y43537616D01*
X60920500Y43711815D01*
X60920500Y43888185D01*
X60892910Y44062384D01*
X60838408Y44230123D01*
X60758338Y44387270D01*
X60654670Y44529957D01*
X60654667Y44529960D01*
X60654665Y44529963D01*
X60529962Y44654666D01*
X60529959Y44654668D01*
X60529957Y44654670D01*
X60387270Y44758338D01*
X60230123Y44838408D01*
X60062384Y44892910D01*
X59888185Y44920500D01*
X59711815Y44920500D01*
X59537616Y44892910D01*
X59537613Y44892910D01*
X59537612Y44892909D01*
X59487016Y44876469D01*
X59369877Y44838408D01*
X59369875Y44838408D01*
X59369875Y44838407D01*
X59212726Y44758336D01*
X59070040Y44654668D01*
X59070037Y44654666D01*
X58945334Y44529963D01*
X58945332Y44529960D01*
X58841664Y44387274D01*
X58761593Y44230125D01*
X58761592Y44230122D01*
X58718401Y44097194D01*
X58707090Y44062384D01*
X58679500Y43888185D01*
X58679500Y43711815D01*
X58707090Y43537616D01*
X58761592Y43369877D01*
X58838082Y43219757D01*
X58841664Y43212727D01*
X58844725Y43208514D01*
X58945330Y43070043D01*
X58945332Y43070041D01*
X58945334Y43070038D01*
X59070037Y42945335D01*
X59070040Y42945333D01*
X59070043Y42945330D01*
X59212730Y42841662D01*
X59256989Y42819111D01*
X59308603Y42770364D01*
X59325669Y42701449D01*
X59302768Y42634247D01*
X59256988Y42594578D01*
X59066243Y42497389D01*
X59002485Y42451068D01*
X59670590Y41782963D01*
X59607007Y41765925D01*
X59492993Y41700099D01*
X59399901Y41607007D01*
X59334075Y41492993D01*
X59317037Y41429410D01*
X58648932Y42097515D01*
X58602611Y42033757D01*
X58502570Y41837415D01*
X58502567Y41837409D01*
X58434474Y41627840D01*
X58400000Y41410179D01*
X58400000Y41189822D01*
X58434474Y40972161D01*
X58502567Y40762592D01*
X58502570Y40762586D01*
X58557597Y40654589D01*
X58570701Y40584812D01*
X58544001Y40519027D01*
X58485973Y40478121D01*
X58415042Y40475081D01*
X58356235Y40508291D01*
X58182176Y40682350D01*
X57960839Y40858860D01*
X57721141Y41009472D01*
X57721138Y41009474D01*
X57721134Y41009476D01*
X57466073Y41132307D01*
X57466069Y41132309D01*
X57466055Y41132314D01*
X57198869Y41225807D01*
X56922868Y41288803D01*
X56641550Y41320500D01*
X56641548Y41320500D01*
X56358452Y41320500D01*
X56358450Y41320500D01*
X56077131Y41288803D01*
X55801130Y41225807D01*
X55533944Y41132314D01*
X55533924Y41132306D01*
X55347248Y41042407D01*
X55290277Y41014971D01*
X55278858Y41009472D01*
X55039160Y40858860D01*
X54817823Y40682350D01*
X54617650Y40482177D01*
X54441140Y40260840D01*
X54290528Y40021142D01*
X54167694Y39766076D01*
X54167686Y39766056D01*
X54074193Y39498870D01*
X54011197Y39222869D01*
X53979500Y38941550D01*
X47747061Y38941550D01*
X47732405Y38956206D01*
X47698379Y39018518D01*
X47695500Y39045301D01*
X47695500Y40914280D01*
X47715502Y40982401D01*
X47769158Y41028894D01*
X47839432Y41038998D01*
X47884500Y41023399D01*
X47899095Y41014972D01*
X47981120Y40992993D01*
X48020648Y40982401D01*
X48031475Y40979500D01*
X48168525Y40979500D01*
X48234715Y40997236D01*
X48300902Y41014971D01*
X48300902Y41014972D01*
X48300905Y41014972D01*
X48419594Y41083497D01*
X48453692Y41117596D01*
X48481061Y41132541D01*
X48507289Y41149396D01*
X48513587Y41150302D01*
X48516002Y41151620D01*
X48542787Y41154500D01*
X48603501Y41154500D01*
X48671622Y41134498D01*
X48718115Y41080842D01*
X48729501Y41028500D01*
X48729501Y40978281D01*
X48744714Y40901792D01*
X48740944Y40901043D01*
X48746181Y40852293D01*
X48745432Y40848480D01*
X48724500Y40750001D01*
X48724500Y40134170D01*
X48732182Y40075819D01*
X48732183Y40075814D01*
X48732184Y40075809D01*
X48766259Y39948642D01*
X48788786Y39894257D01*
X48788787Y39894256D01*
X48788792Y39894246D01*
X48854611Y39780243D01*
X48890442Y39733547D01*
X48890457Y39733530D01*
X48983529Y39640458D01*
X48983546Y39640443D01*
X49030242Y39604612D01*
X49094358Y39567595D01*
X49144257Y39538786D01*
X49198642Y39516259D01*
X49325809Y39482184D01*
X49384174Y39474500D01*
X49384181Y39474500D01*
X50015819Y39474500D01*
X50015826Y39474500D01*
X50074191Y39482184D01*
X50201358Y39516259D01*
X50255743Y39538786D01*
X50369757Y39604612D01*
X50416460Y39640448D01*
X50509552Y39733540D01*
X50545388Y39780243D01*
X50551886Y39791498D01*
X50603266Y39840492D01*
X50661006Y39854500D01*
X52845486Y39854500D01*
X52933358Y39878046D01*
X53012142Y39923531D01*
X58720379Y45631770D01*
X58782689Y45665793D01*
X58853504Y45660729D01*
X58910340Y45618182D01*
X58911329Y45616842D01*
X58940666Y45576463D01*
X58945334Y45570038D01*
X59070037Y45445335D01*
X59070040Y45445333D01*
X59070043Y45445330D01*
X59212730Y45341662D01*
X59369877Y45261592D01*
X59537616Y45207090D01*
X59711815Y45179500D01*
X59711818Y45179500D01*
X59888182Y45179500D01*
X59888185Y45179500D01*
X60062384Y45207090D01*
X60230123Y45261592D01*
X60387270Y45341662D01*
X60529957Y45445330D01*
X60654670Y45570043D01*
X60758338Y45712730D01*
X60838408Y45869877D01*
X60892910Y46037616D01*
X60920500Y46211815D01*
X60920500Y46388185D01*
X60892910Y46562384D01*
X60838408Y46730123D01*
X60758338Y46887270D01*
X60654670Y47029957D01*
X60654667Y47029960D01*
X60654665Y47029963D01*
X60529962Y47154666D01*
X60529959Y47154668D01*
X60529957Y47154670D01*
X60387270Y47258338D01*
X60230123Y47338408D01*
X60062384Y47392910D01*
X59888185Y47420500D01*
X59711815Y47420500D01*
X59537616Y47392910D01*
X59537613Y47392910D01*
X59537612Y47392909D01*
X59516706Y47386116D01*
X59369877Y47338408D01*
X59369875Y47338408D01*
X59369875Y47338407D01*
X59212726Y47258336D01*
X59070040Y47154668D01*
X59070037Y47154666D01*
X58945334Y47029963D01*
X58945332Y47029960D01*
X58841664Y46887274D01*
X58761592Y46730124D01*
X58731663Y46638013D01*
X58693622Y46582384D01*
X58693697Y46582309D01*
X58693300Y46581913D01*
X58691588Y46579408D01*
X58688541Y46576994D01*
X58687857Y46576470D01*
X52693794Y40582405D01*
X52631482Y40548379D01*
X52604699Y40545500D01*
X50801500Y40545500D01*
X50799757Y40546012D01*
X50798003Y40545549D01*
X50765849Y40555968D01*
X50733379Y40565502D01*
X50732189Y40566875D01*
X50730464Y40567434D01*
X50709047Y40593583D01*
X50686886Y40619158D01*
X50686260Y40621404D01*
X50685478Y40622359D01*
X50684090Y40629192D01*
X50676333Y40657037D01*
X50675500Y40664246D01*
X50675500Y40750000D01*
X50664463Y40819683D01*
X50655806Y40834677D01*
X50652810Y40860608D01*
X50654583Y40870903D01*
X50652119Y40881056D01*
X50656700Y40901512D01*
X50655286Y40901793D01*
X50670499Y40978276D01*
X50670500Y40978281D01*
X50670499Y42021718D01*
X50657707Y42086035D01*
X50657706Y42086036D01*
X50655286Y42098208D01*
X50659057Y42098959D01*
X50653814Y42147684D01*
X50654568Y42151523D01*
X50656004Y42158281D01*
X50656005Y42158281D01*
X50668612Y42217594D01*
X50675500Y42249998D01*
X50675500Y42865819D01*
X50675500Y42865826D01*
X50667816Y42924191D01*
X50633741Y43051358D01*
X50611214Y43105743D01*
X50601853Y43121956D01*
X50545388Y43219758D01*
X50509557Y43266454D01*
X50509542Y43266471D01*
X50416470Y43359543D01*
X50416453Y43359558D01*
X50369757Y43395389D01*
X50255754Y43461208D01*
X50255749Y43461211D01*
X50255743Y43461214D01*
X50201358Y43483741D01*
X50201352Y43483743D01*
X50201342Y43483746D01*
X50138888Y43500481D01*
X50078265Y43537433D01*
X50047244Y43601294D01*
X50045500Y43622187D01*
X50045500Y48295486D01*
X50045499Y48295490D01*
X50021955Y48383355D01*
X50021953Y48383360D01*
X50009384Y48405130D01*
X49976469Y48462142D01*
X49912142Y48526469D01*
X49497061Y48941550D01*
X53979500Y48941550D01*
X53979500Y48658451D01*
X54011197Y48377132D01*
X54074193Y48101131D01*
X54167686Y47833945D01*
X54167691Y47833931D01*
X54167693Y47833927D01*
X54290524Y47578866D01*
X54290526Y47578862D01*
X54290528Y47578859D01*
X54441140Y47339161D01*
X54617650Y47117824D01*
X54817823Y46917651D01*
X54894316Y46856650D01*
X55039161Y46741140D01*
X55278866Y46590524D01*
X55533927Y46467693D01*
X55533942Y46467688D01*
X55533944Y46467687D01*
X55801130Y46374194D01*
X55801133Y46374194D01*
X55801137Y46374192D01*
X56077135Y46311197D01*
X56276614Y46288721D01*
X56358450Y46279500D01*
X56358452Y46279500D01*
X56641550Y46279500D01*
X56712994Y46287551D01*
X56922865Y46311197D01*
X57198863Y46374192D01*
X57466073Y46467693D01*
X57721134Y46590524D01*
X57960839Y46741140D01*
X58182173Y46917648D01*
X58382352Y47117827D01*
X58558860Y47339161D01*
X58709476Y47578866D01*
X58832307Y47833927D01*
X58925808Y48101137D01*
X58988803Y48377135D01*
X59018111Y48637250D01*
X59020500Y48658451D01*
X59020500Y48941550D01*
X59010082Y49034012D01*
X58988803Y49222865D01*
X58925808Y49498863D01*
X58907914Y49550000D01*
X58832313Y49766056D01*
X58832312Y49766058D01*
X58832307Y49766073D01*
X58709476Y50021134D01*
X58558860Y50260839D01*
X58382352Y50482173D01*
X58382349Y50482177D01*
X58182176Y50682350D01*
X57960839Y50858860D01*
X57721141Y51009472D01*
X57721138Y51009474D01*
X57721134Y51009476D01*
X57466073Y51132307D01*
X57466069Y51132309D01*
X57466055Y51132314D01*
X57198869Y51225807D01*
X56922868Y51288803D01*
X56641550Y51320500D01*
X56641548Y51320500D01*
X56358452Y51320500D01*
X56358450Y51320500D01*
X56077131Y51288803D01*
X55801130Y51225807D01*
X55533944Y51132314D01*
X55533924Y51132306D01*
X55278858Y51009472D01*
X55039160Y50858860D01*
X54817823Y50682350D01*
X54617650Y50482177D01*
X54441140Y50260840D01*
X54290528Y50021142D01*
X54290524Y50021136D01*
X54290524Y50021134D01*
X54268461Y49975320D01*
X54167694Y49766076D01*
X54167686Y49766056D01*
X54074193Y49498870D01*
X54011197Y49222869D01*
X53979500Y48941550D01*
X49497061Y48941550D01*
X47756259Y50682352D01*
X45724649Y52713963D01*
X45724645Y52713966D01*
X45724642Y52713969D01*
X45665062Y52748367D01*
X45645859Y52759454D01*
X45645854Y52759456D01*
X45557989Y52783000D01*
X45557986Y52783000D01*
X27701899Y52783000D01*
X27633778Y52803002D01*
X27587285Y52856658D01*
X27582969Y52867387D01*
X27571338Y52900628D01*
X27571337Y52900630D01*
X27488232Y53013232D01*
X27375630Y53096337D01*
X27375629Y53096338D01*
X27375627Y53096339D01*
X27375624Y53096340D01*
X27243536Y53142559D01*
X27243538Y53142559D01*
X27218443Y53144912D01*
X27212171Y53145500D01*
X27212170Y53145500D01*
X26187837Y53145500D01*
X26187822Y53145499D01*
X26156466Y53142559D01*
X26024370Y53096338D01*
X25911768Y53013232D01*
X25828661Y52900628D01*
X25817031Y52867387D01*
X25775653Y52809694D01*
X25709653Y52783531D01*
X25698101Y52783000D01*
X25001899Y52783000D01*
X24933778Y52803002D01*
X24887285Y52856658D01*
X24882969Y52867387D01*
X24871338Y52900628D01*
X24871337Y52900630D01*
X24788232Y53013232D01*
X24675630Y53096337D01*
X24675629Y53096338D01*
X24675627Y53096339D01*
X24675624Y53096340D01*
X24543536Y53142559D01*
X24543538Y53142559D01*
X24518443Y53144912D01*
X24512171Y53145500D01*
X24512170Y53145500D01*
X23487837Y53145500D01*
X23487822Y53145499D01*
X23456466Y53142559D01*
X23324370Y53096338D01*
X23211767Y53013232D01*
X23128664Y52900633D01*
X23128396Y52900124D01*
X23127955Y52899671D01*
X23123056Y52893033D01*
X23122147Y52893704D01*
X23078881Y52849244D01*
X23016997Y52833000D01*
X19932986Y52833000D01*
X19842014Y52833000D01*
X19788234Y52818590D01*
X19754138Y52809454D01*
X19675361Y52763972D01*
X19675355Y52763967D01*
X19404181Y52492792D01*
X18712858Y51801469D01*
X18695521Y51784132D01*
X18648534Y51737146D01*
X18648530Y51737140D01*
X18603046Y51658360D01*
X18603044Y51658355D01*
X18579500Y51570490D01*
X18579500Y50069223D01*
X18559498Y50001102D01*
X18505842Y49954609D01*
X18495121Y49950296D01*
X18489484Y49948324D01*
X18489482Y49948323D01*
X18381426Y49868574D01*
X18301677Y49760518D01*
X18301677Y49760517D01*
X18290957Y49729882D01*
X18249578Y49672191D01*
X18183577Y49646030D01*
X18172029Y49645500D01*
X17490021Y49645500D01*
X17421900Y49665502D01*
X17375407Y49719158D01*
X17365099Y49755055D01*
X17355173Y49830456D01*
X17355173Y49830457D01*
X17295169Y49975320D01*
X17295164Y49975327D01*
X17199716Y50099717D01*
X17075326Y50195165D01*
X17075318Y50195170D01*
X16930455Y50255174D01*
X16854664Y50265152D01*
X16814035Y50270500D01*
X16814032Y50270500D01*
X15485966Y50270500D01*
X15485957Y50270499D01*
X15381185Y50256706D01*
X15369543Y50255173D01*
X15224681Y50195170D01*
X15224673Y50195165D01*
X15100283Y50099717D01*
X15004835Y49975327D01*
X15004830Y49975319D01*
X14944826Y49830456D01*
X14934900Y49755054D01*
X14906178Y49690126D01*
X14846912Y49651035D01*
X14809978Y49645500D01*
X8354510Y49645500D01*
X8266642Y49621955D01*
X8266639Y49621954D01*
X8192633Y49579226D01*
X8192631Y49579225D01*
X8187861Y49576472D01*
X8187852Y49576465D01*
X7352906Y48741517D01*
X7087858Y48476469D01*
X7069393Y48458004D01*
X7023534Y48412146D01*
X7023530Y48412140D01*
X6978046Y48333360D01*
X6978044Y48333355D01*
X6954500Y48245490D01*
X6954500Y46742788D01*
X6934498Y46674667D01*
X6917595Y46653693D01*
X6883502Y46619601D01*
X6883494Y46619591D01*
X6814970Y46500903D01*
X6779500Y46368529D01*
X6779500Y46231472D01*
X6814970Y46099098D01*
X6883494Y45980410D01*
X6883496Y45980407D01*
X6883497Y45980406D01*
X6917595Y45946308D01*
X6951620Y45883998D01*
X6954500Y45857213D01*
X6954500Y40737675D01*
X6934498Y40669554D01*
X6880842Y40623061D01*
X6810568Y40612957D01*
X6745988Y40642451D01*
X6716233Y40680472D01*
X6658959Y40792877D01*
X6658959Y40792878D01*
X6539901Y40939902D01*
X6392877Y41058960D01*
X6224307Y41144850D01*
X6041566Y41193815D01*
X6041562Y41193816D01*
X5962993Y41200000D01*
X5450000Y41200000D01*
X5450000Y40300000D01*
X4950000Y40300000D01*
X4950000Y41200001D01*
X4925178Y41224823D01*
X4891152Y41287135D01*
X4894440Y41352854D01*
X4919669Y41430500D01*
X4925500Y41448446D01*
X4925500Y41551554D01*
X4900713Y41627840D01*
X4893638Y41649615D01*
X4833032Y41733033D01*
X4755395Y41789438D01*
X4749616Y41793637D01*
X4749614Y41793638D01*
X4712563Y41805677D01*
X4653957Y41845751D01*
X4626321Y41911148D01*
X4625500Y41925510D01*
X4625500Y48074491D01*
X4645502Y48142612D01*
X4699158Y48189105D01*
X4712551Y48194320D01*
X4749616Y48206363D01*
X4833032Y48266968D01*
X4893637Y48350384D01*
X4911426Y48405130D01*
X4925500Y48448446D01*
X4925500Y48551555D01*
X4894440Y48647147D01*
X4892413Y48718115D01*
X4925178Y48775179D01*
X4950000Y48800001D01*
X4950000Y49700000D01*
X5450000Y49700000D01*
X5450000Y48800000D01*
X5962991Y48800000D01*
X5962993Y48800001D01*
X6041562Y48806185D01*
X6041566Y48806186D01*
X6224307Y48855151D01*
X6392876Y48941041D01*
X6392877Y48941041D01*
X6539901Y49060099D01*
X6658959Y49207123D01*
X6658959Y49207124D01*
X6744849Y49375693D01*
X6793814Y49558434D01*
X6793815Y49558438D01*
X6799999Y49637007D01*
X6800000Y49637009D01*
X6800000Y49850000D01*
X5865686Y49850000D01*
X5870080Y49854394D01*
X5922741Y49945606D01*
X5950000Y50047339D01*
X5950000Y50152661D01*
X5922741Y50254394D01*
X5870080Y50345606D01*
X5865686Y50350000D01*
X6800000Y50350000D01*
X6800000Y50562991D01*
X6799999Y50562994D01*
X6793815Y50641563D01*
X6793814Y50641567D01*
X6744849Y50824308D01*
X6658959Y50992877D01*
X6658959Y50992878D01*
X6539901Y51139902D01*
X6392877Y51258960D01*
X6224307Y51344850D01*
X6041566Y51393815D01*
X6041562Y51393816D01*
X5962993Y51400000D01*
X5450000Y51400000D01*
X5450000Y50500000D01*
X4950000Y50500000D01*
X4950000Y51400000D01*
X4437006Y51400000D01*
X4358437Y51393816D01*
X4358433Y51393815D01*
X4175692Y51344850D01*
X4007123Y51258960D01*
X4007122Y51258960D01*
X3860098Y51139902D01*
X3741040Y50992878D01*
X3741040Y50992877D01*
X3655150Y50824308D01*
X3606185Y50641567D01*
X3606184Y50641563D01*
X3600000Y50562994D01*
X3600000Y50350000D01*
X4534314Y50350000D01*
X4529920Y50345606D01*
X4477259Y50254394D01*
X4450000Y50152661D01*
X4450000Y50047339D01*
X4477259Y49945606D01*
X4529920Y49854394D01*
X4534314Y49850000D01*
X3600000Y49850000D01*
X3600000Y49637007D01*
X3606184Y49558438D01*
X3606185Y49558434D01*
X3655150Y49375693D01*
X3741040Y49207124D01*
X3741040Y49207123D01*
X3860099Y49060099D01*
X3873287Y49049419D01*
X3913638Y48991005D01*
X3916002Y48920047D01*
X3879629Y48859076D01*
X3816066Y48827449D01*
X3793991Y48825500D01*
X2906009Y48825500D01*
X2837888Y48845502D01*
X2791395Y48899158D01*
X2781291Y48969432D01*
X2810785Y49034012D01*
X2826713Y49049419D01*
X2839900Y49060099D01*
X2958959Y49207123D01*
X2958959Y49207124D01*
X3044849Y49375693D01*
X3093814Y49558434D01*
X3093815Y49558438D01*
X3099999Y49637007D01*
X3100000Y49637009D01*
X3100000Y49850000D01*
X2165686Y49850000D01*
X2170080Y49854394D01*
X2222741Y49945606D01*
X2250000Y50047339D01*
X2250000Y50152661D01*
X2222741Y50254394D01*
X2170080Y50345606D01*
X2165686Y50350000D01*
X3100000Y50350000D01*
X3100000Y50562991D01*
X3099999Y50562994D01*
X3093815Y50641563D01*
X3093814Y50641567D01*
X3044849Y50824308D01*
X2958959Y50992877D01*
X2958959Y50992878D01*
X2839901Y51139902D01*
X2692877Y51258960D01*
X2524307Y51344850D01*
X2341566Y51393815D01*
X2341562Y51393816D01*
X2262993Y51400000D01*
X1750000Y51400000D01*
X1750000Y50500000D01*
X1250000Y50500000D01*
X1250000Y51400000D01*
X737006Y51400000D01*
X658437Y51393816D01*
X658433Y51393815D01*
X475692Y51344850D01*
X307123Y51258960D01*
X307118Y51258957D01*
X248407Y51211414D01*
X182880Y51184089D01*
X112981Y51196529D01*
X60905Y51244784D01*
X43184Y51313534D01*
X44663Y51329033D01*
X89467Y51611916D01*
X92209Y51624812D01*
X120260Y51729501D01*
X169376Y51912805D01*
X173445Y51925328D01*
X280295Y52203681D01*
X285656Y52215720D01*
X421014Y52481377D01*
X427596Y52492778D01*
X589994Y52742849D01*
X597725Y52753488D01*
X785369Y52985210D01*
X794175Y52994989D01*
X1005011Y53205825D01*
X1014790Y53214631D01*
X1246512Y53402275D01*
X1257151Y53410006D01*
X1507222Y53572404D01*
X1518623Y53578986D01*
X1784280Y53714345D01*
X1796319Y53719705D01*
X2074672Y53826555D01*
X2087195Y53830624D01*
X2375192Y53907792D01*
X2388084Y53910533D01*
X2682566Y53957174D01*
X2695678Y53958551D01*
X2996699Y53974328D01*
X3003293Y53974500D01*
X3008285Y53974500D01*
X60991715Y53974500D01*
X60996707Y53974500D01*
X61003300Y53974328D01*
G37*
%TD.AperFunction*%
%TA.AperFunction,Conductor*%
G36*
X35054012Y12723393D02*
G01*
X35060595Y12717264D01*
X39117595Y8660264D01*
X39151621Y8597952D01*
X39154500Y8571169D01*
X39154500Y7771500D01*
X39134498Y7703379D01*
X39080842Y7656886D01*
X39028500Y7645500D01*
X39004992Y7645500D01*
X38955186Y7640145D01*
X38948960Y7639475D01*
X38822195Y7592194D01*
X38822194Y7592194D01*
X38822193Y7592193D01*
X38713884Y7511116D01*
X38632807Y7402807D01*
X38632806Y7402805D01*
X38587181Y7280478D01*
X38585525Y7276039D01*
X38579500Y7220008D01*
X38579500Y6605005D01*
X38579501Y6604986D01*
X38585130Y6552622D01*
X38572524Y6482754D01*
X38548947Y6450060D01*
X37862680Y5763793D01*
X37800368Y5729767D01*
X37729553Y5734832D01*
X37698078Y5752018D01*
X37677806Y5767193D01*
X37677805Y5767194D01*
X37551040Y5814475D01*
X37538586Y5815814D01*
X37495007Y5820500D01*
X37495000Y5820500D01*
X36505000Y5820500D01*
X36504992Y5820500D01*
X36455186Y5815145D01*
X36448960Y5814475D01*
X36322195Y5767194D01*
X36322194Y5767194D01*
X36322193Y5767193D01*
X36213884Y5686116D01*
X36132807Y5577807D01*
X36085525Y5451039D01*
X36079500Y5395008D01*
X36079500Y4779993D01*
X36083281Y4744832D01*
X36085525Y4723960D01*
X36132806Y4597195D01*
X36132807Y4597194D01*
X36213884Y4488885D01*
X36278673Y4440386D01*
X36322195Y4407806D01*
X36448960Y4360525D01*
X36505000Y4354500D01*
X36505004Y4354500D01*
X37494996Y4354500D01*
X37495000Y4354500D01*
X37551040Y4360525D01*
X37677805Y4407806D01*
X37786115Y4488885D01*
X37867194Y4597195D01*
X37914475Y4723960D01*
X37920500Y4780000D01*
X37920500Y4792199D01*
X37940502Y4860320D01*
X37957405Y4881294D01*
X38364405Y5288294D01*
X38426717Y5322320D01*
X38497532Y5317255D01*
X38554368Y5274708D01*
X38579179Y5208188D01*
X38579500Y5199199D01*
X38579500Y4779993D01*
X38583281Y4744832D01*
X38585525Y4723960D01*
X38632806Y4597195D01*
X38632807Y4597194D01*
X38713884Y4488885D01*
X38778673Y4440386D01*
X38822195Y4407806D01*
X38948960Y4360525D01*
X39005000Y4354500D01*
X39028500Y4354500D01*
X39096621Y4334498D01*
X39143114Y4280842D01*
X39154500Y4228500D01*
X39154500Y3234834D01*
X39134498Y3166713D01*
X39080842Y3120220D01*
X39067436Y3115001D01*
X38901495Y3061084D01*
X38901489Y3061081D01*
X38730315Y2973863D01*
X38574895Y2860943D01*
X38574892Y2860941D01*
X38439060Y2725109D01*
X38365536Y2623912D01*
X38309313Y2580559D01*
X38238577Y2574484D01*
X38175785Y2607616D01*
X38151333Y2640771D01*
X38112915Y2716170D01*
X38052658Y2799107D01*
X37312962Y2059411D01*
X37295925Y2122993D01*
X37230099Y2237007D01*
X37137007Y2330099D01*
X37022993Y2395925D01*
X36959409Y2412963D01*
X37699105Y3152659D01*
X37699105Y3152660D01*
X37616172Y3212914D01*
X37405798Y3320105D01*
X37181254Y3393064D01*
X36948050Y3430000D01*
X36711950Y3430000D01*
X36478745Y3393064D01*
X36254198Y3320104D01*
X36043830Y3212917D01*
X35960893Y3152661D01*
X35960893Y3152660D01*
X36700591Y2412963D01*
X36637007Y2395925D01*
X36522993Y2330099D01*
X36429901Y2237007D01*
X36364075Y2122993D01*
X36347037Y2059410D01*
X35607340Y2799107D01*
X35607339Y2799107D01*
X35547083Y2716170D01*
X35508665Y2640770D01*
X35459917Y2589155D01*
X35391002Y2572090D01*
X35323800Y2594991D01*
X35294463Y2623913D01*
X35282215Y2640771D01*
X35220945Y2725102D01*
X35220942Y2725105D01*
X35220940Y2725108D01*
X35085107Y2860941D01*
X35085104Y2860943D01*
X35085102Y2860945D01*
X34929681Y2973865D01*
X34758509Y3061082D01*
X34715293Y3075124D01*
X34708352Y3078353D01*
X34687202Y3096942D01*
X34663956Y3112838D01*
X34660907Y3120054D01*
X34655025Y3125223D01*
X34647282Y3152295D01*
X34636321Y3178235D01*
X34635500Y3192595D01*
X34635500Y4228500D01*
X34655502Y4296621D01*
X34709158Y4343114D01*
X34761500Y4354500D01*
X34994996Y4354500D01*
X34995000Y4354500D01*
X35051040Y4360525D01*
X35177805Y4407806D01*
X35286115Y4488885D01*
X35367194Y4597195D01*
X35414475Y4723960D01*
X35420500Y4780000D01*
X35420500Y5395000D01*
X35414475Y5451040D01*
X35367194Y5577805D01*
X35329585Y5628045D01*
X35286115Y5686116D01*
X35177806Y5767193D01*
X35177805Y5767194D01*
X35051040Y5814475D01*
X35038586Y5815814D01*
X34995007Y5820500D01*
X34995000Y5820500D01*
X34200802Y5820500D01*
X34179214Y5826839D01*
X34156770Y5828444D01*
X34145813Y5836646D01*
X34132681Y5840502D01*
X34117945Y5857508D01*
X34099934Y5870991D01*
X34095151Y5883814D01*
X34086188Y5894158D01*
X34082985Y5916431D01*
X34075123Y5937511D01*
X34078031Y5950884D01*
X34076084Y5964432D01*
X34085431Y5984899D01*
X34090214Y6006885D01*
X34103699Y6024899D01*
X34105578Y6029012D01*
X34111707Y6035595D01*
X34218707Y6142595D01*
X34281019Y6176621D01*
X34307802Y6179500D01*
X34994996Y6179500D01*
X34995000Y6179500D01*
X35051040Y6185525D01*
X35177805Y6232806D01*
X35286115Y6313885D01*
X35367194Y6422195D01*
X35414475Y6548960D01*
X35420500Y6605000D01*
X35420500Y7220000D01*
X35414475Y7276040D01*
X35367194Y7402805D01*
X35330304Y7452085D01*
X35286115Y7511116D01*
X35177806Y7592193D01*
X35177805Y7592194D01*
X35051040Y7639475D01*
X35038586Y7640814D01*
X34995007Y7645500D01*
X34995000Y7645500D01*
X34971500Y7645500D01*
X34903379Y7665502D01*
X34856886Y7719158D01*
X34845500Y7771500D01*
X34845500Y8118529D01*
X35479500Y8118529D01*
X35479500Y7981472D01*
X35514970Y7849098D01*
X35583494Y7730410D01*
X35583496Y7730407D01*
X35583497Y7730406D01*
X35617595Y7696308D01*
X35651620Y7633998D01*
X35654500Y7607213D01*
X35654500Y7504511D01*
X35678044Y7416646D01*
X35678046Y7416641D01*
X35691967Y7392529D01*
X35723531Y7337858D01*
X36042596Y7018793D01*
X36076620Y6956482D01*
X36079500Y6929699D01*
X36079500Y6604993D01*
X36082651Y6575689D01*
X36085525Y6548960D01*
X36132806Y6422195D01*
X36132807Y6422194D01*
X36213884Y6313885D01*
X36278673Y6265386D01*
X36322195Y6232806D01*
X36448960Y6185525D01*
X36505000Y6179500D01*
X36505004Y6179500D01*
X37494996Y6179500D01*
X37495000Y6179500D01*
X37551040Y6185525D01*
X37677805Y6232806D01*
X37786115Y6313885D01*
X37867194Y6422195D01*
X37914475Y6548960D01*
X37920500Y6605000D01*
X37920500Y7220000D01*
X37914475Y7276040D01*
X37867194Y7402805D01*
X37830304Y7452085D01*
X37786115Y7511116D01*
X37677806Y7592193D01*
X37677805Y7592194D01*
X37551040Y7639475D01*
X37538586Y7640814D01*
X37495007Y7645500D01*
X37495000Y7645500D01*
X36585720Y7645500D01*
X36517599Y7665502D01*
X36471106Y7719158D01*
X36461002Y7789432D01*
X36476602Y7834501D01*
X36485028Y7849095D01*
X36520500Y7981475D01*
X36520500Y8118525D01*
X36505976Y8172727D01*
X36485029Y8250903D01*
X36416505Y8369591D01*
X36416497Y8369601D01*
X36319600Y8466498D01*
X36319590Y8466506D01*
X36200902Y8535030D01*
X36068528Y8570500D01*
X36068525Y8570500D01*
X35931475Y8570500D01*
X35931471Y8570500D01*
X35799097Y8535030D01*
X35680409Y8466506D01*
X35680399Y8466498D01*
X35583502Y8369601D01*
X35583494Y8369591D01*
X35514970Y8250903D01*
X35479500Y8118529D01*
X34845500Y8118529D01*
X34845500Y12628169D01*
X34865502Y12696290D01*
X34919158Y12742783D01*
X34989432Y12752887D01*
X35054012Y12723393D01*
G37*
%TD.AperFunction*%
%TA.AperFunction,Conductor*%
G36*
X30679032Y16461963D02*
G01*
X30685615Y16455834D01*
X34117595Y13023854D01*
X34151621Y12961542D01*
X34154500Y12934759D01*
X34154500Y7771500D01*
X34134498Y7703379D01*
X34080842Y7656886D01*
X34028500Y7645500D01*
X34004992Y7645500D01*
X33955186Y7640145D01*
X33948960Y7639475D01*
X33822195Y7592194D01*
X33822194Y7592194D01*
X33822193Y7592193D01*
X33787008Y7565854D01*
X33774186Y7561073D01*
X33763846Y7552112D01*
X33741572Y7548909D01*
X33720487Y7541045D01*
X33707117Y7543954D01*
X33693573Y7542006D01*
X33673100Y7551355D01*
X33651114Y7556138D01*
X33641439Y7565813D01*
X33628991Y7571497D01*
X33616823Y7590430D01*
X33600912Y7606341D01*
X33597167Y7621014D01*
X33590606Y7631222D01*
X33585501Y7666724D01*
X33585501Y7666727D01*
X33585501Y7676257D01*
X33585501Y7695486D01*
X33585500Y7695490D01*
X33585500Y8257213D01*
X33605502Y8325334D01*
X33622401Y8346305D01*
X33656503Y8380406D01*
X33725028Y8499095D01*
X33734657Y8535028D01*
X33758325Y8623359D01*
X33760500Y8631475D01*
X33760500Y8768525D01*
X33757318Y8780400D01*
X33725029Y8900903D01*
X33721042Y8907808D01*
X33656503Y9019594D01*
X33656501Y9019596D01*
X33656497Y9019601D01*
X33559600Y9116498D01*
X33559590Y9116506D01*
X33440902Y9185030D01*
X33308528Y9220500D01*
X33308525Y9220500D01*
X33171475Y9220500D01*
X33171471Y9220500D01*
X33039097Y9185030D01*
X32920409Y9116506D01*
X32920399Y9116498D01*
X32823502Y9019601D01*
X32823494Y9019591D01*
X32754970Y8900903D01*
X32719500Y8768529D01*
X32719500Y8631472D01*
X32754970Y8499098D01*
X32823494Y8380410D01*
X32823496Y8380407D01*
X32823497Y8380406D01*
X32857595Y8346308D01*
X32891620Y8283998D01*
X32894500Y8257213D01*
X32894500Y7845303D01*
X32885714Y7815383D01*
X32879087Y7784917D01*
X32875273Y7779823D01*
X32874498Y7777182D01*
X32857595Y7756207D01*
X32746553Y7645166D01*
X32684241Y7611141D01*
X32613426Y7616206D01*
X32600535Y7621014D01*
X32551040Y7639475D01*
X32550807Y7639500D01*
X32495007Y7645500D01*
X32495000Y7645500D01*
X31505000Y7645500D01*
X31504992Y7645500D01*
X31455186Y7640145D01*
X31448960Y7639475D01*
X31322195Y7592194D01*
X31322194Y7592194D01*
X31322193Y7592193D01*
X31213884Y7511116D01*
X31132807Y7402807D01*
X31132806Y7402805D01*
X31087181Y7280478D01*
X31085525Y7276039D01*
X31079500Y7220008D01*
X31079500Y6604993D01*
X31082651Y6575689D01*
X31085525Y6548960D01*
X31132806Y6422195D01*
X31132807Y6422194D01*
X31213884Y6313885D01*
X31278673Y6265386D01*
X31322195Y6232806D01*
X31448960Y6185525D01*
X31505000Y6179500D01*
X31505004Y6179500D01*
X32494996Y6179500D01*
X32495000Y6179500D01*
X32551040Y6185525D01*
X32677805Y6232806D01*
X32786115Y6313885D01*
X32867194Y6422195D01*
X32914475Y6548960D01*
X32920500Y6605000D01*
X32920500Y6789699D01*
X32940502Y6857820D01*
X32957405Y6878794D01*
X33364405Y7285794D01*
X33426717Y7319820D01*
X33497532Y7314755D01*
X33554368Y7272208D01*
X33579179Y7205688D01*
X33579500Y7196699D01*
X33579500Y6605005D01*
X33579501Y6604986D01*
X33585130Y6552622D01*
X33572524Y6482754D01*
X33548947Y6450060D01*
X32862680Y5763793D01*
X32800368Y5729767D01*
X32729553Y5734832D01*
X32698078Y5752018D01*
X32677806Y5767193D01*
X32677805Y5767194D01*
X32551040Y5814475D01*
X32538586Y5815814D01*
X32495007Y5820500D01*
X32495000Y5820500D01*
X31505000Y5820500D01*
X31504992Y5820500D01*
X31455186Y5815145D01*
X31448960Y5814475D01*
X31322195Y5767194D01*
X31322194Y5767194D01*
X31322193Y5767193D01*
X31213884Y5686116D01*
X31132807Y5577807D01*
X31085525Y5451039D01*
X31079500Y5395008D01*
X31079500Y4804778D01*
X31073898Y4785703D01*
X31073329Y4765830D01*
X31064102Y4752340D01*
X31059498Y4736657D01*
X31044472Y4723638D01*
X31033250Y4707228D01*
X31018194Y4700868D01*
X31005842Y4690164D01*
X30986163Y4687335D01*
X30967851Y4679598D01*
X30944410Y4681332D01*
X30935568Y4680060D01*
X30932002Y4680625D01*
X30926391Y4681597D01*
X30818525Y4710500D01*
X30759470Y4710500D01*
X30748803Y4712347D01*
X30726270Y4723429D01*
X30702180Y4730502D01*
X30686980Y4742752D01*
X30685094Y4743679D01*
X30684399Y4744832D01*
X30681206Y4747405D01*
X30507425Y4921186D01*
X30473399Y4983498D01*
X30470520Y5010281D01*
X30470520Y16366739D01*
X30490522Y16434860D01*
X30544178Y16481353D01*
X30614452Y16491457D01*
X30679032Y16461963D01*
G37*
%TD.AperFunction*%
%TA.AperFunction,Conductor*%
G36*
X48612326Y24951909D02*
G01*
X48621433Y24953218D01*
X48645858Y24942063D01*
X48671622Y24934498D01*
X48677646Y24927545D01*
X48686013Y24923724D01*
X48700527Y24901139D01*
X48718115Y24880842D01*
X48720439Y24870156D01*
X48724397Y24863998D01*
X48729501Y24828500D01*
X48729501Y24778281D01*
X48744714Y24701792D01*
X48740944Y24701043D01*
X48746181Y24652293D01*
X48745432Y24648480D01*
X48724500Y24550001D01*
X48724500Y23934170D01*
X48732182Y23875819D01*
X48732183Y23875814D01*
X48732184Y23875809D01*
X48766259Y23748642D01*
X48788786Y23694257D01*
X48788787Y23694256D01*
X48788792Y23694246D01*
X48854611Y23580243D01*
X48890442Y23533547D01*
X48890457Y23533530D01*
X48983529Y23440458D01*
X48983546Y23440443D01*
X49030242Y23404612D01*
X49113747Y23356401D01*
X49144257Y23338786D01*
X49198642Y23316259D01*
X49261113Y23299520D01*
X49321734Y23262570D01*
X49352755Y23198709D01*
X49354500Y23177814D01*
X49354500Y13604511D01*
X49378044Y13516646D01*
X49378046Y13516641D01*
X49394695Y13487805D01*
X49423531Y13437858D01*
X49423534Y13437855D01*
X49423537Y13437851D01*
X50917595Y11943794D01*
X50951620Y11881482D01*
X50954500Y11854699D01*
X50954500Y8695303D01*
X50945715Y8665386D01*
X50939087Y8634916D01*
X50935272Y8629822D01*
X50934498Y8627182D01*
X50917594Y8606206D01*
X50885593Y8574206D01*
X50823280Y8540182D01*
X50752465Y8545248D01*
X50695630Y8587796D01*
X50670820Y8654316D01*
X50670499Y8663278D01*
X50670499Y9621718D01*
X50657707Y9686035D01*
X50657706Y9686036D01*
X50655286Y9698208D01*
X50659057Y9698959D01*
X50653814Y9747684D01*
X50654568Y9751523D01*
X50656004Y9758281D01*
X50656005Y9758281D01*
X50672011Y9833586D01*
X50675500Y9849998D01*
X50675500Y10465819D01*
X50675500Y10465826D01*
X50667816Y10524191D01*
X50633741Y10651358D01*
X50611214Y10705743D01*
X50554552Y10803885D01*
X50545388Y10819758D01*
X50509557Y10866454D01*
X50509542Y10866471D01*
X50416470Y10959543D01*
X50416453Y10959558D01*
X50369757Y10995389D01*
X50255754Y11061208D01*
X50255749Y11061211D01*
X50255743Y11061214D01*
X50201358Y11083741D01*
X50074191Y11117816D01*
X50074186Y11117817D01*
X50074181Y11117818D01*
X50015830Y11125500D01*
X50015826Y11125500D01*
X49384174Y11125500D01*
X49384169Y11125500D01*
X49325818Y11117818D01*
X49325812Y11117817D01*
X49325809Y11117816D01*
X49198642Y11083741D01*
X49144255Y11061213D01*
X49144245Y11061208D01*
X49030242Y10995389D01*
X48983546Y10959558D01*
X48983529Y10959543D01*
X48890457Y10866471D01*
X48890442Y10866454D01*
X48854611Y10819758D01*
X48788792Y10705755D01*
X48788783Y10705737D01*
X48770611Y10661866D01*
X48726063Y10606585D01*
X48658699Y10584165D01*
X48589908Y10601724D01*
X48576597Y10612064D01*
X48576146Y10611475D01*
X48569590Y10616506D01*
X48450902Y10685030D01*
X48318528Y10720500D01*
X48318525Y10720500D01*
X48270301Y10720500D01*
X48202180Y10740502D01*
X48181206Y10757405D01*
X47582405Y11356206D01*
X47548379Y11418518D01*
X47545500Y11445301D01*
X47545500Y24814212D01*
X47565502Y24882333D01*
X47619158Y24928826D01*
X47689432Y24938930D01*
X47754012Y24909436D01*
X47760595Y24903307D01*
X47780399Y24883503D01*
X47780404Y24883499D01*
X47780406Y24883497D01*
X47780407Y24883496D01*
X47780409Y24883495D01*
X47899097Y24814971D01*
X48031471Y24779501D01*
X48031475Y24779500D01*
X48168525Y24779500D01*
X48298069Y24814212D01*
X48300902Y24814971D01*
X48300902Y24814972D01*
X48300905Y24814972D01*
X48419594Y24883497D01*
X48453692Y24917596D01*
X48516002Y24951620D01*
X48542787Y24954500D01*
X48603501Y24954500D01*
X48612326Y24951909D01*
G37*
%TD.AperFunction*%
%TA.AperFunction,Conductor*%
G36*
X7354012Y35517615D02*
G01*
X7380620Y35485389D01*
X7383494Y35480410D01*
X7383502Y35480400D01*
X7480399Y35383503D01*
X7480404Y35383499D01*
X7480406Y35383497D01*
X7480407Y35383496D01*
X7480409Y35383495D01*
X7599097Y35314971D01*
X7731471Y35279501D01*
X7731475Y35279500D01*
X7779699Y35279500D01*
X7847820Y35259498D01*
X7868789Y35242600D01*
X8187858Y34923531D01*
X8266642Y34878046D01*
X8266643Y34878046D01*
X8266645Y34878045D01*
X8343982Y34857322D01*
X8354514Y34854500D01*
X8445486Y34854500D01*
X10848095Y34854500D01*
X10916216Y34834498D01*
X10962709Y34780842D01*
X10972813Y34710568D01*
X10943319Y34645988D01*
X10937190Y34639405D01*
X9729600Y33431816D01*
X9705077Y33418426D01*
X9682411Y33402084D01*
X9674363Y33401654D01*
X9667288Y33397790D01*
X9639414Y33399784D01*
X9611516Y33398291D01*
X9602863Y33402398D01*
X9596472Y33402855D01*
X9578144Y33411425D01*
X9570077Y33416020D01*
X9569594Y33416503D01*
X9450905Y33485028D01*
X9447157Y33486033D01*
X9436773Y33491947D01*
X9417377Y33512053D01*
X9395626Y33529585D01*
X9393079Y33537239D01*
X9387480Y33543043D01*
X9382032Y33570444D01*
X9373214Y33596951D01*
X9375187Y33604878D01*
X9373637Y33612676D01*
X9383142Y33636830D01*
X9390016Y33664434D01*
X9410028Y33699095D01*
X9445500Y33831475D01*
X9445500Y33968525D01*
X9445499Y33968529D01*
X9410029Y34100903D01*
X9341505Y34219591D01*
X9341497Y34219601D01*
X9244600Y34316498D01*
X9244590Y34316506D01*
X9125902Y34385030D01*
X8993528Y34420500D01*
X8993525Y34420500D01*
X8856475Y34420500D01*
X8856471Y34420500D01*
X8724097Y34385030D01*
X8598266Y34312381D01*
X8535266Y34295500D01*
X7227971Y34295500D01*
X7159850Y34315502D01*
X7113357Y34369158D01*
X7109043Y34379882D01*
X7105441Y34390174D01*
X7098322Y34410519D01*
X7018574Y34518574D01*
X6910519Y34598322D01*
X6816926Y34631072D01*
X6759237Y34672450D01*
X6733074Y34738450D01*
X6746748Y34808118D01*
X6795916Y34859333D01*
X6816923Y34868928D01*
X6910519Y34901678D01*
X7018574Y34981426D01*
X7098322Y35089481D01*
X7142678Y35216241D01*
X7145500Y35246336D01*
X7145500Y35422391D01*
X7165502Y35490512D01*
X7219158Y35537005D01*
X7289432Y35547109D01*
X7354012Y35517615D01*
G37*
%TD.AperFunction*%
%TA.AperFunction,Conductor*%
G36*
X9722820Y36784498D02*
G01*
X9743794Y36767595D01*
X10542595Y35968794D01*
X10576621Y35906482D01*
X10577408Y35902565D01*
X10579500Y35891229D01*
X10579500Y35831475D01*
X10614921Y35699284D01*
X10615829Y35694366D01*
X10612668Y35663823D01*
X10611938Y35633135D01*
X10609051Y35628870D01*
X10608521Y35623746D01*
X10589349Y35599761D01*
X10572144Y35574339D01*
X10567410Y35572312D01*
X10564194Y35568288D01*
X10535100Y35558476D01*
X10506880Y35546391D01*
X10497635Y35545841D01*
X10496920Y35545599D01*
X10496280Y35545760D01*
X10491921Y35545500D01*
X8595301Y35545500D01*
X8527180Y35565502D01*
X8506206Y35582405D01*
X8357405Y35731206D01*
X8323379Y35793518D01*
X8320500Y35820301D01*
X8320500Y35868525D01*
X8320499Y35868529D01*
X8285029Y36000903D01*
X8216505Y36119591D01*
X8216497Y36119601D01*
X8119600Y36216498D01*
X8119590Y36216506D01*
X8000902Y36285030D01*
X7868528Y36320500D01*
X7868525Y36320500D01*
X7731475Y36320500D01*
X7731471Y36320500D01*
X7599097Y36285030D01*
X7480409Y36216506D01*
X7480399Y36216498D01*
X7383502Y36119601D01*
X7383494Y36119591D01*
X7318505Y36007026D01*
X7267122Y35958033D01*
X7197408Y35944597D01*
X7131498Y35970984D01*
X7104500Y36003345D01*
X7103928Y36002922D01*
X7098322Y36010517D01*
X7098322Y36010519D01*
X7018574Y36118574D01*
X6910519Y36198322D01*
X6910517Y36198323D01*
X6910515Y36198324D01*
X6904879Y36200296D01*
X6885585Y36214136D01*
X6863988Y36223999D01*
X6857277Y36234441D01*
X6847189Y36241677D01*
X6838439Y36263754D01*
X6825604Y36283725D01*
X6822803Y36303204D01*
X6821030Y36307678D01*
X6820500Y36319223D01*
X6820500Y36380777D01*
X6840502Y36448898D01*
X6894158Y36495391D01*
X6904886Y36499707D01*
X6910519Y36501678D01*
X7018574Y36581426D01*
X7098322Y36689481D01*
X7109043Y36720118D01*
X7150422Y36777809D01*
X7216423Y36803970D01*
X7227971Y36804500D01*
X9654699Y36804500D01*
X9722820Y36784498D01*
G37*
%TD.AperFunction*%
%TD*%
M02*
